<?xml version="1.0" standalone="no"?>
<!DOCTYPE svg PUBLIC "-//W3C//DTD SVG 1.1//EN" "http://www.w3.org/Graphics/SVG/1.1/DTD/svg11.dtd" >
<svg xmlns="http://www.w3.org/2000/svg">
<metadata></metadata>
<defs>
<font id="sf_florencesans_blackblack" horiz-adv-x="544" >
<font-face units-per-em="2048" ascent="1638" descent="-410" />
<missing-glyph horiz-adv-x="892" />
<glyph horiz-adv-x="2048" />
<glyph horiz-adv-x="2048" />
<glyph unicode="&#xd;" horiz-adv-x="0" />
<glyph unicode=" "  horiz-adv-x="892" />
<glyph unicode="&#x09;" horiz-adv-x="892" />
<glyph unicode="&#xa0;" horiz-adv-x="892" />
<glyph unicode="!" horiz-adv-x="616" d="M133 125q0 -74 50 -125t124 -51q76 0 126 51t50 125t-50 125t-126 51q-74 0 -124 -51t-50 -125zM166 1483l41 -1139h203l41 1139h-285z" />
<glyph unicode="&#x22;" horiz-adv-x="1046" d="M123 1554l88 -548q16 -88 96 -88q76 0 99 88l88 548h-371zM553 1554l88 -548q16 -88 96 -88q76 0 99 88l88 548h-371z" />
<glyph unicode="#" horiz-adv-x="1296" d="M133 559h189l-19 -215h246l16 215h115l-18 -215h245l17 215h241v244h-219l10 115h209v243h-188l18 215h-243l-19 -215h-115l19 215h-244l-18 -215h-242v-243h219l-10 -115h-209v-244zM588 803l10 115h113l-11 -115h-112z" />
<glyph unicode="$" horiz-adv-x="1511" d="M111 434h241q82 -219 281 -368q213 -152 473 -152q219 0 430 125v356q-233 -203 -430 -202q-156 0 -285 86q-92 57 -155 155h612l90 244h-786v78h815l88 243h-819q68 102 180 171t260 69q195 0 401 -176l105 280q-244 177 -506 177q-260 0 -473 -154h2 q-199 -147 -283 -367h-149l-92 -243h192v-78h-100z" />
<glyph unicode="%" horiz-adv-x="1888" d="M111 285l174 -174l252 254l254 -254l174 174l-254 252l254 254l-174 174l-254 -254l-252 254l-174 -174l254 -254z" />
<glyph unicode="&#x26;" horiz-adv-x="1464" d="M133 -51h817v244h-817v-244zM133 594h287v-287h244v287h286v244h-286v286h-244v-286h-287v-244z" />
<glyph unicode="'" horiz-adv-x="616" d="M123 1554l88 -548q16 -88 96 -88q76 0 99 88l88 548h-371z" />
<glyph unicode="(" horiz-adv-x="759" d="M133 627q0 -258 69.5 -450.5t241.5 -405.5h220q-156 270 -207 448q-45 166 -45 408t45 407q47 170 207 449h-220q-170 -207 -243 -410q-68 -186 -68 -446z" />
<glyph unicode=")" horiz-adv-x="759" d="M96 -229h219q172 213 242 405.5t70 450.5q0 256 -68 446q-74 203 -244 410h-219q160 -279 207 -449q45 -166 45 -407q0 -229 -47 -408q-45 -168 -205 -448z" />
<glyph unicode="*" horiz-adv-x="1056" d="M115 868l121 -211l172 99v-197h243v197l170 -99l121 211l-172 99l172 100l-121 211l-170 -100v198h-243v-198l-172 100l-121 -211l170 -100z" />
<glyph unicode="+" horiz-adv-x="1081" d="M127 -51h309l1325 1534h-309zM133 1110q0 -113 54.5 -206t147.5 -147.5t206 -54.5q172 0 288 119q121 117 121 289t-121 289q-117 121 -288 121q-113 0 -206 -54.5t-147.5 -148.5t-54.5 -207zM377 1110q0 68 49 117t115 49q68 0 117 -48t49 -118q0 -68 -49.5 -116 t-116.5 -48q-70 0 -117 47t-47 117zM938 322q0 -113 54.5 -206t148.5 -147.5t207 -54.5t206 54.5t147 147.5t54 206q0 110 -55 204.5t-148.5 149.5t-203.5 55q-113 0 -206 -55t-148.5 -148.5t-55.5 -205.5zM1182 322q0 70 49 117.5t117 47.5t115.5 -48t47.5 -117 q0 -68 -48 -116t-115 -48q-68 0 -117 48t-49 116zM1763 322q0 -113 54.5 -206t147.5 -147.5t206 -54.5q172 0 289 119q121 117 120 289q1 171 -120 288q-117 121 -289 121t-289 -121q-119 -117 -119 -288zM2007 322q0 72 49 116q47 49 115 49q70 0 118 -48t48 -117 q0 -68 -49 -115q-45 -49 -117 -49q-68 0 -115 49q-49 47 -49 115z" />
<glyph unicode="," horiz-adv-x="616" d="M123 301l88 -551q16 -88 96 -88q76 0 99 88l88 551h-371z" />
<glyph unicode="-" horiz-adv-x="1081" d="M133 416h817v243h-817v-243z" />
<glyph unicode="." horiz-adv-x="616" d="M133 125q0 -74 50 -125t124 -51q76 0 126 51t50 125t-50 125t-126 51q-74 0 -124 -51t-50 -125z" />
<glyph unicode="/" horiz-adv-x="995" d="M74 -131l262 -94l588 1609l-265 97z" />
<glyph unicode="0" horiz-adv-x="1495" d="M88 717q0 -207 81 -392.5t231.5 -298t347.5 -112.5q195 0 345 112.5t232 297t82 393.5t-82 393t-232.5 297t-344.5 113q-197 0 -346.5 -114t-231.5 -298t-82 -391zM367 717q0 137 47 257t134 192.5t200 72.5q115 0 200.5 -72.5t131.5 -192.5t46 -257t-47 -258 t-133 -193.5t-198 -72.5q-113 0 -199 72.5t-134 193.5t-48 258z" />
<glyph unicode="1" horiz-adv-x="1495" d="M344 1053l186 -187l215 215v-1132h279v1534h-250z" />
<glyph unicode="2" horiz-adv-x="1495" d="M160 -51h1175v280h-796q77 78 227 170l252 154q100 63 121 82q197 170 196 397q0 147 -83 259t-218 170.5t-286 58.5q-225 0 -392 -111h2q-199 -129 -198 -410h278q0 240 299 240q141 0 229.5 -54.5t88.5 -152.5q0 -147 -209 -287v3l-213 -134q-106 -72 -213 -133 q-260 -205 -260 -532z" />
<glyph unicode="3" horiz-adv-x="1495" d="M133 240q109 -186 273 -263h-3q136 -63 320 -63q246 0 420 123q203 147 203 393q0 250 -220 379q147 98 148 285q0 221 -187 331q-150 94 -364 95q-164 0 -307 -64l2 2q-172 -76 -240 -276l262 -99q55 156 283 156q115 0 188 -31h-2q86 -39 86 -114q0 -63 -82 -105.5 t-190 -42.5h-158v-280h158q88 0 167 -30t128 -84t49 -122q0 -113 -98.5 -175t-245.5 -62q-250 0 -348 188z" />
<glyph unicode="4" horiz-adv-x="1495" d="M123 236h788v-287h281v287h178v280h-178v967h-227l-842 -1000v-247zM471 516l440 516v-516h-440z" />
<glyph unicode="5" horiz-adv-x="1495" d="M123 360q86 -231 256 -340q156 -106 354 -106q166 0 309.5 77t228.5 212t85 299t-85 299t-228.5 212t-309.5 77q-145 0 -287 -66v180h732v279h-1012v-778l242 -97q53 92 142 146.5t183 54.5q90 0 169 -41t127 -111.5t48 -154.5t-48 -155t-127 -112.5t-169 -41.5 q-233 0 -340 237z" />
<glyph unicode="6" horiz-adv-x="1495" d="M104 717q0 -207 81 -392.5t231.5 -298t347.5 -112.5q168 0 311.5 78t229.5 213t86 301q0 164 -86 299t-230.5 213t-310.5 78q-182 0 -322 -90q27 61 68 108q106 125 254 125q160 0 289 -174l221 166q-215 289 -510 289q-197 0 -346.5 -114t-231.5 -298t-82 -391zM436 504 q0 88 44 159.5t119 111.5t165 40q137 0 244 -88q102 -90 102 -223q0 -88 -48 -159t-128 -111.5t-170 -40.5q-82 0 -158 44t-123 115.5t-47 151.5z" />
<glyph unicode="7" horiz-adv-x="1495" d="M264 -51h330l749 1292v242h-1067v-279h721z" />
<glyph unicode="8" horiz-adv-x="1495" d="M123 430q0 -242 203 -393q176 -123 422 -123q168 0 310 61.5t227 179t85 275.5q0 248 -217 379q145 98 145 285q0 225 -186 331q-150 94 -364 95q-217 0 -367 -95q-186 -111 -186 -331q0 -186 147 -285q-219 -127 -219 -379zM403 430q0 70 49.5 124t128 83t167.5 29 q88 0 166.5 -30t128 -84t49.5 -122q0 -113 -97.5 -175t-246.5 -62q-150 0 -247.5 62t-97.5 175zM475 1094q0 74 84 114h-2q78 31 191 31q115 0 190 -31h-2q84 -40 84 -114q0 -63 -82 -105.5t-190 -42.5q-109 0 -191 42t-82 106z" />
<glyph unicode="9" horiz-adv-x="1495" d="M104 928q0 -164 86 -299t230.5 -213t310.5 -78q188 0 320 88q-31 -63 -68 -107q-102 -127 -252 -126q-158 0 -291 176l-219 -166q215 -289 510 -289q195 0 345.5 112.5t232.5 297t82 393.5t-82 393t-232.5 297t-345.5 113q-170 0 -313.5 -78t-228.5 -213t-85 -301z M383 930q0 88 46 158.5t126 110.5t176 40q129 0 225 -94q102 -96 103 -215q0 -135 -94 -223v2q-103 -91 -234 -91q-90 0 -171 41t-129 112t-48 159z" />
<glyph unicode=":" horiz-adv-x="616" d="M133 125q0 -74 50 -125t124 -51q76 0 126 51t50 125t-50 125t-126 51q-74 0 -124 -51t-50 -125zM133 770q0 -74 50 -125t124 -51q76 0 126 51t50 125t-50 125t-126 51q-74 0 -124 -51t-50 -125z" />
<glyph unicode=";" horiz-adv-x="616" d="M123 301l88 -551q16 -88 96 -88q76 0 99 88l88 551h-371zM133 770q0 -74 50 -125t124 -51q76 0 126 51t50 125t-50 125t-126 51q-74 0 -124 -51t-50 -125z" />
<glyph unicode="&#x3c;" horiz-adv-x="1044" d="M115 209l133 -203l663 432v199l-663 430l-133 -201l503 -329z" />
<glyph unicode="=" horiz-adv-x="1081" d="M133 416h817v243h-817v-243zM365 125q0 -74 51 -125t125 -51t125 51t51 125t-51.5 125t-124.5 51q-74 0 -125 -51t-51 -125zM365 950q0 -74 51 -125t125 -51t125 51.5t51 124.5q0 74 -51.5 124t-124.5 50q-74 0 -125 -50t-51 -124z" />
<glyph unicode="&#x3e;" horiz-adv-x="1044" d="M133 254h817v244h-817v-244zM133 578h817v243h-817v-243z" />
<glyph unicode="?" horiz-adv-x="1009" d="M133 1087h277q2 61 28.5 106.5t67.5 45.5q39 0 65.5 -29.5t26.5 -70.5q0 -76 -72 -138v3l-80 -68l-81 -68q-109 -109 -109 -254l4 -41l6 -94q0 -16 8 -65q6 -39 7 -70h198l6 62l13 118l4 41q14 123 100 183h-2l90 59l90 59q98 92 99 273q0 98 -50.5 186t-136.5 141.5 t-186 53.5q-106 0 -191.5 -52.5t-133.5 -149.5t-48 -231zM205 125q0 -74 50 -125t124 -51q76 0 126 51t50 125t-50 125t-126 51q-74 0 -124 -51t-50 -125z" />
<glyph unicode="@" horiz-adv-x="2228" d="M117 645l221 -100l209 465l207 -465l223 100l-326 731h-209z" />
<glyph unicode="A" horiz-adv-x="1421" d="M20 -51h297l119 323h545l121 -323h297l-559 1534h-260zM537 551l172 473l172 -473h-344z" />
<glyph unicode="B" horiz-adv-x="1439" d="M133 -51h694q129 0 244 59.5t184.5 163.5t69.5 231q0 221 -186 326q151 103 151 298q0 130 -68.5 233.5t-183 163t-245.5 59.5h-660v-1534zM412 229v349h415q88 0 154 -51.5t66 -123.5q0 -76 -66 -124q-66 -49 -154 -50h-415zM412 856v348h381q88 0 152.5 -49t64.5 -125 t-64.5 -125t-152.5 -49h-381z" />
<glyph unicode="C" horiz-adv-x="1587" d="M88 717q0 -219 107.5 -403.5t292 -292t403.5 -107.5q336 0 565 236v71l-164 158q-186 -186 -401 -186q-141 0 -262 70.5t-191.5 191t-70.5 262.5q0 141 69.5 261t190.5 190.5t264 70.5q215 0 401 -184l203 194q-274 270 -604 271q-217 0 -401.5 -108.5t-293 -293 t-108.5 -401.5z" />
<glyph unicode="D" horiz-adv-x="1601" d="M133 -51h588q207 0 383 103.5t279.5 279.5t103.5 385t-103.5 385t-279.5 278.5t-383 102.5h-588v-1534zM412 229v975h309q131 0 243.5 -65.5t178 -178t65.5 -243.5t-65.5 -244t-178 -178.5t-243.5 -65.5h-309z" />
<glyph unicode="E" horiz-adv-x="1368" d="M133 -51h1104v280h-825v349h645v278h-645v348h825v279h-1104v-1534z" />
<glyph unicode="F" horiz-adv-x="1306" d="M133 -51h279v629h645v278h-645v348h825v279h-1104v-1534z" />
<glyph unicode="G" horiz-adv-x="1683" d="M88 717q0 -219 107.5 -403.5t292 -292t403.5 -107.5q205 0 381 96q180 100 289 266l8 27v553h-729v-278h450v-201q-154 -184 -399 -184q-141 0 -262 70.5t-191.5 191t-70.5 262.5q0 141 69.5 261t190.5 190.5t264 70.5q123 0 241.5 -64.5t206.5 -181.5l230 160 q-129 174 -308.5 270.5t-369.5 96.5q-217 0 -401.5 -108.5t-293 -293t-108.5 -401.5z" />
<glyph unicode="H" horiz-adv-x="1511" d="M133 -51h279v629h688v-629h280v1534h-280v-627h-688v627h-279v-1534z" />
<glyph unicode="I" d="M133 -51h279v1534h-279v-1534z" />
<glyph unicode="J" horiz-adv-x="1185" d="M49 221q86 -141 216 -224t272 -83q145 0 268 71.5t194.5 194.5t71.5 269v1034h-643v-279h365v-755q0 -104 -76 -181q-79 -75 -177 -75h-3q-137 0 -240 159z" />
<glyph unicode="K" horiz-adv-x="1359" d="M133 -51h279v567l145 146l461 -713h332l-594 911l624 623h-397l-571 -572v572h-279v-1534z" />
<glyph unicode="L" horiz-adv-x="1126" d="M133 -51h924v280h-645v1254h-279v-1534z" />
<glyph unicode="M" horiz-adv-x="1792" d="M133 -51h279v975l354 -975h260l354 971v-971h279v1534h-371l-393 -1075l-391 1075h-371v-1534z" />
<glyph unicode="N" horiz-adv-x="1511" d="M133 -51h279v1003l712 -1003h256v1534h-280v-1004l-713 1004h-254v-1534z" />
<glyph unicode="O" horiz-adv-x="1781" d="M88 717q0 -219 107.5 -403.5t292 -292t403.5 -107.5t403.5 108.5t292 293t107.5 401.5t-108.5 401.5t-293 293t-401.5 108.5t-401.5 -107.5t-293 -292t-108.5 -403.5zM367 717q0 141 69.5 261t190.5 190.5t264 70.5q141 0 261 -70.5t190.5 -190.5t70.5 -261 q0 -144 -70.5 -264.5t-190.5 -190t-261 -69.5t-262 70.5t-191.5 191t-70.5 262.5z" />
<glyph unicode="P" horiz-adv-x="1359" d="M133 -51h279v629h381q133 0 247.5 58t182 162.5t67.5 231.5t-68.5 230.5t-183 163t-245.5 59.5h-660v-1534zM412 856v348h381q88 0 152.5 -49t64.5 -125t-64.5 -125t-152.5 -49h-381z" />
<glyph unicode="Q" horiz-adv-x="1781" d="M88 717q0 -201 86 -368t237.5 -276.5t340.5 -146.5v-336h278v336q277 51 461 256q203 231 203 535q0 217 -108.5 401.5t-293 293t-401.5 108.5t-401.5 -107.5t-293 -292t-108.5 -403.5zM367 717q0 141 69.5 261t190.5 190.5t264 70.5q141 0 261 -70.5t190.5 -190.5 t70.5 -261q0 -125 -52 -231.5t-139 -177t-192 -97.5v197h-278v-197q-154 41 -258 166q-127 145 -127 340z" />
<glyph unicode="R" horiz-adv-x="1431" d="M133 -51h279v629h166q158 0 223 -103l342 -526h332l-377 579h2q-49 70 -76 101q109 53 187.5 156.5t78.5 244.5q0 127 -68.5 230.5t-183 163t-245.5 59.5h-660v-1534zM412 856v348h381q88 0 152.5 -49t64.5 -125t-64.5 -125t-152.5 -49h-381z" />
<glyph unicode="S" horiz-adv-x="1476" d="M115 436q0 -178 88 -295.5t229 -172t305 -54.5q160 0 303.5 56.5t232.5 164t89 252.5q0 289 -285 395q-147 29 -221 45l-72 13q-109 18 -179 37.5t-122.5 61.5t-52.5 112q0 86 90 137t217 51q309 0 310 -240h278q0 174 -83 292t-217 173.5t-288 55.5q-147 0 -282.5 -57.5 t-220 -164t-84.5 -247.5q0 -295 276 -400q86 -18 115 -26q57 -16 116 -25l-2 2l115 -24q74 -16 111 -23v2q200 -47 200 -169q0 -97 -97 -146t-247 -49q-143 0 -233 45l2 -2q-113 51 -113 200h-278z" />
<glyph unicode="T" horiz-adv-x="1333" d="M61 1204h465v-1255h281v1255h465v279h-1211v-279z" />
<glyph unicode="U" horiz-adv-x="1476" d="M115 537q0 -252 182 -441q188 -182 440 -182q254 0 443 182q182 188 182 441v946h-281v-946q0 -94 -46 -173t-125 -125t-173 -46t-173 46t-125 124.5t-46 173.5v946h-278v-946z" />
<glyph unicode="V" horiz-adv-x="1421" d="M20 1483l560 -1534h260l559 1534h-297l-393 -1075l-392 1075h-297z" />
<glyph unicode="W" horiz-adv-x="2017" d="M27 1483l438 -1534h262l283 977l278 -977h262l441 1534h-291l-281 -975l-280 975h-260l-283 -975l-279 975h-290z" />
<glyph unicode="X" horiz-adv-x="1437" d="M6 -51h344l369 522l366 -522h347l-541 768l541 766h-347l-366 -522l-369 522h-344l539 -766z" />
<glyph unicode="Y" horiz-adv-x="1419" d="M-4 1483l573 -813v-721h281v721l573 813h-346l-368 -522l-367 522h-346z" />
<glyph unicode="Z" horiz-adv-x="1476" d="M115 -51h1247v280h-848l848 1008v246h-1247v-279h846l-846 -1007v-248z" />
<glyph unicode="[" horiz-adv-x="794" d="M133 -229h531v278h-252v1155h252v279h-531v-1712z" />
<glyph unicode="\" horiz-adv-x="995" d="M74 1384l585 -1609l265 94l-588 1612z" />
<glyph unicode="]" horiz-adv-x="794" d="M133 49v-278h531v1712h-531v-279h250v-1155h-250z" />
<glyph unicode="^" horiz-adv-x="1093" d="M133 399q0 -133 65.5 -244.5t176 -176t243.5 -64.5q203 0 367 117l53 -82h336l-192 295q9 16 32 61l39 80h-4l76 170l-256 113l-65 -148l-175 264q100 63 154 121q96 102 96 246q0 154 -112 260q-109 109 -265 109q-102 0 -187 -49.5t-134 -134.5t-49 -185q0 -80 47 -184 q2 -4 20 -31q6 -10 17.5 -26.5t27.5 -43.5q-111 -72 -196 -166q-115 -139 -115 -301zM412 403q0 80 67 144q16 20 117 88l242 -371q-97 -71 -220 -71q-86 0 -146 60t-60 150zM610 1153q0 37 27 62.5t61 25.5q41 0 71 -26.5t30 -65.5q0 -55 -58 -88l-61 -41l-53 78h2 q-19 32 -19 55z" />
<glyph unicode="_" horiz-adv-x="993" d="M0 -51h993v244h-993v-244z" />
<glyph unicode="`" horiz-adv-x="651" d="M133 1343q0 -59 40 -99t99 -40t99.5 40t40.5 99q0 60 -40 100t-100 40q-59 0 -99 -40t-40 -100zM492 1343q0 -59 39.5 -99t99.5 -40q59 0 99 40t40 99q0 60 -40 100t-99 40t-99 -40t-40 -100z" />
<glyph unicode="a" horiz-adv-x="1468" d="M88 537q0 -166 77 -309.5t212 -228.5t299 -85q221 0 379 145v-110h280v1175h-280v-110q-156 147 -379 147q-164 0 -299 -85t-212 -228t-77 -311zM367 537q0 94 46 172.5t124.5 125t173.5 46.5q92 0 171 -47.5t126 -126t47 -170.5q0 -93 -47 -171.5t-126 -125.5t-171 -47 q-94 0 -173 46t-125 124.5t-46 173.5z" />
<glyph unicode="b" horiz-adv-x="1468" d="M133 -51h279v110q158 -145 381 -145q164 0 298 85t211.5 228.5t77.5 309.5q0 170 -77.5 313t-212 227t-297.5 84q-221 0 -381 -147v469h-279v-1534zM412 537q0 94 46 172.5t125 125t173 46.5q92 0 171 -47.5t126 -126t47 -170.5q0 -93 -47 -171.5t-126 -125.5t-171 -47 q-94 0 -173 46t-125 124.5t-46 173.5z" />
<glyph unicode="c" horiz-adv-x="1331" d="M88 537q0 -252 182 -441q188 -182 441 -182q147 0 277 64.5t218 181.5l-12 73l-186 119q-137 -159 -297 -159q-94 0 -173 46t-125 124.5t-46 173.5q0 94 46 172.5t124.5 125t173.5 46.5q162 0 297 -158l231 147q-104 137 -242.5 214t-285.5 77q-252 0 -441 -182 q-182 -188 -182 -442z" />
<glyph unicode="d" horiz-adv-x="1468" d="M88 537q0 -166 77 -309.5t212 -228.5t299 -85q221 0 379 145v-110h280v1534h-280v-469q-156 147 -379 147q-164 0 -299 -85t-212 -228t-77 -311zM367 537q0 94 46 172.5t124.5 125t173.5 46.5q92 0 171 -47.5t126 -126t47 -170.5q0 -93 -47 -171.5t-126 -125.5t-171 -47 q-94 0 -173 46t-125 124.5t-46 173.5z" />
<glyph unicode="e" horiz-adv-x="1423" d="M88 537q0 -252 182 -441q188 -182 441 -182q147 0 285.5 77t242.5 214l-233 147q-134 -159 -293 -159h-2q-109 0 -195 61t-121 143h926q14 79 14 140q0 254 -182 442q-188 182 -442 182q-252 0 -441 -182q-182 -188 -182 -442zM395 678q38 76 101 129q98 74 215 74 q113 0 194.5 -59.5t120.5 -143.5h-631z" />
<glyph unicode="f" horiz-adv-x="772" d="M88 737h107v-737h280v737h178v281h-178v182q0 16 11.5 28.5t27.5 12.5t74 -45l131 256q-111 68 -205 68q-131 0 -225 -95q-94 -88 -94 -225v-182h-107v-281z" />
<glyph unicode="g" horiz-adv-x="1468" d="M88 537q0 -250 164 -433q55 -66 143 -118l-198 -166q225 -264 514 -264q254 0 442 182q182 188 182 440v946h-280v-114q-43 39 -113 82q-123 69 -262 69h-4q-164 0 -299 -85t-212 -228t-77 -311zM367 537q0 94 46 172.5t124.5 125t173.5 46.5q92 0 171 -47.5t126 -126 t47 -170.5q0 -93 -47 -171.5t-126 -125.5t-171 -47q-94 0 -173 46t-125 124.5t-46 173.5zM446 -39q113 -47 230 -47q141 0 266 68q23 12 82 53q-23 -53 -66 -101q-94 -100 -247 -100q-141 0 -265 127z" />
<glyph unicode="h" horiz-adv-x="1280" d="M133 -51h279v696q0 96 69.5 166t167.5 70q96 0 166 -69t70 -167v-696h280v696q0 139 -62.5 257t-173 188.5t-245.5 70.5q-152 0 -272 -90v412h-279v-1534z" />
<glyph unicode="i" d="M96 1343q0 -74 51.5 -125t124.5 -51q74 0 125.5 51.5t51.5 124.5q0 74 -51.5 125.5t-125.5 51.5t-125 -51.5t-51 -125.5zM133 -51h279v1175h-279v-1175z" />
<glyph unicode="j" d="M-111 -377q104 -67 200 -67h3q133 0 227 92q92 94 93 227v1249h-279v-1249q0 -16 -12 -28.5t-29 -12.5q-12 0 -72 47zM96 1343q0 -74 51.5 -125t124.5 -51q74 0 125.5 51.5t51.5 124.5q0 74 -51.5 125.5t-125.5 51.5t-125 -51.5t-51 -125.5z" />
<glyph unicode="k" horiz-adv-x="1216" d="M133 -51h279v352l141 141l321 -493h332l-452 694l483 481h-397l-428 -428v787h-279v-1534z" />
<glyph unicode="l" d="M133 -51h279v1534h-279v-1534z" />
<glyph unicode="m" horiz-adv-x="1888" d="M133 -51h279v696q0 94 58 165t142 71t142.5 -68t58.5 -168v-696h281v696q0 98 58 167t142 69q82 0 141.5 -71t59.5 -165v-696h279v696q0 139 -62.5 258t-172 188.5t-245.5 69.5q-211 0 -331 -160q-102 160 -297 160q-145 0 -254 -84v47h-279v-1175z" />
<glyph unicode="n" horiz-adv-x="1280" d="M133 -51h279v696q0 96 69.5 166t167.5 70q96 0 166 -69t70 -167v-696h280v696q0 139 -62.5 257t-173 188.5t-245.5 70.5q-152 0 -272 -90v53h-279v-1175z" />
<glyph unicode="o" horiz-adv-x="1423" d="M88 537q0 -252 182 -441q188 -182 441 -182q254 0 442 182q182 188 182 441q0 254 -182 442q-188 182 -442 182q-252 0 -441 -182q-182 -188 -182 -442zM367 537q0 94 46 172.5t124.5 125t173.5 46.5q92 0 171 -47.5t126 -126t47 -170.5q0 -93 -47 -171.5t-126 -125.5 t-171 -47q-94 0 -173 46t-125 124.5t-46 173.5z" />
<glyph unicode="p" horiz-adv-x="1468" d="M133 -410h279v469q158 -145 381 -145q164 0 298 85t211.5 228.5t77.5 309.5q0 170 -77.5 313t-212 227t-297.5 84q-221 0 -381 -147v110h-279v-1534zM412 537q0 94 46 172.5t125 125t173 46.5q92 0 171 -47.5t126 -126t47 -170.5q0 -93 -47 -171.5t-126 -125.5t-171 -47 q-94 0 -173 46t-125 124.5t-46 173.5z" />
<glyph unicode="q" horiz-adv-x="1468" d="M88 537q0 -166 77 -309.5t212 -228.5t299 -85q221 0 379 145v-469h280v1534h-280v-110q-156 147 -379 147q-164 0 -299 -85t-212 -228t-77 -311zM367 537q0 94 46 172.5t124.5 125t173.5 46.5q92 0 171 -47.5t126 -126t47 -170.5q0 -93 -47 -171.5t-126 -125.5t-171 -47 q-94 0 -173 46t-125 124.5t-46 173.5z" />
<glyph unicode="r" horiz-adv-x="872" d="M133 -51h279v696q0 96 69.5 166t167.5 70q55 0 86 -15l68 45v238q-80 12 -119 12q-152 0 -272 -90v53h-279v-1175z" />
<glyph unicode="s" horiz-adv-x="1224" d="M115 346q0 -149 69.5 -245.5t182 -141.5t245.5 -45q125 0 240 45t186.5 132t71.5 204q0 231 -213 317h2q-10 6 -348 72q-139 29 -139 96q0 49 61 76l-2 -2q51 27 141 27t142 -27l-2 2q61 -27 61 -127h281q0 236 -168 340h2q-135 92 -316 92q-178 0 -315 -92h2 q-166 -106 -166 -289q0 -141 37 -206.5t120 -94t288 -67.5l114 -23q139 -29 139 -94q0 -102 -219 -102q-92 0 -151 24h2q-70 27 -70 129h-278z" />
<glyph unicode="t" horiz-adv-x="849" d="M70 846h215v-846h280v846h215v278h-215v252h-280v-252h-215v-278z" />
<glyph unicode="u" horiz-adv-x="1280" d="M115 430q0 -137 62.5 -256t172 -189.5t244.5 -70.5q154 0 272 88v-53h281v1175h-281v-694q0 -98 -69 -166q-67 -71 -163 -71h-3q-98 0 -166 71q-72 68 -72 166v694h-278v-694z" />
<glyph unicode="v" horiz-adv-x="1249" d="M20 1124l474 -1175h260l477 1175h-303l-305 -751l-301 751h-302z" />
<glyph unicode="w" horiz-adv-x="1771" d="M23 1124l383 -1175h262l219 672l217 -672h264l381 1175h-295l-217 -669l-219 669h-264l-217 -669l-218 669h-296z" />
<glyph unicode="x" horiz-adv-x="1183" d="M6 -51h344l242 344l239 -344h349l-416 588l416 587h-349l-239 -342l-242 342h-344l412 -587z" />
<glyph unicode="y" horiz-adv-x="1249" d="M20 1124l453 -1124l-59 -147q-8 -18 -35 -19q-39 0 -141 39v-283q97 -34 139 -34h2q217 0 297 200v-2l555 1370h-303l-305 -751l-301 751h-302z" />
<glyph unicode="z" horiz-adv-x="1296" d="M115 -51h1067v280h-643l643 645v250h-1067v-278h643l-643 -645v-252z" />
<glyph unicode="{" horiz-adv-x="921" d="M133 487h103q33 0 54 -15t21 -42v-305q0 -88 47.5 -171t126 -133t164.5 -50h139v278h-122q-29 0 -51.5 23.5t-22.5 52.5v287q0 78 -55 166q-20 27 -43 49q29 29 43 51q55 88 55 164v286q0 29 22.5 52.5t51.5 23.5h122v279h-139q-86 0 -164.5 -50.5t-126 -133 t-47.5 -171.5v-305q0 -27 -21.5 -42t-53.5 -15h-103v-279z" />
<glyph unicode="|" d="M133 537q0 -266 131 -491.5t356.5 -357.5t493.5 -132q139 0 326 55l-60 217q-150 -47 -266 -47q-203 0 -377 102.5t-276.5 276.5t-102.5 377q0 205 102.5 379t276.5 276t377 102q205 0 378 -101t275.5 -275.5t102.5 -380.5q0 -92 -35 -175t-95.5 -134.5t-133.5 -51.5 q-41 0 -67 35t-26 82v4q0 8 3 12l59 682h-236l-6 -67q-106 94 -268 94q-135 0 -247.5 -73t-178.5 -192.5t-66 -254.5q0 -121 53.5 -222.5t147.5 -160t215 -58.5q180 0 305 113q23 -76 72 -121q88 -100 227 -100t255 86t182.5 222t66.5 280q0 406 -289 694q-281 289 -694 289 q-268 0 -493.5 -132.5t-356.5 -357.5t-131 -493zM809 512q0 70 38 132.5t100.5 100t133.5 37.5q92 0 156 -63q63 -63 63 -156q0 -71 -36.5 -133.5t-100 -99.5t-135.5 -37q-92 0 -156 63q-63 63 -63 156z" />
<glyph unicode="}" horiz-adv-x="921" d="M133 49v-278h139q84 0 162 52t126 135t48 167v305q0 25 22.5 41t53.5 16h104v279h-104q-31 0 -53.5 16.5t-22.5 40.5v305q0 129 -100 242q-106 113 -236 113h-139v-279h121q29 0 52.5 -23.5t23.5 -52.5v-286q0 -76 55 -164q23 -35 39 -51q-12 -12 -39 -49 q-55 -88 -55 -166v-287q0 -29 -23.5 -52.5t-52.5 -23.5h-121z" />
<glyph unicode="~" horiz-adv-x="1089" d="M86 1483l467 -662h-342v-243h448v-80h-448v-244h448v-305h279v305h448v244h-448v80h448v243h-342l467 662h-344l-368 -522l-367 522h-346z" />
<glyph unicode="&#xa1;" horiz-adv-x="616" d="M133 1128q0 -74 50 -125t124 -51q76 0 126 51.5t50 124.5q0 74 -50 125.5t-126 51.5q-74 0 -124 -51.5t-50 -125.5zM166 -229h285l-41 1138h-203z" />
<glyph unicode="&#xa2;" horiz-adv-x="1394" d="M70 -371q111 -74 200 -73q131 0 236 92h-2q104 92 123 219l98 711h182l37 278h-178l47 338q4 20 19.5 33.5t33.5 13.5q8 0 66 -43l162 252q-107 70 -203 70q-135 0 -236 -95h2q-104 -88 -122 -217l-52 -352h-178l-39 -278h178l-96 -697q-4 -18 -19.5 -32.5t-33.5 -14.5 q-12 0 -62 43z" />
<glyph unicode="&#xa3;" horiz-adv-x="1400" d="M111 434h241q82 -219 281 -368q213 -152 473 -152q219 0 430 125v356q-233 -203 -430 -202q-156 0 -285 86q-92 57 -155 155h612l90 244h-786v78h815l88 243h-819q68 102 180 171t260 69q195 0 401 -176l105 280q-244 177 -506 177q-260 0 -473 -154h2 q-199 -147 -283 -367h-149l-92 -243h192v-78h-100z" />
<glyph unicode="&#xa4;" horiz-adv-x="1732" d="M133 537q0 -150 64.5 -278t175 -214t243.5 -115v-196h279v196q219 49 356 230l-12 73l-188 121q-76 -92 -156 -131v629q82 -43 156 -129l231 154q-168 215 -387 268v194h-279v-194q-195 -39 -333 -203q-150 -168 -150 -405zM412 537q0 127 75 215q51 70 129 100v-631 q-74 33 -129 101q-76 94 -75 215z" />
<glyph unicode="&#xa5;" horiz-adv-x="1597" d="M88 578h178v-629h998v280h-717v349h358v278h-358v129q0 68 34.5 126t93 93t126.5 35q137 0 239 -158l248 129q-84 142 -215 226t-272 84q-145 0 -268 -73t-195 -196t-72 -266v-129h-178v-278z" />
<glyph unicode="&#xa6;" d="M133 -229h279v1712h-279v-1712z" />
<glyph unicode="&#xa7;" horiz-adv-x="1261" d="M133 565q0 168 83 309.5t224.5 223.5t307.5 82q256 0 434 -183q180 -174 180 -432q0 -166 -83 -308t-224.5 -225t-306.5 -83q-166 0 -307.5 83t-224.5 224t-83 309zM332 565q0 -160 100 -272v541q-100 -113 -100 -269zM623 166q45 -16 125 -16q94 0 180 40l-156 240 q-27 39 -92 39h-57v-303zM623 659h163q33 0 58.5 17.5t25.5 46.5q0 25 -25.5 42t-58.5 17h-163v-123zM666 973h120q39 0 74 -10q-59 18 -112 18q-47 0 -82 -8zM905 948q33 -14 70 -45q86 -70 86 -180q0 -63 -33 -118.5t-88 -92.5l12 -12q0 -2 11 -17h-2l114 -176 q88 106 88 258q0 168 -125 291q-61 63 -133 92z" />
<glyph unicode="&#xa8;" horiz-adv-x="903" d="M90 1167h225l82 101l82 -101h228l-211 316h-197z" />
<glyph unicode="&#xa9;" horiz-adv-x="1495" d="M133 -229h279v798h-279v-798zM133 684h279v799h-279v-799z" />
<glyph unicode="&#xaa;" horiz-adv-x="1224" d="M133 1030q0 -195 127 -334v2q129 -147 326 -147q160 0 272 92v-65h236v905h-236v-68q-121 96 -272 96q-125 0 -229.5 -65.5t-164 -176t-59.5 -239.5zM367 1030q0 94 71 172q74 74 174 74q66 0 122.5 -34t90 -91t33.5 -121q0 -65 -33.5 -121.5t-90 -90.5t-122.5 -34 q-104 0 -174 70q-72 78 -71 176z" />
<glyph unicode="&#xab;" horiz-adv-x="1564" d="M133 328l590 -398l135 205l-434 291l434 293l-135 205l-590 -400v-196zM723 328l592 -398l135 205l-434 291l434 293l-135 205l-592 -400v-196z" />
<glyph unicode="&#xac;" horiz-adv-x="1081" d="M133 438l664 -432l133 203l-506 328l506 329l-133 201l-664 -430v-199z" />
<glyph unicode="&#xad;" horiz-adv-x="1081" d="M133 416h817v243h-817v-243z" />
<glyph unicode="&#xae;" horiz-adv-x="1495" d="M133 1030q0 -129 64.5 -228.5t167 -156.5t215.5 -65v-990h280v1614h115v-1614h278v1614h215v279h-837q-131 0 -246 -59.5t-183.5 -163t-68.5 -230.5z" />
<glyph unicode="&#xaf;" horiz-adv-x="903" d="M76 1483l260 -316h215l-158 316h-317z" />
<glyph unicode="&#xb0;" horiz-adv-x="759" d="M133 307h277v-717h280v717h277v281h-277v258h277v278h-277v359h-280v-359h-277v-278h277v-258h-277v-281z" />
<glyph unicode="&#xb1;" horiz-adv-x="1081" d="M133 416h287v-287h244v287h286v243h-286v287h-244v-287h-287v-243z" />
<glyph unicode="&#xb2;" horiz-adv-x="903" d="M133 666h637v190h-356l28 21l31 18q74 41 129 78q51 31 64 43h-2q106 92 106 217q0 80 -44 141.5t-117.5 94t-157.5 32.5q-139 0 -228.5 -71.5t-89.5 -237.5h189q0 74 30.5 96.5t93.5 22.5q61 0 97.5 -21.5t36.5 -56.5q0 -57 -93 -123v2l-208 -131q-145 -109 -146 -315z " />
<glyph unicode="&#xb3;" horiz-adv-x="913" d="M115 846q106 -197 329 -197q137 0 236.5 75t99.5 208q0 121 -92 190q57 51 57 142q0 125 -106 188q-82 49 -195 49q-231 0 -305 -209l178 -65q29 84 127 84q111 0 111 -47q0 -18 -33 -33h2q-39 -16 -80 -17h-104v-190h104q63 0 105.5 -26.5t42.5 -65.5q0 -43 -40 -68.5 t-108 -25.5q-106 0 -165 104z" />
<glyph unicode="&#xb4;" horiz-adv-x="651" d="M133 1257h232v-626h227v626h96v-626h225v284l105 -284h190l103 284v-284h227v852h-258l-168 -457l-166 457h-813v-226z" />
<glyph unicode="&#xb6;" horiz-adv-x="1601" d="M133 1237q0 -104 72 -176t174 -72q104 0 176 72t72 176q0 102 -72 174t-176 72q-102 0 -174 -72t-72 -174zM305 1237q0 31 21.5 52.5t52.5 21.5q33 0 54.5 -21.5t21.5 -52.5t-21.5 -53.5t-54.5 -22.5q-31 0 -52.5 22.5t-21.5 53.5z" />
<glyph unicode="&#xb7;" horiz-adv-x="616" d="M133 537q0 -74 50 -124.5t124 -50.5q76 0 126 50.5t50 124.5q0 75 -50 125.5t-126 50.5q-74 0 -124 -50.5t-50 -125.5z" />
<glyph unicode="&#xb8;" horiz-adv-x="651" d="M90 1483l209 -316h197l211 316h-228l-82 -101l-82 101h-225z" />
<glyph unicode="&#xb9;" horiz-adv-x="645" d="M111 1243l129 -129l82 82v-530h190v817h-162z" />
<glyph unicode="&#xba;" horiz-adv-x="1224" d="M133 1030q0 -131 63.5 -241.5t174 -174t241.5 -63.5t242 64.5t175.5 174t64.5 240.5q0 129 -65.5 239.5t-176.5 176t-240 65.5q-203 0 -340 -143q-139 -139 -139 -338zM367 1030q0 94 71 172q74 74 174 74q66 0 122.5 -34t90 -91t33.5 -121q0 -65 -33.5 -121.5t-90 -90.5 t-122.5 -34q-104 0 -174 70q-72 78 -71 176z" />
<glyph unicode="&#xbb;" horiz-adv-x="1564" d="M115 135l135 -205l590 398v196l-590 400l-135 -205l434 -293zM707 135l133 -205l592 398v196l-592 400l-133 -205l432 -293z" />
<glyph unicode="&#xbc;" horiz-adv-x="1081" d="M133 631h817v172h-817v-172zM264 63h314v-114h172v114h71v173h-71v387h-136l-350 -418v-142zM358 1282l121 -115l53 54v-412h173v674h-144zM496 236l82 96v-96h-82z" />
<glyph unicode="&#xbd;" horiz-adv-x="1081" d="M133 631h340q-57 -12 -102 -43q-92 -57 -92 -219h172q0 63 19 79.5t69 16.5q96 0 96 -53q0 -39 -70 -90v2l-82 -52q-72 -45 -82 -51q-123 -98 -122 -272h528v172h-262l20 14q72 41 103 62l51 34h-2q90 78 90 181q0 94 -60.5 148t-134.5 71h338v172h-817v-172zM358 1282 l121 -115l53 54v-412h173v674h-144z" />
<glyph unicode="&#xbe;" horiz-adv-x="1081" d="M133 631h817v172h-346q80 16 143.5 70.5t63.5 158.5q0 96 -70 154q41 47 41 110q0 98 -71.5 149.5t-178.5 51.5q-190 0 -256 -184l162 -60v-157h94q43 0 75 -19.5t32 -44.5q0 -33 -27 -47q-41 -18 -80 -18q-82 0 -124 88l-154 -88q72 -137 203 -164h-324v-172zM264 63 h314v-114h172v114h71v173h-71v387h-136l-350 -418v-142zM444 1268q25 57 88 57q78 0 78 -29q0 -8 -18 -14q-27 -14 -60 -14h-88zM496 236l82 96v-96h-82z" />
<glyph unicode="&#xbf;" horiz-adv-x="1009" d="M133 117q0 -102 50 -190.5t136.5 -140.5t186.5 -52q98 0 184 53t137.5 141t51.5 189l-52 49h-227q-2 -62 -29.5 -107t-64.5 -45q-41 0 -67.5 30t-26.5 73q0 74 71 135v-2l82 67l82 68q106 106 107 254l-2 43l-9 92l-4 68q-2 23 -5 40t-5 27h-197l-6 -61l-6 -64 q-4 -37 -7 -60.5t-5 -35.5q-16 -123 -100 -180h2q-37 -27 -119 -80l-60 -41q-98 -88 -98 -270zM455 1128q0 -74 51 -125t125 -51t125 51.5t51 124.5q0 74 -51 125.5t-125 51.5t-125 -51.5t-51 -125.5z" />
<glyph unicode="&#xc0;" horiz-adv-x="1421" d="M20 -51h297l119 323h545l121 -323h297l-559 1534h-260zM369 1841l262 -315h213l-158 315h-317zM537 551l172 473l172 -473h-344z" />
<glyph unicode="&#xc1;" horiz-adv-x="1421" d="M20 -51h297l119 323h545l121 -323h297l-559 1534h-260zM537 551l172 473l172 -473h-344zM573 1526h215l263 315h-320z" />
<glyph unicode="&#xc2;" horiz-adv-x="1421" d="M20 -51h297l119 323h545l121 -323h297l-559 1534h-260zM401 1526h226l82 100l84 -100h225l-209 315h-199zM537 551l172 473l172 -473h-344z" />
<glyph unicode="&#xc3;" horiz-adv-x="1421" d="M20 -51h297l119 323h545l121 -323h297l-559 1534h-260zM379 1614l192 -103q31 111 29 111q29 0 94 -41q88 -55 148 -55q133 0 188 194l-24 60l-154 84q-31 -111 -29 -111q-29 0 -98 39h2q-86 55 -147 55q-133 0 -201 -233zM537 551l172 473l172 -473h-344z" />
<glyph unicode="&#xc4;" horiz-adv-x="1421" d="M20 -51h297l119 323h545l121 -323h297l-559 1534h-260zM393 1667q0 -59 40 -100t99 -41t99.5 41t40.5 100t-40 99t-100 40q-59 0 -99 -40t-40 -99zM537 551l172 473l172 -473h-344zM752 1667q0 -59 39.5 -100t99.5 -41q59 0 99 41t40 100t-40 99t-99 40t-99 -40t-40 -99z " />
<glyph unicode="&#xc5;" horiz-adv-x="1421" d="M20 -51h297l119 323h545l121 -323h297l-518 1429q75 70 75 181q0 102 -73 172q-68 76 -174 75q-104 0 -175 -71.5t-71 -175.5q0 -111 78 -183zM537 551l172 473l172 -473h-344zM635 1559q0 31 21.5 53t52.5 22q33 0 54 -22.5t21 -52.5q0 -31 -21.5 -53.5t-53.5 -22.5 q-31 0 -52.5 22.5t-21.5 53.5z" />
<glyph unicode="&#xc6;" horiz-adv-x="2142" d="M20 -51h297l119 323h545l121 -323h909v280h-645v349h465v278h-465v348h645v279h-926v-674l-245 674h-260zM537 551l172 473l172 -473h-344z" />
<glyph unicode="&#xc7;" horiz-adv-x="1587" d="M88 717q0 -309 205 -539q197 -211 459 -254l-31 -135h117q16 0 27.5 -12.5t11.5 -28.5q0 -39 -39 -39h-164l-51 -153h215q78 0 135 57t57 135q0 111 -96 168q305 12 522 234v71l-164 158q-186 -186 -401 -186q-141 0 -262 70.5t-191.5 191t-70.5 262.5q0 141 69.5 261 t190.5 190.5t264 70.5q215 0 401 -184l203 194q-274 270 -604 271q-217 0 -401.5 -108.5t-293 -293t-108.5 -401.5z" />
<glyph unicode="&#xc8;" horiz-adv-x="1368" d="M133 -51h1104v280h-825v349h645v278h-645v348h825v279h-1104v-1534zM344 1841l262 -315h213l-157 315h-318z" />
<glyph unicode="&#xc9;" horiz-adv-x="1368" d="M133 -51h1104v280h-825v349h645v278h-645v348h825v279h-1104v-1534zM549 1526h215l260 315h-317z" />
<glyph unicode="&#xca;" horiz-adv-x="1368" d="M133 -51h1104v280h-825v349h645v278h-645v348h825v279h-1104v-1534zM377 1526h225l82 100l82 -100h227l-211 315h-196z" />
<glyph unicode="&#xcb;" horiz-adv-x="1368" d="M133 -51h1104v280h-825v349h645v278h-645v348h825v279h-1104v-1534zM365 1667q0 -59 40.5 -100t100.5 -41q59 0 99 41t40 100t-40 99t-99 40t-100 -40t-41 -99zM723 1667q0 -59 41 -100t100 -41t99.5 41t40.5 100t-40 99t-100 40q-59 0 -100 -40t-41 -99z" />
<glyph unicode="&#xcc;" d="M-68 1841l261 -315h215l-158 315h-318zM133 -51h279v1534h-279v-1534z" />
<glyph unicode="&#xcd;" d="M133 -51h279v1534h-279v-1534zM135 1526h215l262 315h-319z" />
<glyph unicode="&#xce;" d="M-37 1526h227l82 100l82 -100h226l-209 315h-197zM133 -51h279v1534h-279v-1534z" />
<glyph unicode="&#xcf;" d="M-47 1667q0 -59 40 -100t99 -41t100 41t41 100t-40.5 99t-100.5 40q-59 0 -99 -40t-40 -99zM133 -51h279v1534h-279v-1534zM311 1667q0 -59 40 -100t100 -41q59 0 100 41t41 100t-41 99t-100 40t-99.5 -40t-40.5 -99z" />
<glyph unicode="&#xd0;" horiz-adv-x="1736" d="M88 612h178v-663h588q209 0 385 103.5t279.5 279.5t103.5 385t-103.5 385t-279.5 278.5t-385 102.5h-588v-627h-178v-244zM547 229v383h358v244h-358v348h307q133 0 244.5 -65.5t177 -177t65.5 -244.5t-65.5 -245t-177 -177.5t-244.5 -65.5h-307z" />
<glyph unicode="&#xd1;" horiz-adv-x="1511" d="M133 -51h279v1003l712 -1003h256v1534h-280v-1004l-713 1004h-254v-1534zM426 1614l192 -103l15 56q12 55 14 55q27 0 92 -41q92 -55 150 -55q129 0 188 194l-24 60l-156 84q-8 -26 -12 -49q-12 -51 -17 -62q-27 0 -96 39h2q-86 55 -147 55q-133 0 -201 -233z" />
<glyph unicode="&#xd2;" horiz-adv-x="1781" d="M88 717q0 -219 107.5 -403.5t292 -292t403.5 -107.5t403.5 108.5t292 293t107.5 401.5t-108.5 401.5t-293 293t-401.5 108.5t-401.5 -107.5t-293 -292t-108.5 -403.5zM367 717q0 141 69.5 261t190.5 190.5t264 70.5q141 0 261 -70.5t190.5 -190.5t70.5 -261 q0 -144 -70.5 -264.5t-190.5 -190t-261 -69.5t-262 70.5t-191.5 191t-70.5 262.5zM551 1841l260 -315h213l-158 315h-315z" />
<glyph unicode="&#xd3;" horiz-adv-x="1781" d="M88 717q0 -219 107.5 -403.5t292 -292t403.5 -107.5t403.5 108.5t292 293t107.5 401.5t-108.5 401.5t-293 293t-401.5 108.5t-401.5 -107.5t-293 -292t-108.5 -403.5zM367 717q0 141 69.5 261t190.5 190.5t264 70.5q141 0 261 -70.5t190.5 -190.5t70.5 -261 q0 -144 -70.5 -264.5t-190.5 -190t-261 -69.5t-262 70.5t-191.5 191t-70.5 262.5zM754 1526h215l262 315h-320z" />
<glyph unicode="&#xd4;" horiz-adv-x="1781" d="M88 717q0 -219 107.5 -403.5t292 -292t403.5 -107.5t403.5 108.5t292 293t107.5 401.5t-108.5 401.5t-293 293t-401.5 108.5t-401.5 -107.5t-293 -292t-108.5 -403.5zM367 717q0 141 69.5 261t190.5 190.5t264 70.5q141 0 261 -70.5t190.5 -190.5t70.5 -261 q0 -144 -70.5 -264.5t-190.5 -190t-261 -69.5t-262 70.5t-191.5 191t-70.5 262.5zM582 1526h227l82 100l82 -100h225l-209 315h-196z" />
<glyph unicode="&#xd5;" horiz-adv-x="1781" d="M88 717q0 -219 107.5 -403.5t292 -292t403.5 -107.5t403.5 108.5t292 293t107.5 401.5t-108.5 401.5t-293 293t-401.5 108.5t-401.5 -107.5t-293 -292t-108.5 -403.5zM367 717q0 141 69.5 261t190.5 190.5t264 70.5q141 0 261 -70.5t190.5 -190.5t70.5 -261 q0 -144 -70.5 -264.5t-190.5 -190t-261 -69.5t-262 70.5t-191.5 191t-70.5 262.5zM561 1614l191 -103q31 111 28 111q29 0 94 -41q90 -55 150 -55q131 0 186 194l-24 60l-154 84q-30 -111 -28 -111q-23 0 -97 39h2q-86 55 -147 55q-133 0 -201 -233z" />
<glyph unicode="&#xd6;" horiz-adv-x="1781" d="M88 717q0 -219 107.5 -403.5t292 -292t403.5 -107.5t403.5 108.5t292 293t107.5 401.5t-108.5 401.5t-293 293t-401.5 108.5t-401.5 -107.5t-293 -292t-108.5 -403.5zM367 717q0 141 69.5 261t190.5 190.5t264 70.5q141 0 261 -70.5t190.5 -190.5t70.5 -261 q0 -144 -70.5 -264.5t-190.5 -190t-261 -69.5t-262 70.5t-191.5 191t-70.5 262.5zM571 1667q0 -59 40 -100t100 -41q59 0 100 41t41 100t-41 99t-100 40t-99.5 -40t-40.5 -99zM930 1667q0 -59 40 -100t99 -41t100 41t41 100t-41 99t-100 40t-99 -40t-40 -99z" />
<glyph unicode="&#xd7;" horiz-adv-x="1075" d="M133 416h817v243h-817v-243z" />
<glyph unicode="&#xd8;" horiz-adv-x="1781" d="M20 55l125 -125l209 189q229 -205 537 -205q219 0 403.5 108.5t292 293t107.5 401.5q0 258 -152 465l219 196l-125 125l-211 -190q-231 207 -534 207q-217 0 -401.5 -107.5t-293 -292t-108.5 -403.5q0 -260 148 -467zM367 717q0 141 69.5 261t190.5 190.5t264 70.5 q190 0 323 -113l-768 -688q-79 125 -79 279zM565 307l768 688q80 -128 80 -278q0 -143 -70.5 -264t-190.5 -190.5t-261 -69.5q-186 0 -326 114z" />
<glyph unicode="&#xd9;" horiz-adv-x="1476" d="M115 537q0 -252 182 -441q188 -182 440 -182q254 0 443 182q182 188 182 441v946h-281v-946q0 -94 -46 -173t-125 -125t-173 -46t-173 46t-125 124.5t-46 173.5v946h-278v-946zM397 1841l262 -315h213l-157 315h-318z" />
<glyph unicode="&#xda;" horiz-adv-x="1476" d="M115 537q0 -252 182 -441q188 -182 440 -182q254 0 443 182q182 188 182 441v946h-281v-946q0 -94 -46 -173t-125 -125t-173 -46t-173 46t-125 124.5t-46 173.5v946h-278v-946zM602 1526h215l262 315h-319z" />
<glyph unicode="&#xdb;" horiz-adv-x="1476" d="M115 537q0 -252 182 -441q188 -182 440 -182q254 0 443 182q182 188 182 441v946h-281v-946q0 -94 -46 -173t-125 -125t-173 -46t-173 46t-125 124.5t-46 173.5v946h-278v-946zM430 1526h225l82 100l84 -100h226l-209 315h-199z" />
<glyph unicode="&#xdc;" horiz-adv-x="1476" d="M115 537q0 -252 182 -441q188 -182 440 -182q254 0 443 182q182 188 182 441v946h-281v-946q0 -94 -46 -173t-125 -125t-173 -46t-173 46t-125 124.5t-46 173.5v946h-278v-946zM420 1667q0 -59 40 -100t99 -41t99 41t40 100t-40 99t-99 40t-99 -40t-40 -99zM778 1667 q0 -59 40 -100t100 -41q59 0 99 41t40 100t-40 99t-99 40t-99.5 -40t-40.5 -99z" />
<glyph unicode="&#xdd;" horiz-adv-x="1419" d="M-4 1483l573 -813v-721h281v721l573 813h-346l-368 -522l-367 522h-346zM573 1526h215l263 315h-320z" />
<glyph unicode="&#xde;" horiz-adv-x="1359" d="M133 -51h279v315h381q133 0 247.5 58.5t182 163t67.5 231.5t-68.5 230.5t-183 162.5t-245.5 59h-381v314h-279v-1534zM412 543v348h381q88 0 152.5 -49t64.5 -125t-64.5 -125t-152.5 -49h-381z" />
<glyph unicode="&#xdf;" horiz-adv-x="1423" d="M133 -229h279v1124q0 137 77 240q78 104 205 104q262 0 262 -145q0 -66 -81.5 -107t-190.5 -41h-158v-280h158q139 0 241.5 -65.5t102.5 -170.5q0 -113 -97 -175t-247 -62q-57 0 -178 26l-70 -268q152 -37 248 -37q248 0 422 123q203 152 203 393q0 150 -90 264 q-61 72 -132 115q150 100 150 285q0 225 -182 333q-145 92 -361 93q-160 0 -287.5 -86t-200.5 -229.5t-73 -309.5v-1124z" />
<glyph unicode="&#xe0;" horiz-adv-x="1468" d="M88 537q0 -166 77 -309.5t212 -228.5t299 -85q221 0 379 145v-110h280v1175h-280v-110q-156 147 -379 147q-164 0 -299 -85t-212 -228t-77 -311zM367 537q0 94 46 172.5t124.5 125t173.5 46.5q92 0 171 -47.5t126 -126t47 -170.5q0 -93 -47 -171.5t-126 -125.5t-171 -47 q-94 0 -173 46t-125 124.5t-46 173.5zM371 1483l262 -316h213l-158 316h-317z" />
<glyph unicode="&#xe1;" horiz-adv-x="1468" d="M88 537q0 -166 77 -309.5t212 -228.5t299 -85q221 0 379 145v-110h280v1175h-280v-110q-156 147 -379 147q-164 0 -299 -85t-212 -228t-77 -311zM367 537q0 94 46 172.5t124.5 125t173.5 46.5q92 0 171 -47.5t126 -126t47 -170.5q0 -93 -47 -171.5t-126 -125.5t-171 -47 q-94 0 -173 46t-125 124.5t-46 173.5zM575 1167h216l262 316h-320z" />
<glyph unicode="&#xe2;" horiz-adv-x="1468" d="M88 537q0 -166 77 -309.5t212 -228.5t299 -85q221 0 379 145v-110h280v1175h-280v-110q-156 147 -379 147q-164 0 -299 -85t-212 -228t-77 -311zM367 537q0 94 46 172.5t124.5 125t173.5 46.5q92 0 171 -47.5t126 -126t47 -170.5q0 -93 -47 -171.5t-126 -125.5t-171 -47 q-94 0 -173 46t-125 124.5t-46 173.5zM403 1167h226l82 101l84 -101h225l-211 316h-197z" />
<glyph unicode="&#xe3;" horiz-adv-x="1468" d="M88 537q0 -166 77 -309.5t212 -228.5t299 -85q221 0 379 145v-110h280v1175h-280v-110q-156 147 -379 147q-164 0 -299 -85t-212 -228t-77 -311zM367 537q0 94 46 172.5t124.5 125t173.5 46.5q92 0 171 -47.5t126 -126t47 -170.5q0 -93 -47 -171.5t-126 -125.5t-171 -47 q-94 0 -173 46t-125 124.5t-46 173.5zM381 1255l192 -102q31 111 29 111q27 0 92 -41q92 -55 150 -56q133 0 188 195l-24 59l-156 84q-8 -26 -12 -49q-12 -51 -17 -61q-27 0 -96 39h2q-86 55 -147 55q-133 0 -201 -234z" />
<glyph unicode="&#xe4;" horiz-adv-x="1468" d="M88 537q0 -166 77 -309.5t212 -228.5t299 -85q221 0 379 145v-110h280v1175h-280v-110q-156 147 -379 147q-164 0 -299 -85t-212 -228t-77 -311zM367 537q0 94 46 172.5t124.5 125t173.5 46.5q92 0 171 -47.5t126 -126t47 -170.5q0 -93 -47 -171.5t-126 -125.5t-171 -47 q-94 0 -173 46t-125 124.5t-46 173.5zM393 1309q0 -59 40 -100.5t99 -41.5t99.5 41t40.5 101q0 59 -40 99t-100 40q-59 0 -99 -40t-40 -99zM752 1309q0 -59 39.5 -100.5t99.5 -41.5q59 0 99 41t40 101q0 59 -40 99t-99 40t-99 -40t-40 -99z" />
<glyph unicode="&#xe5;" horiz-adv-x="1468" d="M88 537q0 -166 77 -309.5t212 -228.5t299 -85q221 0 379 145v-110h280v1175h-280v-110q-156 147 -379 147q-164 0 -299 -85t-212 -228t-77 -311zM367 537q0 94 46 172.5t124.5 125t173.5 46.5q92 0 171 -47.5t126 -126t47 -170.5q0 -93 -47 -171.5t-126 -125.5t-171 -47 q-94 0 -173 46t-125 124.5t-46 173.5zM465 1415q0 -98 72 -174q70 -74 174 -74q106 0 176 74q72 76 71 174q1 104 -71 176t-176 72q-102 0 -174 -72t-72 -176zM637 1415q0 31 21.5 53.5t52.5 22.5t53 -22.5t22 -53.5t-22.5 -53.5t-52.5 -22.5q-31 0 -52.5 22.5t-21.5 53.5z " />
<glyph unicode="&#xe6;" horiz-adv-x="2390" d="M88 537q0 -166 77 -309.5t212 -228.5t299 -85q223 0 379 143v-108h280v108q150 -143 371 -143q281 0 502 289l-234 149q-137 -160 -295 -159q-66 0 -114 20q-59 20 -117.5 70.5t-83.5 113.5h924q14 60 14 140q0 166 -76 309t-209 229t-297 86q-227 0 -385 -145v108h-280 v-110q-156 147 -379 147q-164 0 -299 -85t-212 -228t-77 -311zM367 537q0 94 46 172.5t124.5 125t173.5 46.5q92 0 171 -47.5t126 -126t47 -170.5q0 -93 -47 -171.5t-126 -125.5t-171 -47q-94 0 -173 46t-125 124.5t-46 173.5zM1364 678q30 78 100 129q96 74 215 74 q109 0 193 -60.5t123 -142.5h-631z" />
<glyph unicode="&#xe7;" horiz-adv-x="1331" d="M88 537q0 -150 66.5 -279t178 -215t240.5 -115l-30 -139h114q16 0 27.5 -12.5t11.5 -28.5q0 -39 -39 -39h-163l-50 -153h213q80 0 138 57q57 57 57 135q0 53 -27.5 97t-72.5 71q287 16 454 244l-12 73l-186 119q-137 -159 -297 -159q-94 0 -173 46t-125 124.5t-46 173.5 q0 94 46 172.5t124.5 125t173.5 46.5q162 0 297 -158l231 147q-104 137 -242.5 214t-285.5 77q-252 0 -441 -182q-182 -188 -182 -442z" />
<glyph unicode="&#xe8;" horiz-adv-x="1423" d="M88 537q0 -252 182 -441q188 -182 441 -182q147 0 285.5 77t242.5 214l-233 147q-135 -160 -295 -159q-109 0 -195 61t-121 143h926q14 79 14 140q0 254 -182 442q-188 182 -442 182q-252 0 -441 -182q-182 -188 -182 -442zM371 1483l262 -316h213l-158 316h-317z M395 678q38 76 101 129q98 74 215 74q113 0 194.5 -59.5t120.5 -143.5h-631z" />
<glyph unicode="&#xe9;" horiz-adv-x="1423" d="M88 537q0 -252 182 -441q188 -182 441 -182q147 0 285.5 77t242.5 214l-233 147q-135 -160 -295 -159q-109 0 -195 61t-121 143h926q14 79 14 140q0 254 -182 442q-188 182 -442 182q-252 0 -441 -182q-182 -188 -182 -442zM395 678q38 76 101 129q98 74 215 74 q113 0 194.5 -59.5t120.5 -143.5h-631zM575 1167h216l262 316h-320z" />
<glyph unicode="&#xea;" horiz-adv-x="1423" d="M88 537q0 -252 182 -441q188 -182 441 -182q147 0 285.5 77t242.5 214l-233 147q-135 -160 -295 -159q-109 0 -195 61t-121 143h926q14 79 14 140q0 254 -182 442q-188 182 -442 182q-252 0 -441 -182q-182 -188 -182 -442zM395 678q38 76 101 129q98 74 215 74 q113 0 194.5 -59.5t120.5 -143.5h-631zM403 1167h226l82 101l84 -101h225l-211 316h-197z" />
<glyph unicode="&#xeb;" horiz-adv-x="1423" d="M88 537q0 -252 182 -441q188 -182 441 -182q147 0 285.5 77t242.5 214l-233 147q-135 -160 -295 -159q-109 0 -195 61t-121 143h926q14 79 14 140q0 254 -182 442q-188 182 -442 182q-252 0 -441 -182q-182 -188 -182 -442zM393 1309q0 -59 40 -100.5t99 -41.5t99.5 41 t40.5 101q0 59 -40 99t-100 40q-59 0 -99 -40t-40 -99zM395 678q38 76 101 129q98 74 215 74q113 0 194.5 -59.5t120.5 -143.5h-631zM752 1309q0 -59 39.5 -100.5t99.5 -41.5q59 0 99 41t40 101q0 59 -40 99t-99 40t-99 -40t-40 -99z" />
<glyph unicode="&#xec;" d="M-68 1483l261 -316h215l-158 316h-318zM133 -51h279v1175h-279v-1175z" />
<glyph unicode="&#xed;" d="M133 -51h279v1175h-279v-1175zM135 1167h215l262 316h-319z" />
<glyph unicode="&#xee;" d="M-37 1167h227l82 101l82 -101h226l-209 316h-197zM133 -51h279v1175h-279v-1175z" />
<glyph unicode="&#xef;" d="M-47 1309q0 -59 40 -100.5t99 -41.5t100 41t41 101q0 59 -40.5 99t-100.5 40q-59 0 -99 -40t-40 -99zM133 -51h279v1175h-279v-1175zM311 1309q0 -59 40 -100.5t100 -41.5q59 0 100 41t41 101q0 59 -41 99t-100 40t-99.5 -40t-40.5 -99z" />
<glyph unicode="&#xf0;" horiz-adv-x="1574" d="M88 537q0 -252 182 -441q188 -182 441 -182q254 0 442 182q182 188 182 441v596h178v243h-178v107h-280v-107h-178v-243h178v-119q-156 147 -379 147q-164 0 -299 -85t-212 -228t-77 -311zM367 537q0 94 46 172.5t124.5 125t173.5 46.5q92 0 171 -47.5t126 -126 t47 -170.5q0 -93 -47 -171.5t-126 -125.5t-171 -47q-94 0 -173 46t-125 124.5t-46 173.5z" />
<glyph unicode="&#xf1;" horiz-adv-x="1280" d="M133 -51h279v696q0 96 69.5 166t167.5 70q96 0 166 -69t70 -167v-696h280v696q0 139 -62.5 257t-173 188.5t-245.5 70.5q-152 0 -272 -90v53h-279v-1175zM319 1255l191 -102q31 111 29 111q29 0 94 -41q90 -55 147 -56q133 0 189 195l-25 59l-153 84q-31 -110 -29 -110 q-33 0 -96 39q-86 55 -146 55q-133 0 -201 -234z" />
<glyph unicode="&#xf2;" horiz-adv-x="1423" d="M88 537q0 -252 182 -441q188 -182 441 -182q254 0 442 182q182 188 182 441q0 254 -182 442q-188 182 -442 182q-252 0 -441 -182q-182 -188 -182 -442zM367 537q0 94 46 172.5t124.5 125t173.5 46.5q92 0 171 -47.5t126 -126t47 -170.5q0 -93 -47 -171.5t-126 -125.5 t-171 -47q-94 0 -173 46t-125 124.5t-46 173.5zM371 1483l262 -316h213l-158 316h-317z" />
<glyph unicode="&#xf3;" horiz-adv-x="1423" d="M88 537q0 -252 182 -441q188 -182 441 -182q254 0 442 182q182 188 182 441q0 254 -182 442q-188 182 -442 182q-252 0 -441 -182q-182 -188 -182 -442zM367 537q0 94 46 172.5t124.5 125t173.5 46.5q92 0 171 -47.5t126 -126t47 -170.5q0 -93 -47 -171.5t-126 -125.5 t-171 -47q-94 0 -173 46t-125 124.5t-46 173.5zM575 1167h216l262 316h-320z" />
<glyph unicode="&#xf4;" horiz-adv-x="1423" d="M88 537q0 -252 182 -441q188 -182 441 -182q254 0 442 182q182 188 182 441q0 254 -182 442q-188 182 -442 182q-252 0 -441 -182q-182 -188 -182 -442zM367 537q0 94 46 172.5t124.5 125t173.5 46.5q92 0 171 -47.5t126 -126t47 -170.5q0 -93 -47 -171.5t-126 -125.5 t-171 -47q-94 0 -173 46t-125 124.5t-46 173.5zM403 1167h226l82 101l84 -101h225l-211 316h-197z" />
<glyph unicode="&#xf5;" horiz-adv-x="1423" d="M88 537q0 -252 182 -441q188 -182 441 -182q254 0 442 182q182 188 182 441q0 254 -182 442q-188 182 -442 182q-252 0 -441 -182q-182 -188 -182 -442zM367 537q0 94 46 172.5t124.5 125t173.5 46.5q92 0 171 -47.5t126 -126t47 -170.5q0 -93 -47 -171.5t-126 -125.5 t-171 -47q-94 0 -173 46t-125 124.5t-46 173.5zM381 1255l192 -102q31 111 29 111q27 0 92 -41q92 -55 150 -56q133 0 188 195l-24 59l-156 84q-8 -26 -12 -49q-12 -51 -17 -61q-27 0 -96 39h2q-86 55 -147 55q-133 0 -201 -234z" />
<glyph unicode="&#xf6;" horiz-adv-x="1423" d="M88 537q0 -252 182 -441q188 -182 441 -182q254 0 442 182q182 188 182 441q0 254 -182 442q-188 182 -442 182q-252 0 -441 -182q-182 -188 -182 -442zM367 537q0 94 46 172.5t124.5 125t173.5 46.5q92 0 171 -47.5t126 -126t47 -170.5q0 -93 -47 -171.5t-126 -125.5 t-171 -47q-94 0 -173 46t-125 124.5t-46 173.5zM393 1309q0 -59 40 -100.5t99 -41.5t99.5 41t40.5 101q0 59 -40 99t-100 40q-59 0 -99 -40t-40 -99zM752 1309q0 -59 39.5 -100.5t99.5 -41.5q59 0 99 41t40 101q0 59 -40 99t-99 40t-99 -40t-40 -99z" />
<glyph unicode="&#xf7;" horiz-adv-x="1081" d="M119 459l225 -92q37 94 51 94q55 0 142 -39q123 -47 182 -47q164 0 233 190l-26 64l-181 73q-37 -94 -51 -94q-37 0 -143 41q-102 45 -180 45q-164 0 -252 -235z" />
<glyph unicode="&#xf8;" horiz-adv-x="1423" d="M20 55l123 -123l158 134q176 -152 410 -152q254 0 442 182q182 188 182 441q0 188 -100 337l168 146l-123 123l-158 -135q-173 153 -411 153q-252 0 -441 -182q-182 -188 -182 -442q0 -188 100 -338zM367 537q0 94 46 172.5t124.5 125t173.5 46.5q113 0 196 -60 l-504 -436q-36 74 -36 152zM514 252l506 436q35 -79 35 -151q0 -92 -47 -171t-126 -126t-171 -47q-113 0 -197 59z" />
<glyph unicode="&#xf9;" horiz-adv-x="1280" d="M115 430q0 -137 62.5 -256t172 -189.5t244.5 -70.5q154 0 272 88v-53h281v1175h-281v-694q0 -98 -69 -166q-68 -72 -166 -71q-98 0 -166 71q-72 68 -72 166v694h-278v-694zM291 1483l260 -316h215l-158 316h-317z" />
<glyph unicode="&#xfa;" horiz-adv-x="1280" d="M115 430q0 -137 62.5 -256t172 -189.5t244.5 -70.5q154 0 272 88v-53h281v1175h-281v-694q0 -98 -69 -166q-68 -72 -166 -71q-98 0 -166 71q-72 68 -72 166v694h-278v-694zM494 1167h215l262 316h-320z" />
<glyph unicode="&#xfb;" horiz-adv-x="1280" d="M115 430q0 -137 62.5 -256t172 -189.5t244.5 -70.5q154 0 272 88v-53h281v1175h-281v-694q0 -98 -69 -166q-68 -72 -166 -71q-98 0 -166 71q-72 68 -72 166v694h-278v-694zM322 1167h227l82 101l82 -101h225l-209 316h-197z" />
<glyph unicode="&#xfc;" horiz-adv-x="1280" d="M115 430q0 -137 62.5 -256t172 -189.5t244.5 -70.5q154 0 272 88v-53h281v1175h-281v-694q0 -98 -69 -166q-68 -72 -166 -71q-98 0 -166 71q-72 68 -72 166v694h-278v-694zM311 1309q0 -59 40 -100.5t100 -41.5q59 0 100 41t41 101q0 59 -41 99t-100 40t-99.5 -40 t-40.5 -99zM670 1309q0 -59 40 -100.5t99 -41.5t100 41t41 101q0 59 -41 99t-100 40t-99 -40t-40 -99z" />
<glyph unicode="&#xfd;" horiz-adv-x="1249" d="M20 1124l453 -1124l-59 -147q-8 -18 -35 -19q-39 0 -141 39v-283q100 -35 141 -34q217 0 297 200v-2l555 1370h-303l-305 -751l-301 751h-302zM487 1167h215l263 316h-320z" />
<glyph unicode="&#xfe;" horiz-adv-x="1468" d="M133 -410h279v469q158 -145 381 -145q164 0 298 85t211.5 228.5t77.5 309.5q0 170 -77.5 313t-212 227t-297.5 84q-221 0 -381 -147v469h-279v-1893zM412 537q0 94 46 172.5t125 125t173 46.5q92 0 171 -47.5t126 -126t47 -170.5q0 -93 -47 -171.5t-126 -125.5t-171 -47 q-94 0 -173 46t-125 124.5t-46 173.5z" />
<glyph unicode="&#xff;" horiz-adv-x="1249" d="M20 1124l453 -1124l-59 -147q-8 -18 -35 -19q-39 0 -141 39v-283q100 -35 141 -34q217 0 297 200v-2l555 1370h-303l-305 -751l-301 751h-302zM307 1309q0 -59 40 -100.5t99 -41.5t99.5 41t40.5 101q0 59 -40 99t-100 40q-59 0 -99 -40t-40 -99zM666 1309 q0 -59 39.5 -100.5t99.5 -41.5q59 0 99 41t40 101q0 59 -40 99t-99 40t-99 -40t-40 -99z" />
<glyph unicode="&#x152;" horiz-adv-x="2471" d="M88 717q0 -219 107.5 -403.5t292 -292t403.5 -107.5q305 0 522 192v-157h926v280h-645v349h465v278h-465v348h645v279h-926v-158q-219 195 -522 195q-217 0 -401.5 -107.5t-293 -292t-108.5 -403.5zM367 717q0 141 69.5 261t190.5 190.5t264 70.5q141 0 261 -70.5 t190.5 -190.5t70.5 -261q0 -144 -70.5 -264.5t-190.5 -190t-261 -69.5t-262 70.5t-191.5 191t-70.5 262.5z" />
<glyph unicode="&#x153;" horiz-adv-x="2390" d="M88 537q0 -252 182 -441q188 -182 441 -182q141 0 267 60.5t218 170.5q88 -111 215 -171t268 -60q147 0 285.5 77t243.5 214l-234 147q-137 -160 -295 -159q-66 0 -114 20q-59 20 -117.5 70.5t-83.5 113.5h924q14 60 14 140q0 170 -84 313t-226.5 227t-312.5 84 q-141 0 -268 -60.5t-215 -170.5q-92 111 -218 171t-267 60q-252 0 -441 -182q-182 -188 -182 -442zM367 537q0 94 46 172.5t124.5 125t173.5 46.5q92 0 171 -47.5t126 -126t47 -170.5q0 -93 -47 -171.5t-126 -125.5t-171 -47q-94 0 -173 46t-125 124.5t-46 173.5zM1364 678 q30 78 100 129q96 74 215 74q109 0 193 -60.5t123 -142.5h-631z" />
<glyph unicode="&#x178;" horiz-adv-x="1419" d="M-4 1483l573 -813v-721h281v721l573 813h-346l-368 -522l-367 522h-346zM391 1667q0 -59 40 -100t99 -41t99.5 41t40.5 100t-40 99t-100 40q-59 0 -99 -40t-40 -99zM750 1667q0 -59 39.5 -100t99.5 -41q59 0 99 41t40 100t-40 99t-99 40t-99 -40t-40 -99z" />
<glyph unicode="&#x2c6;" horiz-adv-x="794" d="M113 -410h213q80 1 137 58t57 137q0 55 -29.5 101t-78.5 71l30 129h-174l-59 -262h117q39 0 39 -39t-39 -39h-162z" />
<glyph unicode="&#x2dc;" horiz-adv-x="1024" d="M123 1251l192 -102q31 109 29 108q27 0 92 -40q96 -53 150 -54q133 0 188 193l-24 59l-156 84q-8 -26 -12 -49q-12 -51 -17 -61q-27 0 -96 38h2q-84 55 -147 56q-133 0 -201 -232z" />
<glyph unicode="&#x2000;" horiz-adv-x="932" />
<glyph unicode="&#x2001;" horiz-adv-x="1864" />
<glyph unicode="&#x2002;" horiz-adv-x="932" />
<glyph unicode="&#x2003;" horiz-adv-x="1864" />
<glyph unicode="&#x2004;" horiz-adv-x="621" />
<glyph unicode="&#x2005;" horiz-adv-x="466" />
<glyph unicode="&#x2006;" horiz-adv-x="310" />
<glyph unicode="&#x2007;" horiz-adv-x="310" />
<glyph unicode="&#x2008;" horiz-adv-x="233" />
<glyph unicode="&#x2009;" horiz-adv-x="372" />
<glyph unicode="&#x200a;" horiz-adv-x="103" />
<glyph unicode="&#x2010;" horiz-adv-x="1081" d="M133 416h817v243h-817v-243z" />
<glyph unicode="&#x2011;" horiz-adv-x="1081" d="M133 416h817v243h-817v-243z" />
<glyph unicode="&#x2012;" horiz-adv-x="1081" d="M133 416h817v243h-817v-243z" />
<glyph unicode="&#x2013;" horiz-adv-x="903" d="M133 416h637v243h-637v-243z" />
<glyph unicode="&#x2014;" horiz-adv-x="1261" d="M133 416h995v243h-995v-243z" />
<glyph unicode="&#x2018;" horiz-adv-x="616" d="M133 881h350v352h-172q27 78 101 78v172q-150 0 -219 -94q-59 -90 -60 -207v-301z" />
<glyph unicode="&#x2019;" horiz-adv-x="616" d="M133 1133h170q-12 -35 -38.5 -57.5t-59.5 -22.5v-172q152 0 217 96l-2 -2q63 88 63 207v301h-350v-350z" />
<glyph unicode="&#x201a;" horiz-adv-x="616" d="M133 -51h170q-12 -35 -38.5 -56.5t-59.5 -21.5v-172q154 0 217 94l-2 -2q63 88 63 209v301h-350v-352z" />
<glyph unicode="&#x201c;" horiz-adv-x="1009" d="M133 881h350v352h-172q27 78 101 78v172q-150 0 -219 -94q-59 -90 -60 -207v-301zM526 881h353v352h-172q26 78 100 78v172q-150 0 -219 -94q-61 -90 -62 -207v-301z" />
<glyph unicode="&#x201d;" horiz-adv-x="1009" d="M133 1133h170q-12 -35 -38.5 -57.5t-59.5 -22.5v-172q152 0 217 96l-2 -2q63 88 63 207v301h-350v-350zM526 1133h170q-12 -35 -38.5 -57.5t-59.5 -22.5v-172q152 0 217 96l-2 -2q66 90 66 207v301h-353v-350z" />
<glyph unicode="&#x201e;" horiz-adv-x="1009" d="M133 -51h170q-12 -35 -38.5 -56.5t-59.5 -21.5v-172q154 0 217 94l-2 -2q63 88 63 209v301h-350v-352zM526 -51h170q-12 -35 -38.5 -56.5t-59.5 -21.5v-172q154 0 217 94l-2 -2q66 90 66 209v301h-353v-352z" />
<glyph unicode="&#x2022;" horiz-adv-x="1009" d="M133 537q0 -100 50 -186.5t136.5 -136.5t186.5 -50t186 50t136.5 136t50.5 187q0 100 -50.5 186t-136.5 136t-186 50q-102 0 -187.5 -50t-135.5 -135t-50 -187z" />
<glyph unicode="&#x2026;" horiz-adv-x="1548" d="M133 125q0 -74 50 -125t124 -51q76 0 126 51t50 125t-50 125t-126 51q-74 0 -124 -51t-50 -125zM598 125q0 -74 51 -125t125 -51t125 51t51 125t-51 125t-125 51t-125 -51t-51 -125zM1065 125q0 -74 50 -125t124 -51q76 0 126 51t50 125t-50 125t-126 51q-74 0 -124 -51 t-50 -125z" />
<glyph unicode="&#x202f;" horiz-adv-x="372" />
<glyph unicode="&#x2039;" horiz-adv-x="866" d="M133 522l483 -325l136 204l-328 222l328 219l-136 205l-483 -326v-199z" />
<glyph unicode="&#x203a;" horiz-adv-x="866" d="M115 401l135 -204l483 325v199l-483 326l-135 -205l325 -219z" />
<glyph unicode="&#x205f;" horiz-adv-x="466" />
<glyph unicode="&#x20ac;" horiz-adv-x="1732" d="M133 436q0 -258 174 -387q123 -88 309 -123v-155h279v155q207 37 346 152t139 309q0 229 -172 342q-106 66 -313 105v387q80 -23 125 -67t45 -155h278q0 231 -126.5 351t-321.5 157v156h-279v-156q-186 -37 -317 -154.5t-131 -301.5q0 -221 154 -338q100 -74 294 -111 v-395q-66 14 -107.5 34.5t-69 66.5t-27.5 128h-279zM449 1051q0 76 65 123q23 18 102 47v-340q-67 20 -106 45q-61 41 -61 125zM895 207v346q98 -25 129 -41q76 -43 76 -125q0 -141 -205 -180z" />
<glyph unicode="&#x2122;" horiz-adv-x="1669" d="M133 221q0 -149 69.5 -245.5t182.5 -141.5t246 -45q125 0 239.5 45t186 131t71.5 205q0 158 -100 250q100 88 100 233q0 231 -213 318h3q-10 6 -349 71q-139 29 -139 97q0 49 62 75l-3 -2q51 27 142 27q90 0 141 -27l-2 2q61 -27 61 -73v-54h279q0 233 -166 340h2 q-137 92 -315 93q-178 0 -316 -93h2q-168 -106 -167 -288q0 -162 100 -250q-100 -92 -100 -236q0 -123 52 -199.5t163 -119.5q12 -6 344 -70q141 -27 141 -94q0 -102 -219 -102q-92 0 -154 24h2q-68 25 -67 72v57h-279zM430 653q0 51 53.5 79t141.5 28q86 0 155.5 -32 t69.5 -75q0 -47 -62 -75l3 2q-70 -29 -142 -29q-70 0 -149 29q-70 31 -70 73z" />
<glyph unicode="&#xe000;" horiz-adv-x="1126" d="M0 0v1126h1126v-1126h-1126z" />
</font>
</defs>
</svg>
