<?xml version="1.0" standalone="no"?>
<!DOCTYPE svg PUBLIC "-//W3C//DTD SVG 1.1//EN" "http://www.w3.org/Graphics/SVG/1.1/DTD/svg11.dtd" >
<svg xmlns="http://www.w3.org/2000/svg">
<metadata></metadata>
<defs>
<font id="sf_florencesansbold" horiz-adv-x="487" >
<font-face units-per-em="2048" ascent="1638" descent="-410" />
<missing-glyph horiz-adv-x="892" />
<glyph horiz-adv-x="2048" />
<glyph horiz-adv-x="2048" />
<glyph unicode="&#xd;" horiz-adv-x="0" />
<glyph unicode=" "  horiz-adv-x="892" />
<glyph unicode="&#x09;" horiz-adv-x="892" />
<glyph unicode="&#xa0;" horiz-adv-x="892" />
<glyph unicode="!" horiz-adv-x="559" d="M133 125q0 -61 42 -104.5t104 -43.5q63 0 105 43t42 105q0 61 -42 104t-105 43q-61 0 -103.5 -43t-42.5 -104zM168 1454l37 -1081h149l37 1081h-223z" />
<glyph unicode="&#x22;" horiz-adv-x="989" d="M129 1526l82 -516q13 -64 68 -64q57 0 69 64l82 516h-301zM559 1526l82 -516q13 -64 68 -64q57 0 69 64l82 516h-301z" />
<glyph unicode="#" horiz-adv-x="1239" d="M133 588h191l-17 -215h187l16 215h172l-16 -215h186l16 215h240v186h-223l16 172h207v187h-190l18 215h-186l-19 -215h-172l19 215h-187l-18 -215h-240v-187h223l-16 -172h-207v-186zM526 774l17 172h172l-17 -172h-172z" />
<glyph unicode="$" horiz-adv-x="1454" d="M123 463h223q53 -154 160.5 -271.5t255 -183t315.5 -65.5q213 0 402 114v277q-195 -170 -402 -170q-166 0 -299 90q-117 76 -190 209h641l67 186h-768l-4 33v68q0 6 4 34h820l67 187h-827q74 133 190 209q131 88 299 88q207 0 389 -158l80 223q-219 158 -469 158 q-164 0 -312.5 -66.5t-257 -184.5t-161.5 -269h-153l-70 -187h182q-2 -6 -2 -16v-18v-68v-16q0 -10 2 -17h-112z" />
<glyph unicode="%" horiz-adv-x="1830" d="M125 285l131 -131l252 254l254 -254l131 131l-254 252l254 254l-131 131l-254 -254l-252 254l-131 -131l254 -254z" />
<glyph unicode="&#x26;" horiz-adv-x="1406" d="M133 -23h760v187h-760v-187zM133 623h287v-287h186v287h287v186h-287v287h-186v-287h-287v-186z" />
<glyph unicode="'" horiz-adv-x="559" d="M129 1526l82 -516q13 -64 68 -64q57 0 69 64l82 516h-301z" />
<glyph unicode="(" horiz-adv-x="702" d="M133 627q0 -254 65.5 -437.5t231.5 -390.5h154q-134 234 -183 412q-47 188 -47 416q0 229 47 413q43 168 183 414h-154q-164 -201 -231 -389q-66 -170 -66 -438z" />
<glyph unicode=")" horiz-adv-x="702" d="M119 -201h153q166 207 231.5 390.5t65.5 437.5t-66.5 440t-230.5 387h-153q143 -256 182 -414q47 -184 47 -413q0 -238 -49 -416q-41 -166 -180 -412z" />
<glyph unicode="*" horiz-adv-x="999" d="M125 858l94 -162l189 111v-219h186v219l186 -111l94 162l-190 109l190 110l-94 162l-186 -113v222h-186v-222l-189 113l-94 -162l188 -110z" />
<glyph unicode="+" horiz-adv-x="1024" d="M133 1110q0 -104 50 -191.5t137.5 -137.5t191.5 -50q102 0 190.5 52.5t139.5 139.5t51 187t-52.5 188t-139.5 140.5t-189 52.5t-189 -51t-138.5 -138.5t-51.5 -191.5zM162 -23h235l1272 1477h-235zM319 1110q0 82 56.5 138.5t136.5 56.5q82 0 139 -56q55 -57 56 -139 q-1 -78 -56 -137q-57 -55 -139 -55q-80 0 -136.5 56t-56.5 136zM938 322q0 -102 50 -189.5t138 -138.5t193 -51q104 0 190 51t137.5 138t51.5 190q0 102 -51.5 189t-138.5 139t-189 52q-104 0 -191.5 -52t-138.5 -139t-51 -189zM1124 322q0 82 56.5 138t138.5 56t137 -54 t55 -140q0 -82 -55 -137.5t-137 -55.5t-138.5 56.5t-56.5 136.5zM1763 322q0 -104 50.5 -191.5t137.5 -137.5t191 -50t191.5 51t138.5 138t51 190q0 102 -52 189t-139 139t-190 52q-102 0 -189 -51t-138.5 -138t-51.5 -191zM1950 322q0 82 55 139q59 55 137 55q82 0 139 -55 q55 -57 56 -139q-1 -79 -56 -138q-57 -55 -139 -55q-80 0 -136 56.5t-56 136.5z" />
<glyph unicode="," horiz-adv-x="559" d="M129 272l82 -516q13 -65 68 -65q57 0 69 65l82 516h-301z" />
<glyph unicode="-" horiz-adv-x="1024" d="M133 444h760v187h-760v-187z" />
<glyph unicode="." horiz-adv-x="559" d="M133 125q0 -61 42 -104.5t104 -43.5q63 0 105 43t42 105q0 61 -42 104t-105 43q-61 0 -103.5 -43t-42.5 -104z" />
<glyph unicode="/" horiz-adv-x="937" d="M82 -113l209 -75l565 1556l-207 74z" />
<glyph unicode="0" horiz-adv-x="1437" d="M88 717q0 -203 78 -380t222 -285.5t331 -108.5q184 0 328.5 108.5t223.5 286.5t79 379q0 203 -79 381t-223.5 285.5t-328.5 107.5q-186 0 -330.5 -107.5t-222.5 -285.5t-78 -381zM309 717q0 145 49.5 272t141.5 203t219 76q197 0 307 -181q100 -150 100 -370 q0 -226 -100 -371q-111 -182 -307 -182q-125 0 -218 76.5t-142.5 203.5t-49.5 273z" />
<glyph unicode="1" horiz-adv-x="1437" d="M358 1053l146 -144l241 244v-1176h222v1477h-207z" />
<glyph unicode="2" horiz-adv-x="1437" d="M160 -23h1118v224h-827q75 110 272 223q246 145 348.5 217t154.5 162t52 229q0 217 -182 344q-158 115 -377 115q-150 0 -278 -52.5t-204.5 -156.5t-76.5 -254h221q0 123 93 181.5t235 58.5q150 0 233 -51q113 -63 113 -185q0 -162 -224 -309h3l-213 -133 q-121 -78 -215 -133q-246 -193 -246 -480z" />
<glyph unicode="3" horiz-adv-x="1437" d="M143 229q90 -157 244 -223q133 -63 307 -63q164 0 299 58t215 168t80 261q0 256 -250 377q178 92 179 287q0 129 -72 218t-191.5 134t-259.5 45q-180 0 -321.5 -71.5t-188.5 -221.5l209 -76q49 145 301 146q133 0 217 -42t84 -132q0 -78 -94 -127t-207 -49h-129v-224h129 q96 0 182.5 -32.5t138.5 -93t52 -138.5q0 -125 -107.5 -195.5t-265.5 -70.5q-266 0 -358 178z" />
<glyph unicode="4" horiz-adv-x="1437" d="M123 264h788v-287h224v287h178v223h-178v967h-187l-825 -981v-209zM381 487l530 623v-623h-530z" />
<glyph unicode="5" horiz-adv-x="1437" d="M133 342q74 -192 227.5 -295.5t344.5 -103.5q242 0 415 159q178 158 178 400q0 156 -80.5 283.5t-218 201.5t-294.5 74q-170 0 -316 -84v256h731v221h-954v-731l199 -78q53 92 143 142.5t197 50.5q100 0 186 -44t136 -121t50 -171t-52 -172t-139 -122t-181 -44 q-121 0 -214.5 59.5t-140.5 173.5z" />
<glyph unicode="6" horiz-adv-x="1437" d="M104 717q0 -203 78 -380t222.5 -285.5t330.5 -108.5q160 0 297 74.5t219 203.5t82 285q0 233 -182 403q-176 158 -416 158q-233 0 -383 -149q37 143 134.5 246.5t248.5 103.5q176 0 297 -164l174 133q-192 254 -471 254q-186 0 -330.5 -107.5t-222.5 -285.5t-78 -381z M379 504q0 96 47 174t129 122t180 44q100 0 186.5 -44t137.5 -122t51 -174q0 -150 -113 -242q-111 -98 -262 -98q-88 0 -171 49t-134 128t-51 163z" />
<glyph unicode="7" horiz-adv-x="1437" d="M276 1233h744l-733 -1256h264l735 1272v205h-1010v-221z" />
<glyph unicode="8" horiz-adv-x="1437" d="M123 430q0 -150 80 -260.5t216 -168.5t300 -58q162 0 297 58t216 169t81 260q0 258 -248 377q176 90 176 287q0 129 -71.5 218t-191.5 134t-259 45q-141 0 -260 -45t-191.5 -134t-72.5 -218q0 -197 178 -287q-250 -121 -250 -377zM346 430q0 80 52.5 140.5t138.5 92 t182 31.5t182 -31.5t138.5 -92t52.5 -140.5q0 -127 -107.5 -196.5t-265.5 -69.5t-265.5 70.5t-107.5 195.5zM418 1094q0 90 84 132t217 42t217 -42t84 -132q0 -78 -94.5 -127t-206.5 -49q-113 0 -207 49t-94 127z" />
<glyph unicode="9" horiz-adv-x="1437" d="M104 928q0 -233 183 -404q176 -158 415 -157q233 0 381 147q-41 -145 -136 -247.5t-245 -102.5q-176 0 -296 166l-175 -133q192 -254 471 -254q186 0 330 108.5t222.5 286.5t78.5 379q0 203 -78.5 381t-222 285.5t-330.5 107.5q-160 0 -297 -74t-219 -203t-82 -286z M326 930q0 96 51 173t138 121t187 44q88 0 171 -48.5t134.5 -127t51.5 -162.5q0 -96 -47 -174t-129 -122t-181 -44q-143 0 -264 96q-113 100 -112 244z" />
<glyph unicode=":" horiz-adv-x="559" d="M133 125q0 -61 42 -104.5t104 -43.5q63 0 105 43t42 105q0 61 -42 104t-105 43q-61 0 -103.5 -43t-42.5 -104zM133 770q0 -61 42 -104t104 -43q63 0 105 43t42 104t-42 104.5t-105 43.5q-61 0 -103.5 -43.5t-42.5 -104.5z" />
<glyph unicode=";" horiz-adv-x="559" d="M129 272l82 -516q13 -65 68 -65q57 0 69 65l82 516h-301zM133 770q0 -61 42 -104t104 -43q63 0 105 43t42 104t-42 104.5t-105 43.5q-61 0 -103.5 -43.5t-42.5 -104.5z" />
<glyph unicode="&#x3c;" horiz-adv-x="987" d="M123 203l102 -158l629 408v170l-629 407l-102 -158l516 -335z" />
<glyph unicode="=" horiz-adv-x="1024" d="M133 444h760v187h-760v-187zM365 125q0 -61 43 -104.5t104 -43.5t104 43t43 105q0 61 -43 104t-104 43t-104 -43t-43 -104zM365 950q0 -63 43 -105t104 -42t104 42t43 105q0 62 -43 104t-104 42t-104 -42t-43 -104z" />
<glyph unicode="&#x3e;" horiz-adv-x="987" d="M133 283h760v186h-760v-186zM133 606h760v187h-760v-187z" />
<glyph unicode="?" horiz-adv-x="952" d="M133 1116h221q2 61 38 106.5t85 45.5q51 0 86 -38t35 -91q0 -88 -82 -158l-76 -63l-75 -64q-109 -109 -109 -240l4 -39l6 -92l6 -51l7 -59h145q8 57 12 112q0 4 8 84q18 133 111 201l84 57l86 56q96 86 96 256q0 92 -47 173t-126 130t-171 49q-96 0 -175 -48t-124 -133 t-45 -194zM205 125q0 -61 42 -104.5t103 -43.5q63 0 105.5 43t42.5 105q0 61 -42 104t-106 43q-61 0 -103 -43t-42 -104z" />
<glyph unicode="@" horiz-adv-x="2170" d="M125 662l170 -78l223 497l221 -497l170 78l-305 686h-172z" />
<glyph unicode="A" horiz-adv-x="1363" d="M35 -23h233l119 324h588l119 -324h235l-536 1477h-222zM467 522l213 588l215 -588h-428z" />
<glyph unicode="B" horiz-adv-x="1382" d="M133 -23h666q182 0 325 119t144 307q0 229 -219 322q184 98 184 305q0 182 -146 309q-139 115 -323 115h-631v-1477zM354 201v405h445q100 0 174 -58.5t74 -144.5q0 -94 -78 -147q-72 -55 -170 -55h-445zM354 827v406h410q100 0 173 -57.5t73 -145.5t-73 -145.5 t-173 -57.5h-410z" />
<glyph unicode="C" horiz-adv-x="1529" d="M88 717q0 -317 225 -549q231 -225 549 -225q317 0 547 227v31l-143 137q-175 -174 -404 -174q-150 0 -276.5 74.5t-201.5 201.5t-75 277t75 275.5t202 200.5t276 75q229 0 404 -172l159 151q-244 244 -563 244q-209 0 -387 -104.5t-282.5 -282.5t-104.5 -387z" />
<glyph unicode="D" horiz-adv-x="1544" d="M133 -23h559q199 0 368 100.5t269.5 270.5t100.5 369q0 309 -220 522q-215 215 -518 215h-559v-1477zM354 201v1032h338q139 0 258 -69.5t188.5 -188.5t69.5 -258q0 -141 -68.5 -260t-187 -187.5t-260.5 -68.5h-338z" />
<glyph unicode="E" horiz-adv-x="1310" d="M133 -23h1047v224h-826v405h645v221h-645v406h826v221h-1047v-1477z" />
<glyph unicode="F" horiz-adv-x="1249" d="M133 -23h221v629h645v221h-645v406h826v221h-1047v-1477z" />
<glyph unicode="G" horiz-adv-x="1626" d="M88 717q0 -317 225 -549q231 -225 549 -225q190 0 369 94q166 88 278 254l2 12v524h-671v-221h450v-241q-164 -201 -428 -201q-150 0 -276.5 74.5t-201.5 201.5t-75 277t75 275.5t202 200.5t276 75q129 0 248 -62.5t205 -175.5l182 127q-117 160 -282.5 247t-352.5 87 q-209 0 -387 -104.5t-282.5 -282.5t-104.5 -387z" />
<glyph unicode="H" horiz-adv-x="1454" d="M133 -23h221v629h746v-629h223v1477h-223v-627h-746v627h-221v-1477z" />
<glyph unicode="I" d="M133 -23h221v1477h-221v-1477z" />
<glyph unicode="J" horiz-adv-x="1128" d="M61 211q72 -121 195 -195q119 -73 249 -73h3q135 0 252 68.5t185.5 185t68.5 252.5v1005h-586v-221h365v-784q0 -121 -84 -201q-80 -84 -201 -84q-158 0 -250 151z" />
<glyph unicode="K" horiz-adv-x="1302" d="M133 -23h221v553l176 177l474 -730h264l-576 889l588 588h-311l-615 -614v614h-221v-1477z" />
<glyph unicode="L" horiz-adv-x="1069" d="M133 -23h866v224h-645v1253h-221v-1477z" />
<glyph unicode="M" horiz-adv-x="1734" d="M133 -23h221v1108l404 -1108h221l401 1104v-1104h222v1477h-322l-414 -1132l-411 1132h-322v-1477z" />
<glyph unicode="N" horiz-adv-x="1454" d="M133 -23h221v1065l756 -1065h213v1477h-223v-1063l-756 1063h-211v-1477z" />
<glyph unicode="O" horiz-adv-x="1724" d="M88 717q0 -209 104.5 -387t282.5 -282.5t387 -104.5q207 0 385 104.5t283.5 282.5t105.5 387q0 318 -227 547q-229 227 -547 227q-209 0 -387 -105.5t-282.5 -283.5t-104.5 -385zM309 717q0 150 75 275.5t202 200.5t276 75q229 0 391 -160q160 -162 160 -391 q0 -150 -74.5 -277t-200.5 -201.5t-276 -74.5t-276.5 74.5t-201.5 201.5t-75 277z" />
<glyph unicode="P" horiz-adv-x="1302" d="M133 -23h221v629h410q123 0 230.5 55.5t173 152.5t65.5 216q0 182 -146 309q-139 115 -323 115h-631v-1477zM354 827v406h410q100 0 173 -57.5t73 -145.5t-73 -145.5t-173 -57.5h-410z" />
<glyph unicode="Q" horiz-adv-x="1724" d="M88 717q0 -193 88 -358.5t239.5 -274.5t336.5 -133v-332h221v332q264 37 467 252q197 221 196 514q0 317 -227 547q-229 227 -547 227q-209 0 -387 -105.5t-282.5 -283.5t-104.5 -385zM309 717q0 150 75 275.5t202 200.5t276 75q229 0 391 -160q160 -162 160 -391 q0 -131 -58.5 -247t-159.5 -192.5t-222 -101.5v203h-221v-203q-123 25 -224.5 102.5t-160 192.5t-58.5 246z" />
<glyph unicode="R" horiz-adv-x="1374" d="M133 -23h221v629h195q178 0 248 -117l331 -512h267l-348 537q-64 92 -101 123q106 43 191 133q96 115 96 260q0 182 -146 309q-139 115 -323 115h-631v-1477zM354 827v406h410q100 0 173 -57.5t73 -145.5t-73 -145.5t-173 -57.5h-410z" />
<glyph unicode="S" horiz-adv-x="1419" d="M115 408q0 -150 84 -254.5t220 -157.5t290 -53q152 0 289 53t222 153.5t85 237.5q0 268 -263 367q-45 6 -110 22l-221 49q-39 6 -113 23q-225 49 -225 203q0 109 114 168h-2q98 49 224 49q143 0 240.5 -59.5t97.5 -180.5h221q0 145 -79 250.5t-208 159t-272 53.5 q-141 0 -270.5 -53.5t-209 -153.5t-79.5 -233q0 -279 266 -377q72 -16 219 -45h-2q90 -20 225 -45h-2q225 -49 225 -197q0 -109 -109.5 -166t-262.5 -57q-156 0 -264.5 57.5t-108.5 186.5h-221z" />
<glyph unicode="T" horiz-adv-x="1275" d="M61 1233h465v-1256h224v1256h464v221h-1153v-221z" />
<glyph unicode="U" horiz-adv-x="1419" d="M115 537q0 -158 80.5 -295.5t218 -218t295.5 -80.5q160 0 297 80.5t218 218t81 295.5v917h-224v-917q0 -102 -50 -187.5t-135 -135.5t-187 -50t-187.5 50t-135.5 135t-50 188v917h-221v-917z" />
<glyph unicode="V" horiz-adv-x="1363" d="M35 1454l536 -1477h222l536 1477h-235l-414 -1132l-412 1132h-233z" />
<glyph unicode="W" horiz-adv-x="1959" d="M35 1454l424 -1477h219l303 1051l301 -1051h217l426 1477h-231l-303 -1048l-301 1048h-220l-303 -1048l-301 1048h-231z" />
<glyph unicode="X" horiz-adv-x="1380" d="M33 -23h274l383 545l383 -545h275l-521 740l521 737h-275l-383 -543l-383 543h-274l518 -737z" />
<glyph unicode="Y" horiz-adv-x="1361" d="M23 1454l546 -774v-703h224v703l546 774h-274l-385 -543l-383 543h-274z" />
<glyph unicode="Z" horiz-adv-x="1419" d="M115 -23h1190v224h-879l879 1046v207h-1190v-221h878l-878 -1047v-209z" />
<glyph unicode="[" horiz-adv-x="737" d="M133 -201h473v221h-252v1213h252v221h-473v-1655z" />
<glyph unicode="\" horiz-adv-x="937" d="M82 1368l567 -1556l207 75l-565 1555z" />
<glyph unicode="]" horiz-adv-x="737" d="M133 20v-221h473v1655h-473v-221h250v-1213h-250z" />
<glyph unicode="^" horiz-adv-x="1036" d="M133 399q0 -193 131 -323q139 -133 326 -133q209 0 377 129l59 -95h266l-172 267q19 30 60 112h-4l81 185l-202 90l-74 -170l-219 334q121 76 174 129q86 98 86 227q0 141 -104 242v-2q-100 100 -244 100q-92 0 -171 -46t-125 -124t-46 -170q0 -88 45 -170q4 -10 24 -41 l54 -82q-147 -98 -215 -176q-106 -125 -107 -283zM354 403q0 92 76 162q43 43 145 111l269 -416q-115 -96 -254 -96q-98 0 -167 70.5t-69 168.5zM553 1153q0 47 35 82t82 35q53 0 91 -35t38 -86q0 -70 -72 -111l-86 -57l-66 102v-2q-22 35 -22 72z" />
<glyph unicode="_" horiz-adv-x="935" d="M0 -23h936v187h-936v-187z" />
<glyph unicode="`" horiz-adv-x="593" d="M133 1343q0 -47 32 -78.5t79 -31.5t78.5 31.5t31.5 78.5q0 48 -31.5 79.5t-78.5 31.5t-79 -31.5t-32 -79.5zM492 1343q0 -47 31.5 -78.5t78.5 -31.5t79 31.5t32 78.5q0 48 -32 79.5t-79 31.5t-78.5 -31.5t-31.5 -79.5z" />
<glyph unicode="a" horiz-adv-x="1411" d="M88 537q0 -158 72.5 -295.5t200.5 -218t286 -80.5q248 0 408 188v-154h223v1119h-223v-152q-164 188 -408 189q-246 0 -399 -181q-160 -172 -160 -415zM309 537q0 102 50.5 187t135.5 135t187 50t187 -50t135.5 -135t50.5 -187q0 -103 -50.5 -188t-135.5 -135t-187 -50 t-187 50t-135.5 135t-50.5 188z" />
<glyph unicode="b" horiz-adv-x="1411" d="M133 -23h221v154q164 -188 410 -188q156 0 284 81.5t201.5 218t73.5 294.5t-73.5 295t-201.5 219t-284 82q-244 0 -410 -189v510h-221v-1477zM354 537q0 102 50.5 187t135.5 135t187 50t187 -50t135.5 -135t50.5 -187q0 -103 -50.5 -188t-135.5 -135t-187 -50t-187 50 t-135.5 135t-50.5 188z" />
<glyph unicode="c" horiz-adv-x="1273" d="M88 537q0 -158 81 -295.5t218 -218t295 -80.5q139 0 263 61.5t210 173.5l-6 29l-168 108q-127 -151 -299 -151q-102 0 -187 50t-135.5 135t-50.5 188q0 102 50.5 187t135.5 135t187 50q174 0 299 -149l186 121q-92 119 -219 185.5t-266 66.5q-158 0 -295 -81t-218 -218.5 t-81 -296.5z" />
<glyph unicode="d" horiz-adv-x="1411" d="M88 537q0 -158 72.5 -295.5t200.5 -218t286 -80.5q248 0 408 188v-154h223v1477h-223v-510q-164 188 -408 189q-246 0 -399 -181q-160 -172 -160 -415zM309 537q0 102 50.5 187t135.5 135t187 50t187 -50t135.5 -135t50.5 -187q0 -103 -50.5 -188t-135.5 -135t-187 -50 t-187 50t-135.5 135t-50.5 188z" />
<glyph unicode="e" horiz-adv-x="1366" d="M88 537q0 -158 81 -295.5t218 -218t295 -80.5q139 0 266 66.5t219 185.5l-186 120q-122 -151 -297 -151h-2q-125 0 -221 73.5t-133 188.5h940q10 78 10 111q0 160 -81 297t-218 218t-297 81q-158 0 -295 -81t-218 -218.5t-81 -296.5zM328 649q33 106 123 180 q104 80 231 80q129 0 223 -71.5t133 -188.5h-710z" />
<glyph unicode="f" horiz-adv-x="714" d="M88 766h107v-766h223v766h178v223h-178v211q0 29 19.5 49.5t47.5 20.5q25 0 64 -31l102 201q-82 51 -166 51q-78 0 -144.5 -40t-106 -106.5t-39.5 -144.5v-211h-107v-223z" />
<glyph unicode="g" horiz-adv-x="1411" d="M88 537q0 -158 75 -295.5t203 -218t281 -80.5q238 0 404 182q-18 -121 -101 -209q-111 -111 -268 -111q-172 0 -303 154l-170 -141q195 -233 473 -234q160 0 297 81t218 218t81 295v918h-223v-154q-66 72 -154 125q-127 66 -254 66q-156 0 -283.5 -81t-201.5 -217.5 t-74 -297.5zM309 537q0 102 50.5 187t135.5 135t187 50t187 -50t135.5 -135t50.5 -187q0 -103 -50.5 -188t-135.5 -135t-187 -50t-187 50t-135.5 135t-50.5 188z" />
<glyph unicode="h" horiz-adv-x="1222" d="M133 -23h221v668q0 111 77 187.5t190 76.5q111 0 187.5 -76.5t76.5 -187.5v-668h223v668q0 197 -127 336q-129 152 -326 152q-178 0 -301 -125v446h-221v-1477z" />
<glyph unicode="i" d="M96 1343q0 -61 43 -104t105 -43q61 0 104 43t43 104q0 62 -43 105t-104 43t-104.5 -43t-43.5 -105zM133 -23h221v1119h-221v-1119z" />
<glyph unicode="j" d="M-102 -365q82 -51 165 -51q78 0 144.5 40t106.5 106.5t40 144.5v1221h-221v-1221q0 -29 -20.5 -49.5t-49.5 -20.5q-20 0 -61 31zM96 1343q0 -61 43 -104t105 -43q61 0 104 43t43 104q0 62 -43 105t-104 43t-104.5 -43t-43.5 -105z" />
<glyph unicode="k" horiz-adv-x="1159" d="M133 -23h221v338l172 172l334 -510h264l-434 674l447 445h-312l-471 -471v829h-221v-1477z" />
<glyph unicode="l" d="M133 -23h221v1477h-221v-1477z" />
<glyph unicode="m" horiz-adv-x="1830" d="M133 -23h221v668q0 106 66.5 185t163.5 79q98 0 163.5 -76.5t65.5 -187.5v-668h223v668q0 111 65.5 187.5t164.5 76.5q96 0 162.5 -78.5t66.5 -185.5v-668h221v668q0 133 -59.5 244.5t-162.5 177.5t-228 66q-217 0 -334 -183q-98 182 -295 183q-172 0 -283 -119v82h-221 v-1119z" />
<glyph unicode="n" horiz-adv-x="1222" d="M133 -23h221v668q0 111 77 187.5t190 76.5q111 0 187.5 -76.5t76.5 -187.5v-668h223v668q0 197 -127 336q-129 152 -326 152q-178 0 -301 -125v88h-221v-1119z" />
<glyph unicode="o" horiz-adv-x="1366" d="M88 537q0 -158 81 -295.5t218 -218t295 -80.5q160 0 297 80.5t218 218t81 295.5q0 159 -81 296.5t-218 218.5t-297 81q-158 0 -295 -81t-218 -218.5t-81 -296.5zM309 537q0 102 50.5 187t135.5 135t187 50t187 -50t135.5 -135t50.5 -187q0 -103 -50.5 -188t-135.5 -135 t-187 -50t-187 50t-135.5 135t-50.5 188z" />
<glyph unicode="p" horiz-adv-x="1411" d="M133 -381h221v512q164 -188 410 -188q156 0 284 81.5t201.5 218t73.5 294.5t-73.5 295t-201.5 219t-284 82q-244 0 -410 -189v152h-221v-1477zM354 537q0 102 50.5 187t135.5 135t187 50t187 -50t135.5 -135t50.5 -187q0 -103 -50.5 -188t-135.5 -135t-187 -50t-187 50 t-135.5 135t-50.5 188z" />
<glyph unicode="q" horiz-adv-x="1411" d="M88 537q0 -158 72.5 -295.5t200.5 -218t286 -80.5q248 0 408 188v-512h223v1477h-223v-152q-164 188 -408 189q-246 0 -399 -181q-160 -172 -160 -415zM309 537q0 102 50.5 187t135.5 135t187 50t187 -50t135.5 -135t50.5 -187q0 -103 -50.5 -188t-135.5 -135t-187 -50 t-187 50t-135.5 135t-50.5 188z" />
<glyph unicode="r" horiz-adv-x="815" d="M133 -23h221v668q0 111 77 187.5t190 76.5q41 0 96 -16l28 18v213q-51 9 -90 9q-178 0 -301 -125v88h-221v-1119z" />
<glyph unicode="s" horiz-adv-x="1167" d="M115 317q0 -122 66.5 -206t174 -126t228.5 -42q119 0 226.5 42t175 121.5t67.5 188.5q0 213 -195 291h2q-16 10 -342 71q-164 35 -164 123q0 61 69 95t161 34q86 0 153 -28q76 -33 76 -123h223q0 119 -63.5 204t-168 128t-220.5 43q-117 0 -220.5 -42t-167 -123 t-63.5 -188q0 -215 195 -293q18 -8 100 -22l240 -49q164 -35 163 -121q0 -131 -247 -131q-92 0 -162 26q-86 35 -86 127h-221z" />
<glyph unicode="t" horiz-adv-x="792" d="M70 874h215v-874h223v874h215v222h-215v252h-223v-252h-215v-222z" />
<glyph unicode="u" horiz-adv-x="1222" d="M115 430q0 -129 58 -241.5t161.5 -179t230.5 -66.5q176 0 301 123v-89h224v1119h-224v-666q0 -113 -75 -188q-82 -78 -189 -78q-106 0 -188 78q-78 82 -78 188v666h-221v-666z" />
<glyph unicode="v" horiz-adv-x="1191" d="M35 1096l448 -1119h224l452 1119h-239l-326 -801l-322 801h-237z" />
<glyph unicode="w" horiz-adv-x="1714" d="M35 1096l364 -1119h217l242 740l240 -740h217l364 1119h-231l-240 -740l-241 740h-217l-242 -740l-242 740h-231z" />
<glyph unicode="x" horiz-adv-x="1126" d="M33 -23h274l256 365l256 -365h277l-396 560l396 559h-277l-256 -363l-256 363h-274l391 -559z" />
<glyph unicode="y" horiz-adv-x="1191" d="M35 1096l440 -1096l-63 -158q-12 -37 -62 -37q-27 0 -112 29v-225q68 -25 112 -25q197 0 271 183v-3l538 1332h-239l-326 -801l-322 801h-237z" />
<glyph unicode="z" horiz-adv-x="1239" d="M115 -23h1009v224h-686l686 688v207h-1009v-222h686l-686 -688v-209z" />
<glyph unicode="{" horiz-adv-x="864" d="M133 516h74q45 0 74.5 -22.5t29.5 -63.5v-305q0 -121 95 -221q92 -104 215 -105h110v221h-94q-39 0 -70.5 33t-31.5 72v287q0 76 -52 151q-29 41 -61 64q33 20 61 65q51 76 52 150v286q0 41 31.5 73t70.5 32h94v221h-110q-125 0 -215 -102q-94 -100 -95 -224v-305 q0 -41 -29.5 -63.5t-74.5 -22.5h-74v-221z" />
<glyph unicode="|" d="M133 537q0 -258 128 -477.5t347 -347.5t477 -128q141 0 291 47l-43 160q-123 -39 -248 -39q-213 0 -393 105.5t-285.5 286t-105.5 393.5t105.5 393t285.5 286.5t393 106.5t393.5 -105.5t286 -285.5t105.5 -395q0 -98 -38 -188.5t-104.5 -146t-150.5 -55.5q-51 0 -86 44.5 t-35 101.5v6q0 10 2 14l55 650h-176l-10 -109q-107 135 -291 135q-123 0 -229.5 -69.5t-170 -183t-63.5 -238.5q0 -166 107 -291q115 -121 281 -121q193 0 321 139q14 -98 88 -173t195 -75q133 0 241.5 81t171 211t62.5 268q0 258 -129 477t-349.5 348t-476.5 129 q-387 0 -673 -281q-279 -279 -279 -673zM752 512q0 80 41 148.5t110.5 109.5t149.5 41q106 0 176.5 -69.5t70.5 -178.5q0 -123 -90 -213v2q-88 -88 -211 -88q-109 0 -176 72q-72 68 -71 176z" />
<glyph unicode="}" horiz-adv-x="864" d="M133 20v-221h111q76 0 147.5 47.5t115.5 123t44 155.5v305q0 41 29.5 63.5t74.5 22.5h76v221h-76q-45 0 -74.5 22.5t-29.5 63.5v305q0 80 -44 156t-116 123t-147 47h-111v-221h92q41 0 73 -32t32 -73v-286q0 -72 49 -150q29 -45 61 -65q-33 -23 -61 -64q-49 -82 -49 -151 v-287q0 -39 -32 -72t-73 -33h-92z" />
<glyph unicode="~" horiz-adv-x="1032" d="M113 1454l467 -661h-369v-187h448v-137h-448v-186h448v-306h222v306h448v186h-448v137h448v187h-368l466 661h-274l-383 -543l-383 543h-274z" />
<glyph unicode="&#xa1;" horiz-adv-x="559" d="M133 1128q0 -61 42 -104t104 -43q63 0 105 43t42 104q0 62 -42 105t-105 43q-61 0 -103.5 -43t-42.5 -105zM168 -201h223l-37 1082h-149z" />
<glyph unicode="&#xa2;" horiz-adv-x="1337" d="M78 -362q84 -53 164 -54q78 0 148.5 39t118.5 104.5t60 143.5l103 735h180l31 221h-178l51 369q4 31 28.5 52.5t53.5 21.5q23 0 57 -29l129 199q-82 51 -162 51q-121 0 -215 -84t-112 -203l-56 -377h-178l-31 -221h181l-103 -729q-4 -29 -28.5 -50.5t-53.5 -21.5 q-14 0 -57 29z" />
<glyph unicode="&#xa3;" horiz-adv-x="1343" d="M123 463h223q53 -154 160.5 -271.5t255 -183t315.5 -65.5q213 0 402 114v277q-195 -170 -402 -170q-166 0 -299 90q-117 76 -190 209h641l67 186h-768l-4 33v68q0 6 4 34h820l67 187h-827q74 133 190 209q131 88 299 88q207 0 389 -158l80 223q-219 158 -469 158 q-164 0 -312.5 -66.5t-257 -184.5t-161.5 -269h-153l-70 -187h182q-2 -6 -2 -16v-18v-68v-16q0 -10 2 -17h-112z" />
<glyph unicode="&#xa4;" horiz-adv-x="1675" d="M133 537q0 -147 63.5 -271.5t174 -206.5t245.5 -106v-191h222v191q223 37 362 225l-6 29l-168 108q-79 -98 -188 -133v711q106 -37 190 -133l182 121q-156 203 -372 241v189h-222v-189q-135 -27 -245.5 -108.5t-174 -205.5t-63.5 -271zM354 537q0 139 82 233 q68 86 180 123v-711q-112 33 -180 123q-82 94 -82 232z" />
<glyph unicode="&#xa5;" horiz-adv-x="1540" d="M88 606h178v-629h940v224h-717v405h359v221h-359v158q0 78 38 142.5t102.5 102.5t142.5 38q154 0 252 -150l197 105q-72 123 -193 195.5t-256 72.5q-133 0 -249.5 -69.5t-186.5 -186.5t-70 -250v-158h-178v-221z" />
<glyph unicode="&#xa6;" d="M133 -201h221v1655h-221v-1655z" />
<glyph unicode="&#xa7;" horiz-adv-x="1204" d="M133 565q0 -240 170 -415q172 -172 416 -173q158 0 292 80t214 215.5t80 292.5q-1 246 -175 414q-172 172 -411 172q-158 0 -292 -80t-214 -214t-80 -292zM274 565q0 184 129 314l15 12l14 14v-684q-17 13 -29 29q-129 129 -129 315zM483 184h82v314h86q80 -1 115 -54 l170 -260h14q-100 -63 -231 -63q-135 0 -236 63zM485 944q103 66 234 66q121 0 222 -60.5t161.5 -162t60.5 -222.5q0 -176 -121 -303l-133 207v-2q-23 33 -43 55q61 27 99.5 81t38.5 120q0 96 -76 158q-70 63 -170 63h-273zM565 631v180h193q47 0 79.5 -23.5t32.5 -64.5 t-33.5 -66.5t-78.5 -25.5h-193z" />
<glyph unicode="&#xa8;" horiz-adv-x="845" d="M113 1196h159l97 117l96 -117h160l-172 258h-168z" />
<glyph unicode="&#xa9;" horiz-adv-x="1437" d="M133 -201h221v742h-221v-742zM133 713h221v741h-221v-741z" />
<glyph unicode="&#xaa;" horiz-adv-x="1167" d="M133 1030q0 -121 55.5 -224.5t152.5 -164.5t216 -61q184 0 301 129v-103h178v848h-178v-102q-119 131 -301 131q-119 0 -216 -61.5t-152.5 -165t-55.5 -226.5zM309 1030q0 76 37 138.5t99.5 99.5t138.5 37q74 0 136 -38t100 -101.5t38 -135.5q0 -76 -37 -138.5t-99.5 -99 t-137.5 -36.5q-74 0 -136.5 37.5t-100.5 101t-38 135.5z" />
<glyph unicode="&#xab;" horiz-adv-x="1507" d="M133 342l555 -373l105 156l-447 301l447 301l-105 156l-555 -373v-168zM723 342l557 -373l102 156l-444 301l444 301l-102 156l-557 -373v-168z" />
<glyph unicode="&#xac;" horiz-adv-x="1024" d="M133 453l629 -408l102 158l-518 334l518 335l-102 158l-629 -407v-170z" />
<glyph unicode="&#xad;" horiz-adv-x="1024" d="M133 444h760v187h-760v-187z" />
<glyph unicode="&#xae;" horiz-adv-x="1437" d="M133 1030q0 -186 146 -307q135 -115 301 -117v-987h223v1614h172v-1614h221v1614h215v221h-809q-184 0 -323 -115q-145 -127 -146 -309z" />
<glyph unicode="&#xaf;" horiz-adv-x="845" d="M106 1454l216 -258h153l-129 258h-240z" />
<glyph unicode="&#xb0;" horiz-adv-x="702" d="M133 336h277v-717h223v717h276v223h-276v315h276v222h-276v358h-223v-358h-277v-222h277v-315h-277v-223z" />
<glyph unicode="&#xb1;" horiz-adv-x="1024" d="M133 444h287v-286h186v286h287v187h-287v287h-186v-287h-287v-187z" />
<glyph unicode="&#xb2;" horiz-adv-x="845" d="M133 694h580v133h-404q39 50 121 93l125 75q45 27 61 43q96 80 97 195q0 111 -95 180q-84 59 -196 60q-121 0 -205 -63.5t-84 -188.5h131q0 70 49 96q51 23 105 22q74 0 118 -26.5t44 -79.5q0 -76 -107 -146h2l-213 -133q-129 -100 -129 -260z" />
<glyph unicode="&#xb3;" horiz-adv-x="856" d="M125 836q90 -158 291 -158q117 0 207 59q100 74 100 195q0 125 -113 188q78 47 78 144q0 98 -80 153.5t-192 55.5q-213 0 -269 -162l123 -45q29 74 146 73q139 0 139 -75q0 -31 -44 -54.5t-95 -23.5h-76v-133h76q76 0 126 -32t50 -89q0 -59 -49 -91t-127 -32 q-125 0 -176 94z" />
<glyph unicode="&#xb4;" horiz-adv-x="593" d="M133 1286h232v-627h170v627h153v-627h168v420l154 -420h149l152 418v-418h170v795h-211l-187 -512l-186 512h-764v-168z" />
<glyph unicode="&#xb6;" horiz-adv-x="1544" d="M133 1237q0 -92 64 -156q63 -63 153 -63q92 0 156 63q63 63 63 156q0 91 -63 154t-156 63q-92 0 -153 -61q-63 -63 -64 -156zM248 1237q0 43 29.5 72.5t72.5 29.5t74 -29.5t31 -72.5t-31 -73.5t-74 -30.5t-72.5 30.5t-29.5 73.5z" />
<glyph unicode="&#xb7;" horiz-adv-x="559" d="M133 537q0 -61 42 -103.5t104 -42.5q63 0 105 42t42 104q0 63 -42 105t-105 42q-61 0 -103.5 -42t-42.5 -105z" />
<glyph unicode="&#xb8;" horiz-adv-x="593" d="M113 1454l172 -258h168l172 258h-160l-96 -115l-97 115h-159z" />
<glyph unicode="&#xb9;" horiz-adv-x="587" d="M125 1243l88 -88l109 113v-574h133v760h-119z" />
<glyph unicode="&#xba;" horiz-adv-x="1167" d="M133 1030q0 -125 60.5 -227.5t163 -162.5t227.5 -60q121 0 225 61t165.5 164.5t61.5 224.5q0 119 -62.5 223.5t-167 167t-222.5 62.5q-121 0 -224.5 -61.5t-165 -166t-61.5 -225.5zM309 1030q0 76 37 138.5t99.5 99.5t138.5 37q74 0 136 -38t100 -101.5t38 -135.5 q0 -76 -37 -138.5t-99.5 -99t-137.5 -36.5q-74 0 -137.5 36.5t-100.5 100t-37 137.5z" />
<glyph unicode="&#xbb;" horiz-adv-x="1507" d="M123 125l104 -156l555 373v168l-555 373l-104 -156l446 -301zM715 125l104 -156l555 373v168l-555 373l-104 -156l446 -301z" />
<glyph unicode="&#xbc;" horiz-adv-x="1024" d="M133 659h760v115h-760v-115zM264 92h314v-115h114v115h72v115h-72v387h-94l-334 -401v-101zM371 1280l78 -72l83 84v-454h115v616h-100zM408 207l170 201v-201h-170z" />
<glyph unicode="&#xbd;" horiz-adv-x="1024" d="M133 659h760v115h-760v-115zM279 -23h471v115h-316q20 25 88 68q96 55 140.5 84.5t66 68.5t21.5 99q0 88 -70 142t-166 54q-100 0 -167.5 -51t-67.5 -160h114q0 55 31 76t86 21q125 0 125 -82q0 -59 -84 -113l-172 -106q-100 -82 -100 -216zM371 1280l78 -72l83 84v-454 h115v616h-100z" />
<glyph unicode="&#xbe;" horiz-adv-x="1024" d="M133 659h760v115h-760v-115zM264 92h314v-115h114v115h72v115h-72v387h-94l-334 -401v-101zM264 956q72 -133 240 -133q102 0 176 56.5t74 152.5q0 100 -88 150q59 41 59 114q0 90 -74 136q-66 37 -147 36q-170 0 -221 -137l108 -39q23 61 113 62q106 0 106 -58 q0 -20 -32 -41q-45 -16 -74 -16h-66v-115h66q18 0 47 -4q88 -23 88 -88q0 -94 -135 -94q-94 0 -137 78zM408 207l170 201v-201h-170z" />
<glyph unicode="&#xbf;" horiz-adv-x="952" d="M133 117q0 -96 45 -178t124 -129.5t175 -47.5q92 0 171 49.5t126 131.5t47 174l-22 20h-201q-2 -61 -37 -106t-84 -45q-53 0 -88 37.5t-35 93.5q0 88 82 157l78 64l76 61q106 106 106 240l-2 41l-8 90l-4 53l-6 58h-148q-8 -78 -10 -113l-10 -84q-18 -133 -111 -201 l-84 -55l-86 -57q-94 -86 -94 -254zM455 1128q0 -61 43 -104t104 -43t104.5 43t43.5 104q0 62 -43 105t-105 43q-61 0 -104 -43t-43 -105z" />
<glyph unicode="&#xc0;" horiz-adv-x="1363" d="M35 -23h233l119 324h588l119 -324h235l-536 1477h-222zM401 1812l215 -258h152l-129 258h-238zM467 522l213 588l215 -588h-428z" />
<glyph unicode="&#xc1;" horiz-adv-x="1363" d="M35 -23h233l119 324h588l119 -324h235l-536 1477h-222zM467 522l213 588l215 -588h-428zM592 1554h153l216 258h-240z" />
<glyph unicode="&#xc2;" horiz-adv-x="1363" d="M35 -23h233l119 324h588l119 -324h235l-536 1477h-222zM424 1554h160l96 117l98 -117h160l-172 258h-170zM467 522l213 588l215 -588h-428z" />
<glyph unicode="&#xc3;" horiz-adv-x="1363" d="M35 -23h233l119 324h588l119 -324h235l-536 1477h-222zM383 1628l141 -74q29 96 47 97q45 0 109 -45q90 -51 133 -52q111 0 162 175l-10 26l-125 66q-25 -97 -45 -97q-39 0 -113 43q-82 51 -131 52q-109 0 -168 -191zM467 522l213 588l215 -588h-428z" />
<glyph unicode="&#xc4;" horiz-adv-x="1363" d="M35 -23h233l119 324h588l119 -324h235l-536 1477h-222zM393 1667q0 -47 32 -80t79 -33t78.5 33t31.5 80t-31.5 79t-78.5 32t-79 -32t-32 -79zM467 522l213 588l215 -588h-428zM752 1667q0 -47 31.5 -80t78.5 -33t79 33t32 80t-32 79t-79 32t-78.5 -32t-31.5 -79z" />
<glyph unicode="&#xc5;" horiz-adv-x="1363" d="M35 -23h233l119 324h588l119 -324h235l-512 1409q82 64 82 173q0 88 -64.5 153.5t-154.5 65.5q-82 0 -154 -66q-63 -63 -63 -153q0 -113 82 -175zM467 522l213 588l215 -588h-428zM578 1559q0 43 29.5 73.5t72.5 30.5t73.5 -30.5t30.5 -73.5t-30.5 -74t-73.5 -31 t-72.5 31t-29.5 74z" />
<glyph unicode="&#xc6;" horiz-adv-x="2084" d="M35 -23h233l119 324h588l119 -324h860v224h-645v405h465v221h-465v406h645v221h-869v-807l-292 807h-222zM467 522l213 588l215 -588h-428z" />
<glyph unicode="&#xc7;" horiz-adv-x="1529" d="M88 717q0 -197 90 -364t242.5 -273.5t335.5 -130.5l-29 -131h82q29 0 48.5 -20.5t19.5 -49.5t-19.5 -48t-48.5 -19h-141l-31 -97h172q68 0 116 48.5t48 115.5q0 53 -31 96t-80 62l8 37q315 6 539 227v31l-143 137q-175 -174 -404 -174q-150 0 -276.5 74.5t-201.5 201.5 t-75 277t75 275.5t202 200.5t276 75q229 0 404 -172l159 151q-244 244 -563 244q-209 0 -387 -104.5t-282.5 -282.5t-104.5 -387z" />
<glyph unicode="&#xc8;" horiz-adv-x="1310" d="M133 -23h1047v224h-826v405h645v221h-645v406h826v221h-1047v-1477zM377 1812l215 -258h151l-129 258h-237z" />
<glyph unicode="&#xc9;" horiz-adv-x="1310" d="M133 -23h1047v224h-826v405h645v221h-645v406h826v221h-1047v-1477zM565 1554h156l215 258h-242z" />
<glyph unicode="&#xca;" horiz-adv-x="1310" d="M133 -23h1047v224h-826v405h645v221h-645v406h826v221h-1047v-1477zM399 1554h160l96 117l97 -117h159l-172 258h-168z" />
<glyph unicode="&#xcb;" horiz-adv-x="1310" d="M133 -23h1047v224h-826v405h645v221h-645v406h826v221h-1047v-1477zM365 1667q0 -47 32.5 -80t79.5 -33t79 33t32 80t-32 79t-79 32t-79.5 -32t-32.5 -79zM723 1667q0 -47 32.5 -80t80.5 -33q47 0 78.5 33t31.5 80t-31.5 79t-78.5 32t-80 -32t-33 -79z" />
<glyph unicode="&#xcc;" d="M-37 1812l215 -258h154l-129 258h-240zM133 -23h221v1477h-221v-1477z" />
<glyph unicode="&#xcd;" d="M133 -23h221v1477h-221v-1477zM154 1554h153l215 258h-239z" />
<glyph unicode="&#xce;" d="M-12 1554h159l97 117l96 -117h160l-172 258h-168zM133 -23h221v1477h-221v-1477z" />
<glyph unicode="&#xcf;" d="M-47 1667q0 -47 31.5 -80t78.5 -33t80 33t33 80t-32.5 79t-80.5 32q-47 0 -78.5 -32t-31.5 -79zM133 -23h221v1477h-221v-1477zM311 1667q0 -47 32 -80t79 -33t80 33t33 80t-33 79t-80 32t-79 -32t-32 -79z" />
<glyph unicode="&#xd0;" horiz-adv-x="1679" d="M88 641h178v-664h559q199 0 369 100.5t270.5 270.5t100.5 369q0 201 -99.5 369.5t-269.5 268t-371 99.5h-559v-627h-178v-186zM489 201v440h359v186h-359v406h336q142 0 260.5 -68.5t187 -187.5t68.5 -260t-68.5 -260t-187 -187.5t-260.5 -68.5h-336z" />
<glyph unicode="&#xd1;" horiz-adv-x="1454" d="M133 -23h221v1065l756 -1065h213v1477h-223v-1063l-756 1063h-211v-1477zM430 1628l141 -74q29 96 47 97q39 0 109 -45q90 -51 133 -52q111 0 162 175l-12 26l-123 66q-29 -97 -47 -97q-37 0 -111 43q-82 51 -131 52q-113 0 -168 -191z" />
<glyph unicode="&#xd2;" horiz-adv-x="1724" d="M88 717q0 -209 104.5 -387t282.5 -282.5t387 -104.5q207 0 385 104.5t283.5 282.5t105.5 387q0 318 -227 547q-229 227 -547 227q-209 0 -387 -105.5t-282.5 -283.5t-104.5 -385zM309 717q0 150 75 275.5t202 200.5t276 75q229 0 391 -160q160 -162 160 -391 q0 -150 -74.5 -277t-200.5 -201.5t-276 -74.5t-276.5 74.5t-201.5 201.5t-75 277zM582 1812l215 -258h153l-129 258h-239z" />
<glyph unicode="&#xd3;" horiz-adv-x="1724" d="M88 717q0 -209 104.5 -387t282.5 -282.5t387 -104.5q207 0 385 104.5t283.5 282.5t105.5 387q0 318 -227 547q-229 227 -547 227q-209 0 -387 -105.5t-282.5 -283.5t-104.5 -385zM309 717q0 150 75 275.5t202 200.5t276 75q229 0 391 -160q160 -162 160 -391 q0 -150 -74.5 -277t-200.5 -201.5t-276 -74.5t-276.5 74.5t-201.5 201.5t-75 277zM772 1554h154l215 258h-240z" />
<glyph unicode="&#xd4;" horiz-adv-x="1724" d="M88 717q0 -209 104.5 -387t282.5 -282.5t387 -104.5q207 0 385 104.5t283.5 282.5t105.5 387q0 318 -227 547q-229 227 -547 227q-209 0 -387 -105.5t-282.5 -283.5t-104.5 -385zM309 717q0 150 75 275.5t202 200.5t276 75q229 0 391 -160q160 -162 160 -391 q0 -150 -74.5 -277t-200.5 -201.5t-276 -74.5t-276.5 74.5t-201.5 201.5t-75 277zM606 1554h160l96 117l96 -117h160l-172 258h-168z" />
<glyph unicode="&#xd5;" horiz-adv-x="1724" d="M88 717q0 -209 104.5 -387t282.5 -282.5t387 -104.5q207 0 385 104.5t283.5 282.5t105.5 387q0 318 -227 547q-229 227 -547 227q-209 0 -387 -105.5t-282.5 -283.5t-104.5 -385zM309 717q0 150 75 275.5t202 200.5t276 75q229 0 391 -160q160 -162 160 -391 q0 -150 -74.5 -277t-200.5 -201.5t-276 -74.5t-276.5 74.5t-201.5 201.5t-75 277zM565 1628l142 -74q25 96 45 97q41 0 110 -45q90 -51 133 -52q111 0 160 175l-10 26l-123 66q-29 -97 -47 -97q-41 0 -111 43q-82 51 -131 52q-113 0 -168 -191z" />
<glyph unicode="&#xd6;" horiz-adv-x="1724" d="M88 717q0 -209 104.5 -387t282.5 -282.5t387 -104.5q207 0 385 104.5t283.5 282.5t105.5 387q0 318 -227 547q-229 227 -547 227q-209 0 -387 -105.5t-282.5 -283.5t-104.5 -385zM309 717q0 150 75 275.5t202 200.5t276 75q229 0 391 -160q160 -162 160 -391 q0 -150 -74.5 -277t-200.5 -201.5t-276 -74.5t-276.5 74.5t-201.5 201.5t-75 277zM571 1667q0 -47 32 -80t79 -33t80 33t33 80t-33 79t-80 32t-79 -32t-32 -79zM930 1667q0 -47 31.5 -80t78.5 -33t80 33t33 80t-33 79t-80 32t-78.5 -32t-31.5 -79z" />
<glyph unicode="&#xd7;" horiz-adv-x="1017" d="M133 444h760v187h-760v-187z" />
<glyph unicode="&#xd8;" horiz-adv-x="1724" d="M35 55l84 -84l209 189q223 -217 534 -217q207 0 385 104.5t283.5 282.5t105.5 387q0 264 -161 469l215 192l-84 84l-209 -188q-224 217 -535 217q-209 0 -387 -105.5t-282.5 -283.5t-104.5 -385q0 -264 160 -471zM309 717q0 150 75 275.5t202 200.5t276 75 q215 0 369 -142l-819 -733q-103 146 -103 324zM492 305l819 733q102 -139 102 -321q0 -150 -74.5 -277t-200.5 -201.5t-276 -74.5q-217 0 -370 141z" />
<glyph unicode="&#xd9;" horiz-adv-x="1419" d="M115 537q0 -158 80.5 -295.5t218 -218t295.5 -80.5q160 0 297 80.5t218 218t81 295.5v917h-224v-917q0 -102 -50 -187.5t-135 -135.5t-187 -50t-187.5 50t-135.5 135t-50 188v917h-221v-917zM430 1812l215 -258h152l-129 258h-238z" />
<glyph unicode="&#xda;" horiz-adv-x="1419" d="M115 537q0 -158 80.5 -295.5t218 -218t295.5 -80.5q160 0 297 80.5t218 218t81 295.5v917h-224v-917q0 -102 -50 -187.5t-135 -135.5t-187 -50t-187.5 50t-135.5 135t-50 188v917h-221v-917zM621 1554h153l215 258h-239z" />
<glyph unicode="&#xdb;" horiz-adv-x="1419" d="M115 537q0 -158 80.5 -295.5t218 -218t295.5 -80.5q160 0 297 80.5t218 218t81 295.5v917h-224v-917q0 -102 -50 -187.5t-135 -135.5t-187 -50t-187.5 50t-135.5 135t-50 188v917h-221v-917zM453 1554h159l97 117l98 -117h160l-172 258h-170z" />
<glyph unicode="&#xdc;" horiz-adv-x="1419" d="M115 537q0 -158 80.5 -295.5t218 -218t295.5 -80.5q160 0 297 80.5t218 218t81 295.5v917h-224v-917q0 -102 -50 -187.5t-135 -135.5t-187 -50t-187.5 50t-135.5 135t-50 188v917h-221v-917zM420 1667q0 -47 31.5 -80t78.5 -33t79 33t32 80t-31.5 79t-79.5 32 q-47 0 -78.5 -32t-31.5 -79zM778 1667q0 -47 32 -80t79 -33t78.5 33t31.5 80t-31.5 79t-78.5 32t-79 -32t-32 -79z" />
<glyph unicode="&#xdd;" horiz-adv-x="1361" d="M23 1454l546 -774v-703h224v703l546 774h-274l-385 -543l-383 543h-274zM592 1554h153l216 258h-240z" />
<glyph unicode="&#xde;" horiz-adv-x="1302" d="M133 -23h221v316h410q123 0 230.5 55t173 152.5t65.5 216.5t-65.5 216t-173 152.5t-230.5 55.5h-410v313h-221v-1477zM354 514v406h410q100 0 173 -57.5t73 -145.5t-73 -145.5t-173 -57.5h-410z" />
<glyph unicode="&#xdf;" horiz-adv-x="1366" d="M133 -201h221v1096q0 100 39 185t109.5 136.5t163.5 51.5q291 0 290 -174q0 -80 -93 -128t-208 -48h-129v-224h129q96 0 182.5 -31.5t138.5 -92t52 -140.5q0 -125 -107.5 -195.5t-265.5 -70.5q-47 0 -159 22l-54 -215q102 -28 213 -28q164 0 300.5 58t216 169t79.5 260 q0 129 -71.5 228.5t-178.5 148.5q178 90 179 287q0 129 -70 219t-185.5 134t-258.5 44q-154 0 -276 -82t-189.5 -218t-67.5 -296v-1096z" />
<glyph unicode="&#xe0;" horiz-adv-x="1411" d="M88 537q0 -158 72.5 -295.5t200.5 -218t286 -80.5q248 0 408 188v-154h223v1119h-223v-152q-164 188 -408 189q-246 0 -399 -181q-160 -172 -160 -415zM309 537q0 102 50.5 187t135.5 135t187 50t187 -50t135.5 -135t50.5 -187q0 -103 -50.5 -188t-135.5 -135t-187 -50 t-187 50t-135.5 135t-50.5 188zM403 1454l215 -258h152l-129 258h-238z" />
<glyph unicode="&#xe1;" horiz-adv-x="1411" d="M88 537q0 -158 72.5 -295.5t200.5 -218t286 -80.5q248 0 408 188v-154h223v1119h-223v-152q-164 188 -408 189q-246 0 -399 -181q-160 -172 -160 -415zM309 537q0 102 50.5 187t135.5 135t187 50t187 -50t135.5 -135t50.5 -187q0 -103 -50.5 -188t-135.5 -135t-187 -50 t-187 50t-135.5 135t-50.5 188zM594 1196h154l215 258h-240z" />
<glyph unicode="&#xe2;" horiz-adv-x="1411" d="M88 537q0 -158 72.5 -295.5t200.5 -218t286 -80.5q248 0 408 188v-154h223v1119h-223v-152q-164 188 -408 189q-246 0 -399 -181q-160 -172 -160 -415zM309 537q0 102 50.5 187t135.5 135t187 50t187 -50t135.5 -135t50.5 -187q0 -103 -50.5 -188t-135.5 -135t-187 -50 t-187 50t-135.5 135t-50.5 188zM426 1196h160l96 117l98 -117h158l-172 258h-168z" />
<glyph unicode="&#xe3;" horiz-adv-x="1411" d="M88 537q0 -158 72.5 -295.5t200.5 -218t286 -80.5q248 0 408 188v-154h223v1119h-223v-152q-164 188 -408 189q-246 0 -399 -181q-160 -172 -160 -415zM309 537q0 102 50.5 187t135.5 135t187 50t187 -50t135.5 -135t50.5 -187q0 -103 -50.5 -188t-135.5 -135t-187 -50 t-187 50t-135.5 135t-50.5 188zM385 1270l141 -74q29 96 47 96q45 0 109 -45q90 -51 133 -51q111 0 162 174l-10 27l-125 65q-29 -96 -47 -96q-37 0 -111 43q-82 51 -131 51q-113 0 -168 -190z" />
<glyph unicode="&#xe4;" horiz-adv-x="1411" d="M88 537q0 -158 72.5 -295.5t200.5 -218t286 -80.5q248 0 408 188v-154h223v1119h-223v-152q-164 188 -408 189q-246 0 -399 -181q-160 -172 -160 -415zM309 537q0 102 50.5 187t135.5 135t187 50t187 -50t135.5 -135t50.5 -187q0 -103 -50.5 -188t-135.5 -135t-187 -50 t-187 50t-135.5 135t-50.5 188zM393 1309q0 -47 32 -80t79 -33t78.5 33t31.5 80t-31.5 78.5t-78.5 31.5t-79 -31.5t-32 -78.5zM752 1309q0 -47 31.5 -80t78.5 -33t79 33t32 80t-32 78.5t-79 31.5t-78.5 -31.5t-31.5 -78.5z" />
<glyph unicode="&#xe5;" horiz-adv-x="1411" d="M88 537q0 -158 72.5 -295.5t200.5 -218t286 -80.5q248 0 408 188v-154h223v1119h-223v-152q-164 188 -408 189q-246 0 -399 -181q-160 -172 -160 -415zM309 537q0 102 50.5 187t135.5 135t187 50t187 -50t135.5 -135t50.5 -187q0 -103 -50.5 -188t-135.5 -135t-187 -50 t-187 50t-135.5 135t-50.5 188zM465 1415q0 -90 63 -153q61 -66 154 -66q94 0 156 66q63 63 63 153q0 93 -63 156t-156 63q-90 0 -154 -63q-63 -63 -63 -156zM580 1415q0 43 29.5 74t72.5 31t73.5 -31t30.5 -74t-30.5 -73.5t-73.5 -30.5t-72.5 30.5t-29.5 73.5z" />
<glyph unicode="&#xe6;" horiz-adv-x="2332" d="M88 537q0 -158 75 -295.5t203 -218t281 -80.5q252 0 408 186v-152h223v152q156 -186 399 -186q268 0 459 252l-186 120q-127 -152 -299 -151q-127 0 -225.5 74.5t-129.5 187.5h938q11 60 11 111q0 158 -73 295t-199 219t-281 82q-254 0 -414 -189v152h-223v-152 q-164 188 -408 189q-156 0 -283.5 -81t-201.5 -217.5t-74 -297.5zM309 537q0 102 50.5 187t135.5 135t187 50t187 -50t135.5 -135t50.5 -187q0 -103 -50.5 -188t-135.5 -135t-187 -50t-187 50t-135.5 135t-50.5 188zM1296 649q31 102 121 180q104 80 234 80q125 0 221 -72.5 t133 -187.5h-709z" />
<glyph unicode="&#xe7;" horiz-adv-x="1273" d="M88 537q0 -223 148 -390q135 -160 342 -196l-29 -133h80q29 0 48 -20.5t19 -49.5t-19.5 -48t-47.5 -19h-140l-32 -97h172q70 0 118 48.5t48 115.5q0 53 -32 96t-81 62l10 37q293 10 463 235l-6 29l-168 108q-127 -151 -299 -151q-102 0 -187 50t-135.5 135t-50.5 188 q0 102 50.5 187t135.5 135t187 50q174 0 299 -149l186 121q-92 119 -219 185.5t-266 66.5q-158 0 -295 -81t-218 -218.5t-81 -296.5z" />
<glyph unicode="&#xe8;" horiz-adv-x="1366" d="M88 537q0 -158 81 -295.5t218 -218t295 -80.5q139 0 266 66.5t219 185.5l-186 120q-123 -152 -299 -151q-125 0 -221 73.5t-133 188.5h940q10 78 10 111q0 160 -81 297t-218 218t-297 81q-158 0 -295 -81t-218 -218.5t-81 -296.5zM328 649q33 106 123 180q104 80 231 80 q129 0 223 -71.5t133 -188.5h-710zM403 1454l215 -258h152l-129 258h-238z" />
<glyph unicode="&#xe9;" horiz-adv-x="1366" d="M88 537q0 -158 81 -295.5t218 -218t295 -80.5q139 0 266 66.5t219 185.5l-186 120q-123 -152 -299 -151q-125 0 -221 73.5t-133 188.5h940q10 78 10 111q0 160 -81 297t-218 218t-297 81q-158 0 -295 -81t-218 -218.5t-81 -296.5zM328 649q33 106 123 180q104 80 231 80 q129 0 223 -71.5t133 -188.5h-710zM594 1196h154l215 258h-240z" />
<glyph unicode="&#xea;" horiz-adv-x="1366" d="M88 537q0 -158 81 -295.5t218 -218t295 -80.5q139 0 266 66.5t219 185.5l-186 120q-123 -152 -299 -151q-125 0 -221 73.5t-133 188.5h940q10 78 10 111q0 160 -81 297t-218 218t-297 81q-158 0 -295 -81t-218 -218.5t-81 -296.5zM328 649q33 106 123 180q104 80 231 80 q129 0 223 -71.5t133 -188.5h-710zM426 1196h160l96 117l98 -117h158l-172 258h-168z" />
<glyph unicode="&#xeb;" horiz-adv-x="1366" d="M88 537q0 -158 81 -295.5t218 -218t295 -80.5q139 0 266 66.5t219 185.5l-186 120q-123 -152 -299 -151q-125 0 -221 73.5t-133 188.5h940q10 78 10 111q0 160 -81 297t-218 218t-297 81q-158 0 -295 -81t-218 -218.5t-81 -296.5zM328 649q33 106 123 180q104 80 231 80 q129 0 223 -71.5t133 -188.5h-710zM393 1309q0 -47 32 -80t79 -33t78.5 33t31.5 80t-31.5 78.5t-78.5 31.5t-79 -31.5t-32 -78.5zM752 1309q0 -47 31.5 -80t78.5 -33t79 33t32 80t-32 78.5t-79 31.5t-78.5 -31.5t-31.5 -78.5z" />
<glyph unicode="&#xec;" d="M-37 1454l215 -258h154l-129 258h-240zM133 -23h221v1119h-221v-1119z" />
<glyph unicode="&#xed;" d="M133 -23h221v1119h-221v-1119zM154 1196h153l215 258h-239z" />
<glyph unicode="&#xee;" d="M-12 1196h159l97 117l96 -117h160l-172 258h-168zM133 -23h221v1119h-221v-1119z" />
<glyph unicode="&#xef;" d="M-47 1309q0 -47 31.5 -80t78.5 -33t80 33t33 80t-32.5 78.5t-80.5 31.5q-47 0 -78.5 -31.5t-31.5 -78.5zM133 -23h221v1119h-221v-1119zM311 1309q0 -47 32 -80t79 -33t80 33t33 80t-33 78.5t-80 31.5t-79 -31.5t-32 -78.5z" />
<glyph unicode="&#xf0;" horiz-adv-x="1517" d="M88 537q0 -158 81 -295.5t218 -218t295 -80.5q160 0 297 80.5t218 218t81 295.5v624h178v187h-178v106h-223v-106h-178v-187h178v-217q-164 188 -408 189q-156 0 -283.5 -81t-201.5 -217.5t-74 -297.5zM309 537q0 102 50.5 187t135.5 135t187 50t187 -50t135.5 -135 t50.5 -187q0 -103 -50.5 -188t-135.5 -135t-187 -50t-187 50t-135.5 135t-50.5 188z" />
<glyph unicode="&#xf1;" horiz-adv-x="1222" d="M133 -23h221v668q0 111 77 187.5t190 76.5q111 0 187.5 -76.5t76.5 -187.5v-668h223v668q0 197 -127 336q-129 152 -326 152q-178 0 -301 -125v88h-221v-1119zM322 1270l143 -74q25 96 45 96q41 0 111 -45q88 -51 131 -51q113 0 161 174l-10 27l-123 65q-29 -96 -47 -96 q-41 0 -110 43q-82 51 -131 51q-111 0 -170 -190z" />
<glyph unicode="&#xf2;" horiz-adv-x="1366" d="M88 537q0 -158 81 -295.5t218 -218t295 -80.5q160 0 297 80.5t218 218t81 295.5q0 159 -81 296.5t-218 218.5t-297 81q-158 0 -295 -81t-218 -218.5t-81 -296.5zM309 537q0 102 50.5 187t135.5 135t187 50t187 -50t135.5 -135t50.5 -187q0 -103 -50.5 -188t-135.5 -135 t-187 -50t-187 50t-135.5 135t-50.5 188zM403 1454l215 -258h152l-129 258h-238z" />
<glyph unicode="&#xf3;" horiz-adv-x="1366" d="M88 537q0 -158 81 -295.5t218 -218t295 -80.5q160 0 297 80.5t218 218t81 295.5q0 159 -81 296.5t-218 218.5t-297 81q-158 0 -295 -81t-218 -218.5t-81 -296.5zM309 537q0 102 50.5 187t135.5 135t187 50t187 -50t135.5 -135t50.5 -187q0 -103 -50.5 -188t-135.5 -135 t-187 -50t-187 50t-135.5 135t-50.5 188zM594 1196h154l215 258h-240z" />
<glyph unicode="&#xf4;" horiz-adv-x="1366" d="M88 537q0 -158 81 -295.5t218 -218t295 -80.5q160 0 297 80.5t218 218t81 295.5q0 159 -81 296.5t-218 218.5t-297 81q-158 0 -295 -81t-218 -218.5t-81 -296.5zM309 537q0 102 50.5 187t135.5 135t187 50t187 -50t135.5 -135t50.5 -187q0 -103 -50.5 -188t-135.5 -135 t-187 -50t-187 50t-135.5 135t-50.5 188zM426 1196h160l96 117l98 -117h158l-172 258h-168z" />
<glyph unicode="&#xf5;" horiz-adv-x="1366" d="M88 537q0 -158 81 -295.5t218 -218t295 -80.5q160 0 297 80.5t218 218t81 295.5q0 159 -81 296.5t-218 218.5t-297 81q-158 0 -295 -81t-218 -218.5t-81 -296.5zM309 537q0 102 50.5 187t135.5 135t187 50t187 -50t135.5 -135t50.5 -187q0 -103 -50.5 -188t-135.5 -135 t-187 -50t-187 50t-135.5 135t-50.5 188zM385 1270l141 -74q29 96 47 96q45 0 109 -45q90 -51 133 -51q111 0 162 174l-10 27l-125 65q-29 -96 -47 -96q-37 0 -111 43q-82 51 -131 51q-113 0 -168 -190z" />
<glyph unicode="&#xf6;" horiz-adv-x="1366" d="M88 537q0 -158 81 -295.5t218 -218t295 -80.5q160 0 297 80.5t218 218t81 295.5q0 159 -81 296.5t-218 218.5t-297 81q-158 0 -295 -81t-218 -218.5t-81 -296.5zM309 537q0 102 50.5 187t135.5 135t187 50t187 -50t135.5 -135t50.5 -187q0 -103 -50.5 -188t-135.5 -135 t-187 -50t-187 50t-135.5 135t-50.5 188zM393 1309q0 -47 32 -80t79 -33t78.5 33t31.5 80t-31.5 78.5t-78.5 31.5t-79 -31.5t-32 -78.5zM752 1309q0 -47 31.5 -80t78.5 -33t79 33t32 80t-32 78.5t-79 31.5t-78.5 -31.5t-31.5 -78.5z" />
<glyph unicode="&#xf7;" horiz-adv-x="1024" d="M127 475l172 -69q35 84 68 83q49 0 153 -40q98 -45 170 -46q139 0 207 172l-10 27l-154 64q-32 -86 -67 -86q-51 0 -154 43q-106 43 -170 43q-137 0 -215 -191z" />
<glyph unicode="&#xf8;" horiz-adv-x="1366" d="M35 55l84 -84l155 135q170 -164 408 -163q160 0 297 80.5t218 218t81 295.5q0 188 -111 344l164 139l-84 84l-155 -135q-177 164 -410 164q-158 0 -295 -81t-218 -218.5t-81 -296.5q0 -193 107 -342zM309 537q0 102 50.5 187t135.5 135t187 50q135 0 240 -86l-557 -481 q-56 93 -56 195zM442 252l555 481q58 -87 58 -196q0 -102 -50.5 -187.5t-135.5 -135.5t-187 -50q-139 0 -240 88z" />
<glyph unicode="&#xf9;" horiz-adv-x="1222" d="M115 430q0 -129 58 -241.5t161.5 -179t230.5 -66.5q176 0 301 123v-89h224v1119h-224v-666q0 -113 -75 -188q-82 -78 -189 -78q-106 0 -188 78q-78 82 -78 188v666h-221v-666zM322 1454l215 -258h153l-129 258h-239z" />
<glyph unicode="&#xfa;" horiz-adv-x="1222" d="M115 430q0 -129 58 -241.5t161.5 -179t230.5 -66.5q176 0 301 123v-89h224v1119h-224v-666q0 -113 -75 -188q-82 -78 -189 -78q-106 0 -188 78q-78 82 -78 188v666h-221v-666zM512 1196h154l215 258h-240z" />
<glyph unicode="&#xfb;" horiz-adv-x="1222" d="M115 430q0 -129 58 -241.5t161.5 -179t230.5 -66.5q176 0 301 123v-89h224v1119h-224v-666q0 -113 -75 -188q-82 -78 -189 -78q-106 0 -188 78q-78 82 -78 188v666h-221v-666zM346 1196h160l96 117l96 -117h160l-172 258h-168z" />
<glyph unicode="&#xfc;" horiz-adv-x="1222" d="M115 430q0 -129 58 -241.5t161.5 -179t230.5 -66.5q176 0 301 123v-89h224v1119h-224v-666q0 -113 -75 -188q-82 -78 -189 -78q-106 0 -188 78q-78 82 -78 188v666h-221v-666zM311 1309q0 -47 32 -80t79 -33t80 33t33 80t-33 78.5t-80 31.5t-79 -31.5t-32 -78.5z M670 1309q0 -47 31.5 -80t78.5 -33t80 33t33 80t-33 78.5t-80 31.5t-78.5 -31.5t-31.5 -78.5z" />
<glyph unicode="&#xfd;" horiz-adv-x="1191" d="M35 1096l440 -1096l-63 -158q-12 -37 -62 -37q-27 0 -112 29v-225q68 -25 112 -25q197 0 271 183v-3l538 1332h-239l-326 -801l-322 801h-237zM506 1196h153l215 258h-239z" />
<glyph unicode="&#xfe;" horiz-adv-x="1411" d="M133 -381h221v512q164 -188 410 -188q156 0 284 81.5t201.5 218t73.5 294.5t-73.5 295t-201.5 219t-284 82q-244 0 -410 -189v510h-221v-1835zM354 537q0 102 50.5 187t135.5 135t187 50t187 -50t135.5 -135t50.5 -187q0 -103 -50.5 -188t-135.5 -135t-187 -50t-187 50 t-135.5 135t-50.5 188z" />
<glyph unicode="&#xff;" horiz-adv-x="1191" d="M35 1096l440 -1096l-63 -158q-12 -37 -62 -37q-27 0 -112 29v-225q68 -25 112 -25q197 0 271 183v-3l538 1332h-239l-326 -801l-322 801h-237zM307 1309q0 -47 32 -80t79 -33t78.5 33t31.5 80t-31.5 78.5t-78.5 31.5t-79 -31.5t-32 -78.5zM666 1309q0 -47 31.5 -80 t78.5 -33t79 33t32 80t-32 78.5t-79 31.5t-78.5 -31.5t-31.5 -78.5z" />
<glyph unicode="&#x152;" horiz-adv-x="2414" d="M88 717q0 -209 104.5 -387t282.5 -282.5t387 -104.5q330 0 551 229v-195h868v224h-645v405h465v221h-465v406h645v221h-868v-194q-221 231 -551 231q-209 0 -387 -105.5t-282.5 -283.5t-104.5 -385zM309 717q0 150 75 275.5t202 200.5t276 75q229 0 391 -160 q160 -162 160 -391q0 -150 -74.5 -277t-200.5 -201.5t-276 -74.5t-276.5 74.5t-201.5 201.5t-75 277z" />
<glyph unicode="&#x153;" horiz-adv-x="2332" d="M88 537q0 -158 81 -295.5t218 -218t295 -80.5q145 0 272 65.5t213 184.5q88 -119 213 -184.5t271 -65.5q139 0 266 66.5t219 185.5l-186 120q-127 -152 -299 -151q-127 0 -225.5 74.5t-129.5 187.5h938q11 60 11 111q0 162 -80 298t-217.5 217t-296.5 81 q-145 0 -271.5 -67t-212.5 -185q-86 119 -213 185.5t-272 66.5q-158 0 -295 -81t-218 -218.5t-81 -296.5zM309 537q0 102 50.5 187t135.5 135t187 50t187 -50t135.5 -135t50.5 -187q0 -103 -50.5 -188t-135.5 -135t-187 -50t-187 50t-135.5 135t-50.5 188zM1296 649 q31 102 121 180q104 80 234 80q125 0 221 -72.5t133 -187.5h-709z" />
<glyph unicode="&#x178;" horiz-adv-x="1361" d="M23 1454l546 -774v-703h224v703l546 774h-274l-385 -543l-383 543h-274zM391 1667q0 -47 32 -80t79 -33t78.5 33t31.5 80t-31.5 79t-78.5 32t-79 -32t-32 -79zM750 1667q0 -47 31.5 -80t78.5 -33t79 33t32 80t-32 79t-79 32t-78.5 -32t-31.5 -79z" />
<glyph unicode="&#x2c6;" horiz-adv-x="737" d="M125 -381h172q70 0 118 48t48 118q0 53 -32 96t-81 60l29 116h-117l-45 -204h80q29 0 48.5 -19.5t19.5 -48.5t-19.5 -48.5t-48.5 -19.5h-139z" />
<glyph unicode="&#x2dc;" horiz-adv-x="1024" d="M127 1266l141 -76q29 96 47 96q45 0 109 -45q92 -49 133 -49q111 0 162 174l-10 25l-125 65q-29 -96 -47 -96q-37 0 -111 43q-76 51 -131 51q-113 0 -168 -188z" />
<glyph unicode="&#x2000;" horiz-adv-x="910" />
<glyph unicode="&#x2001;" horiz-adv-x="1821" />
<glyph unicode="&#x2002;" horiz-adv-x="910" />
<glyph unicode="&#x2003;" horiz-adv-x="1821" />
<glyph unicode="&#x2004;" horiz-adv-x="607" />
<glyph unicode="&#x2005;" horiz-adv-x="455" />
<glyph unicode="&#x2006;" horiz-adv-x="303" />
<glyph unicode="&#x2007;" horiz-adv-x="303" />
<glyph unicode="&#x2008;" horiz-adv-x="227" />
<glyph unicode="&#x2009;" horiz-adv-x="364" />
<glyph unicode="&#x200a;" horiz-adv-x="101" />
<glyph unicode="&#x2010;" horiz-adv-x="1024" d="M133 444h760v187h-760v-187z" />
<glyph unicode="&#x2011;" horiz-adv-x="1024" d="M133 444h760v187h-760v-187z" />
<glyph unicode="&#x2012;" horiz-adv-x="1024" d="M133 444h760v187h-760v-187z" />
<glyph unicode="&#x2013;" horiz-adv-x="845" d="M133 444h580v187h-580v-187z" />
<glyph unicode="&#x2014;" horiz-adv-x="1204" d="M133 444h938v187h-938v-187z" />
<glyph unicode="&#x2018;" horiz-adv-x="559" d="M133 909h293v295h-178q4 58 34.5 96.5t71.5 38.5v115q-104 0 -162.5 -78t-58.5 -194v-273z" />
<glyph unicode="&#x2019;" horiz-adv-x="559" d="M133 1161h176q-4 -59 -33.5 -98t-70.5 -39v-115q109 0 164 84q57 76 57 189v272h-293v-293z" />
<glyph unicode="&#x201a;" horiz-adv-x="559" d="M133 -23h176q-4 -57 -33.5 -96t-70.5 -39v-114q102 0 161.5 76.5t59.5 195.5v272h-293v-295z" />
<glyph unicode="&#x201c;" horiz-adv-x="952" d="M133 909h293v295h-178q4 58 34.5 96.5t71.5 38.5v115q-104 0 -162.5 -78t-58.5 -194v-273zM526 909h295v295h-180q6 58 37 96.5t72 38.5v115q-104 0 -168 -82q-55 -82 -56 -190v-273z" />
<glyph unicode="&#x201d;" horiz-adv-x="952" d="M133 1161h176q-4 -59 -33.5 -98t-70.5 -39v-115q109 0 164 84q57 76 57 189v272h-293v-293zM526 1161h179q-6 -59 -36 -98t-71 -39v-115q102 0 162.5 78t60.5 195v272h-295v-293z" />
<glyph unicode="&#x201e;" horiz-adv-x="952" d="M133 -23h176q-4 -57 -33.5 -96t-70.5 -39v-114q102 0 161.5 76.5t59.5 195.5v272h-293v-295zM526 -23h179q-6 -57 -36 -96t-71 -39v-114q106 0 164.5 76.5t58.5 195.5v272h-295v-295z" />
<glyph unicode="&#x2022;" horiz-adv-x="952" d="M133 537q0 -92 47 -171t126 -126t171 -47q141 0 242 100q102 109 102 244q0 134 -102 243q-100 100 -242 101q-92 0 -171 -47.5t-126 -126t-47 -170.5z" />
<glyph unicode="&#x2026;" horiz-adv-x="1490" d="M133 125q0 -61 42 -104.5t104 -43.5q63 0 105 43t42 105q0 61 -42 104t-105 43q-61 0 -103.5 -43t-42.5 -104zM598 125q0 -61 43 -104.5t104 -43.5t104.5 43t43.5 105q0 61 -43 104t-105 43q-61 0 -104 -43t-43 -104zM1065 125q0 -61 42 -104.5t103 -43.5q63 0 105.5 43 t42.5 105q0 61 -42 104t-106 43q-61 0 -103 -43t-42 -104z" />
<glyph unicode="&#x202f;" horiz-adv-x="364" />
<glyph unicode="&#x2039;" horiz-adv-x="808" d="M133 537l447 -301l104 157l-338 230l338 229l-104 156l-447 -301v-170z" />
<glyph unicode="&#x203a;" horiz-adv-x="808" d="M123 393l104 -157l449 301v170l-449 301l-104 -156l340 -229z" />
<glyph unicode="&#x205f;" horiz-adv-x="455" />
<glyph unicode="&#x20ac;" horiz-adv-x="1675" d="M133 408q0 -201 136.5 -314.5t346.5 -142.5v-152h222v152q209 33 347 142.5t138 293.5q0 213 -160 320q-100 61 -325 102v446q90 -14 147 -59q80 -55 80 -168h221q0 195 -128 308.5t-320 146.5v151h-222v-151q-180 -29 -299 -129q-150 -119 -149 -303q0 -203 141 -314 q100 -76 307 -112v-453q-121 20 -191.5 72.5t-70.5 163.5h-221zM391 1051q0 92 78 145q57 45 147 59v-409q-96 20 -149 57q-76 51 -76 148zM838 172v418q119 -22 172 -53q90 -49 90 -150q0 -178 -262 -215z" />
<glyph unicode="&#x2122;" horiz-adv-x="1611" d="M133 193q0 -123 66.5 -208t174 -126t228.5 -41q119 0 227.5 41t175 120.5t66.5 190.5q0 166 -119 252q119 86 119 231q0 213 -194 291h2q-16 10 -342 72q-164 35 -164 123q0 61 68.5 95t160.5 34t160.5 -34t68.5 -93v-25h222q0 121 -63.5 206t-166 127t-221.5 42 q-115 0 -219 -43t-168.5 -124t-64.5 -185q0 -164 116 -250q-117 -92 -116 -236q0 -213 196 -291q20 -8 100 -22l66 -12q152 -29 245 -62t93 -96q0 -131 -248 -131q-92 0 -166 24h2q-84 37 -84 101v29h-221zM373 653q0 66 65.5 100.5t157.5 34.5q94 0 174 -37.5t80 -97.5 q0 -65 -78 -102q-82 -29 -151 -29q-47 0 -82 8q-166 33 -166 123z" />
<glyph unicode="&#xe000;" horiz-adv-x="1095" d="M0 0v1096h1096v-1096h-1096z" />
</font>
</defs>
</svg>
