<?xml version="1.0" standalone="no"?>
<!DOCTYPE svg PUBLIC "-//W3C//DTD SVG 1.1//EN" "http://www.w3.org/Graphics/SVG/1.1/DTD/svg11.dtd" >
<svg xmlns="http://www.w3.org/2000/svg">
<metadata></metadata>
<defs>
<font id="sf_florencesansbold_italic" horiz-adv-x="1296" >
<font-face units-per-em="2048" ascent="1638" descent="-410" />
<missing-glyph horiz-adv-x="847" />
<glyph horiz-adv-x="2048" />
<glyph horiz-adv-x="2048" />
<glyph unicode="&#xd;" horiz-adv-x="0" />
<glyph unicode=" "  horiz-adv-x="847" />
<glyph unicode="&#x09;" horiz-adv-x="847" />
<glyph unicode="&#xa0;" horiz-adv-x="847" />
<glyph unicode="!" horiz-adv-x="530" d="M147 92q0 -49 31 -82t82 -33q68 0 122 54.5t54 126.5q0 49 -31.5 81.5t-82.5 32.5q-66 0 -120.5 -54t-54.5 -126zM272 373h144l264 1081h-211z" />
<glyph unicode="&#x22;" horiz-adv-x="937" d="M416 1010q-2 -64 49 -64q55 0 80 64l188 516h-287zM823 1010q0 -64 51 -64q57 0 78 64l189 516h-287z" />
<glyph unicode="#" horiz-adv-x="1177" d="M250 588h184l-65 -215h178l63 215h164l-65 -215h178l65 215h226l39 186h-211l51 172h196l39 187h-182l66 215h-179l-61 -215h-166l66 215h-179l-63 -215h-229l-39 -187h213l-52 -172h-196zM666 774l51 172h164l-54 -172h-161z" />
<glyph unicode="$" horiz-adv-x="1382" d="M217 463h209q20 -156 98 -273.5t203 -182t283 -64.5q195 0 407 114l60 277q-223 -170 -418 -170q-154 0 -261.5 84t-140.5 215h611l102 186h-731q4 33 12 68l8 35q4 25 9 32h778l104 187h-784q84 121 223 209q150 88 303 88q197 0 336 -158l125 223q-170 158 -414 158 q-240 0 -462 -150q-217 -139 -342 -370h-144l-106 -187h170l-6 -32l-9 -35l-6 -35l-8 -33h-104z" />
<glyph unicode="%" horiz-adv-x="1740" d="M178 285l98 -131l293 254l187 -254l153 131l-186 252l293 254l-96 131l-295 -254l-187 254l-151 -131l186 -254z" />
<glyph unicode="&#x26;" horiz-adv-x="1337" d="M121 -23h721l41 187h-721zM258 623h272l-61 -287h178l62 287h272l39 186h-272l61 287h-178l-62 -287h-272z" />
<glyph unicode="'" horiz-adv-x="530" d="M416 1010q-2 -64 49 -64q55 0 80 64l188 516h-287z" />
<glyph unicode="(" horiz-adv-x="665" d="M221 313q0 -66 6 -125q23 -172 138 -389h147q-86 258 -86 465q0 158 43 363q45 213 133 413q90 190 264 414h-147q-201 -201 -305 -389q-109 -203 -156 -438q-37 -162 -37 -314z" />
<glyph unicode=")" horiz-adv-x="665" d="M70 -201h145q186 186 303 389q94 162 156 439q39 190 39 321q0 68 -8 117q-25 199 -138 389h-145q88 -274 88 -459q0 -133 -47 -368q-49 -227 -133 -416q-74 -162 -260 -412z" />
<glyph unicode="*" horiz-adv-x="950" d="M301 858l55 -162l203 111l-47 -219h176l47 219l156 -111l123 162l-158 109l205 110l-55 162l-203 -113l47 222h-176l-47 -222l-156 113l-123 -162l156 -110z" />
<glyph unicode="+" horiz-adv-x="972" d="M147 -23h226l1523 1477h-225zM352 1020q0 -100 58 -178q80 -111 233 -111q96 0 189.5 50t161 137.5t89.5 191.5q9 35 9 80q0 127 -81 214t-206 87q-100 0 -194.5 -52.5t-161 -139.5t-87.5 -189q-10 -39 -10 -90zM535 1069q0 27 4 41q18 80 83.5 137.5t143.5 57.5 q66 0 105.5 -42t39.5 -110q0 -14 -4 -43q-23 -84 -84 -137q-66 -55 -141 -55q-63 0 -105 44t-42 107zM950 236q0 -127 81 -210t208 -83q98 0 192.5 52t163 139t88.5 188q9 34 9 77q0 84 -37 154t-103.5 109.5t-150.5 39.5q-98 0 -192.5 -52t-161 -139t-86.5 -189 q-10 -51 -11 -86zM1133 279q0 23 6 43q18 86 80.5 140t142.5 54q76 0 121 -55q29 -41 28 -92q0 -23 -6 -47q-14 -72 -82 -138q-63 -55 -143 -55q-63 0 -105 43t-42 107zM1735 240q0 -129 78.5 -213t209.5 -84q98 0 192.5 52t162 139t88.5 188q8 34 8 79q0 127 -82 214 t-207 87q-147 0 -278 -112q-127 -109 -164 -268q-8 -39 -8 -82zM1917 276q0 12 4 46q18 86 80.5 140t142.5 54q68 0 109 -42t41 -107q0 -20 -6 -45q-14 -72 -82 -138q-63 -55 -144 -55q-66 0 -105.5 40t-39.5 107z" />
<glyph unicode="," horiz-adv-x="530" d="M150 -244q-4 -65 49 -65q51 0 80 65l186 516h-287z" />
<glyph unicode="-" horiz-adv-x="972" d="M221 444h721l39 187h-721z" />
<glyph unicode="." horiz-adv-x="530" d="M147 92q0 -49 31 -82t82 -33q68 0 122 54.5t54 126.5q0 49 -31.5 81.5t-82.5 32.5q-66 0 -120.5 -54t-54.5 -126z" />
<glyph unicode="/" horiz-adv-x="892" d="M55 -113l181 -75l868 1556l-180 74z" />
<glyph unicode="0" horiz-adv-x="1366" d="M213 508q0 -160 52 -288t155.5 -202.5t249.5 -74.5q176 0 335.5 108.5t272.5 286.5t156 379q24 111 24 215q0 162 -63 307q-123 252 -396 252q-270 0 -501 -252q-197 -217 -262 -522q-23 -113 -23 -209zM428 549q0 80 18 168q47 219 177 370q141 180 329 181 q141 0 215 -107.5t74 -277.5q0 -92 -16 -166q-47 -217 -176 -371q-145 -182 -330 -182q-188 0 -254 182q-37 92 -37 203z" />
<glyph unicode="1" horiz-adv-x="1366" d="M565 1053l107 -144l280 244l-250 -1176h211l316 1477h-197z" />
<glyph unicode="2" horiz-adv-x="1366" d="M147 -23h1061l47 224h-786q104 112 309 223q86 47 266 151q98 57 134 82q209 158 254 375q12 53 12 98q0 111 -59.5 193t-161 125t-224.5 43q-141 0 -271 -51t-226 -155.5t-131 -256.5h209q27 125 128 182.5t234 57.5q145 0 211 -51q76 -51 76 -138q0 -186 -285 -356h2 l-465 -266q-272 -193 -334 -480z" />
<glyph unicode="3" horiz-adv-x="1366" d="M184 229q47 -147 170 -216.5t293 -69.5q154 0 295 58t241.5 169t131.5 260q12 55 12 102q0 174 -168 275q186 92 230 287q10 47 10 84q0 152 -121 232.5t-301 80.5q-168 0 -319.5 -74t-227.5 -219l180 -76q82 145 318 146q117 0 182 -33q72 -37 72 -109q0 -12 -4 -32 q-18 -78 -117.5 -127t-206.5 -49h-123l-49 -224h125q127 0 214 -59.5t87 -159.5q0 -29 -4 -45q-25 -125 -141.5 -195.5t-268.5 -70.5q-252 0 -301 178z" />
<glyph unicode="4" horiz-adv-x="1366" d="M174 264h750l-62 -287h209l62 287h170l49 223h-170l204 967h-176l-991 -981zM465 487l639 623l-133 -623h-506z" />
<glyph unicode="5" horiz-adv-x="1366" d="M199 342q30 -192 154 -295.5t302 -103.5q152 0 298.5 73.5t251 201.5t136.5 284q12 59 13 112q0 127 -59.5 229.5t-164 160t-235.5 57.5q-166 0 -317 -84l53 256h694l49 221h-907l-156 -731l174 -78q72 92 167.5 142.5t193.5 50.5q143 0 225 -95q68 -70 68 -172 q0 -37 -9 -69q-35 -147 -161 -242q-129 -96 -264 -96q-115 0 -190 58.5t-99 174.5z" />
<glyph unicode="6" horiz-adv-x="1366" d="M225 506q0 -156 53.5 -285t157 -203.5t248.5 -74.5q154 0 300 73.5t251.5 202.5t138.5 287q14 57 15 119q0 158 -103 284q-135 158 -362 158q-225 0 -394 -149q68 147 180.5 248.5t256.5 101.5q168 0 247 -164l195 133q-125 254 -395 254q-176 0 -336 -107.5 t-272.5 -285.5t-155.5 -381q-25 -106 -25 -211zM459 444q0 29 6 60q20 94 81.5 172t148.5 123t182 45q141 0 229 -94q63 -72 63 -177q0 -33 -6 -69q-20 -96 -86.5 -174t-158 -122t-185.5 -44q-74 0 -136 38t-100 102.5t-38 139.5z" />
<glyph unicode="7" horiz-adv-x="1366" d="M266 -23h252l969 1272l45 205h-961l-49 -221h709z" />
<glyph unicode="8" horiz-adv-x="1366" d="M199 326q0 -180 131 -281.5t340 -101.5q156 0 298 58t240.5 169t130.5 260q11 57 11 98q0 184 -168 279q184 88 229 287q10 51 10 84q0 152 -120.5 232.5t-301.5 80.5q-193 0 -350 -90q-111 -61 -174 -167t-63 -212q0 -150 114 -215q-262 -121 -317 -377 q-10 -45 -10 -104zM414 373q0 27 6 57q16 78 79.5 138.5t152.5 93t177 32.5q129 0 217.5 -59.5t88.5 -157.5q0 -23 -7 -47q-28 -127 -144 -196.5t-265 -69.5q-143 0 -227 61q-78 53 -78 148zM627 1069q0 16 2 25q16 90 105 132t218 42q117 0 183 -33q72 -37 71 -109 q0 -12 -4 -32q-18 -78 -117.5 -127t-205.5 -49q-96 0 -174 43t-78 108z" />
<glyph unicode="9" horiz-adv-x="1366" d="M262 197q125 -254 391 -254q178 0 337 108.5t271.5 285.5t157.5 380q25 111 25 211q0 170 -66 311q-119 252 -395 252q-227 0 -428 -158q-129 -102 -199.5 -240.5t-70.5 -277.5q0 -172 98 -291q135 -158 362 -157q221 0 394 147q-70 -137 -144 -213q-137 -137 -293 -137 q-168 0 -247 166zM500 856q0 41 8 74q20 96 84.5 173t157 121t186.5 44q129 0 213 -103q61 -80 61 -166q0 -37 -8 -69q-30 -144 -149 -244q-121 -96 -260 -96t-230 96q-63 72 -63 170z" />
<glyph unicode=":" horiz-adv-x="530" d="M147 92q0 -49 31 -82t82 -33q68 0 122 54.5t54 126.5q0 49 -31.5 81.5t-82.5 32.5q-66 0 -120.5 -54t-54.5 -126zM285 739q0 -51 31.5 -83.5t80.5 -32.5q70 0 122 55t52 127q0 49 -30.5 81t-79.5 32q-59 0 -108.5 -43.5t-63.5 -104.5q-4 -20 -4 -31z" />
<glyph unicode=";" horiz-adv-x="530" d="M150 -244q-4 -65 49 -65q51 0 80 65l186 516h-287zM285 739q0 -51 31.5 -83.5t80.5 -32.5q70 0 122 55t52 127q0 49 -30.5 81t-79.5 32q-59 0 -108.5 -43.5t-63.5 -104.5q-4 -20 -4 -31z" />
<glyph unicode="&#x3c;" horiz-adv-x="937" d="M162 203l61 -158l686 408l35 170l-510 407l-129 -158l418 -335z" />
<glyph unicode="=" horiz-adv-x="972" d="M221 444h721l39 187h-721zM371 90q0 -49 30.5 -81t79.5 -32q68 0 122 54.5t54 128.5q0 49 -30.5 80.5t-81.5 31.5q-70 0 -122 -55t-52 -127zM547 913q0 -49 29.5 -79.5t80.5 -30.5q59 0 108.5 42t63.5 105q5 21 5 31q0 51 -32 83t-81 32q-59 0 -109.5 -42t-60.5 -104 q-4 -25 -4 -37z" />
<glyph unicode="&#x3e;" horiz-adv-x="937" d="M186 283h723l39 186h-723zM254 606h723l39 187h-723z" />
<glyph unicode="?" horiz-adv-x="905" d="M217 90q0 -49 31 -81t80 -32q68 0 122 54.5t54 128.5q0 49 -31 80.5t-82 31.5q-70 0 -122 -55t-52 -127zM342 373h139q19 51 37 112l27 84q41 131 145 201l94 57l95 56q106 82 143 256q6 37 6 69q0 121 -70.5 202t-187.5 81q-90 0 -175 -48t-147.5 -134t-85.5 -193h211 q18 61 60.5 106.5t89.5 45.5q41 0 65.5 -28t24.5 -71q0 -102 -115 -188l-86 -63l-86 -64q-125 -106 -151 -240l-19 -131l-6 -51q-2 -18 -4 -32.5t-4 -26.5z" />
<glyph unicode="@" horiz-adv-x="2062" d="M258 662l148 -78l317 497l102 -497l181 78l-146 686h-164z" />
<glyph unicode="A" d="M27 -23h223l182 324h559l41 -324h225l-194 1477h-211zM555 522l328 588l78 -588h-406z" />
<glyph unicode="B" horiz-adv-x="1312" d="M121 -23h633q174 0 336 119q162 123 202 307q10 51 11 89q0 160 -152 233q121 61 185.5 166.5t64.5 220.5q0 137 -82 227q-111 115 -283 115h-600zM379 201l86 405h424q82 0 139 -47t57 -119q0 -12 -4 -37q-23 -96 -106 -147q-80 -55 -172 -55h-424zM512 827l86 406h389 q91 0 152 -55q45 -45 45 -109q0 -63 -42 -119.5t-107.5 -89.5t-133.5 -33h-389z" />
<glyph unicode="C" horiz-adv-x="1454" d="M217 535q0 -209 117 -367q170 -225 473 -225q301 0 567 227l8 31l-108 137q-205 -174 -420 -174q-217 0 -336 162q-84 115 -84 270q0 137 64.5 273.5t183.5 238.5q190 160 405 160q217 0 349 -172l182 151q-182 244 -481 244q-199 0 -390.5 -104.5t-328.5 -282.5 t-182 -387q-18 -94 -19 -182z" />
<glyph unicode="D" horiz-adv-x="1468" d="M121 -23h530q193 0 375 99.5t312 269.5t173 371q18 90 19 168q0 205 -117 354q-156 215 -446 215h-531zM379 201l219 1032h322q202 0 313 -152q80 -102 80 -241q0 -47 -15 -123q-31 -143 -121 -262t-215.5 -186.5t-261.5 -67.5h-321z" />
<glyph unicode="E" horiz-adv-x="1245" d="M121 -23h993l49 224h-784l86 405h614l45 221h-612l86 406h784l48 221h-994z" />
<glyph unicode="F" horiz-adv-x="1185" d="M121 -23h211l133 629h614l45 221h-612l86 406h784l48 221h-994z" />
<glyph unicode="G" horiz-adv-x="1546" d="M217 535q0 -209 117 -367q170 -225 473 -225q180 0 369 94q182 90 319 254l6 12l111 524h-637l-47 -221h426l-51 -241q-201 -201 -449 -201q-217 0 -336 162q-84 115 -84 270q0 137 64.5 273.5t183.5 238.5q190 160 405 160q123 0 223.5 -62.5t157.5 -175.5l201 127 q-78 160 -218 247t-314 87q-199 0 -390.5 -104.5t-328.5 -282.5t-182 -387q-18 -94 -19 -182z" />
<glyph unicode="H" horiz-adv-x="1382" d="M121 -23h211l133 629h709l-136 -629h213l316 1477h-213l-133 -627h-709l135 627h-211z" />
<glyph unicode="I" horiz-adv-x="462" d="M121 -23h211l315 1477h-211z" />
<glyph unicode="J" horiz-adv-x="1071" d="M102 211q45 -125 143.5 -196.5t225.5 -71.5t253 69.5t216 186t119 250.5l215 1005h-557l-49 -221h346l-166 -784q-25 -121 -123 -201q-90 -84 -205 -84q-150 0 -209 151z" />
<glyph unicode="K" horiz-adv-x="1239" d="M121 -23h211l119 553l202 177l295 -730h252l-358 889l684 588h-295l-715 -614l131 614h-211z" />
<glyph unicode="L" horiz-adv-x="1015" d="M121 -23h823l49 224h-614l268 1253h-211z" />
<glyph unicode="M" horiz-adv-x="1648" d="M121 -23h211l235 1108l148 -1108h209l616 1104l-235 -1104h211l315 1477h-305l-633 -1132l-152 1132h-305z" />
<glyph unicode="N" horiz-adv-x="1382" d="M121 -23h211l227 1065l492 -1065h200l316 1477h-213l-228 -1063l-489 1063h-201z" />
<glyph unicode="O" horiz-adv-x="1638" d="M217 539q0 -209 119 -369q168 -227 471 -227q197 0 388 104.5t328.5 282.5t182.5 387q20 102 20 176q0 205 -118 371q-170 227 -471 227t-570 -227q-264 -229 -331 -547q-18 -92 -19 -178zM434 596q0 137 64.5 273.5t183.5 238.5q190 160 405 160q123 0 219.5 -55.5 t149.5 -155t53 -221.5q0 -57 -12 -119q-47 -223 -237 -391q-186 -162 -406 -162q-217 0 -336 162q-84 115 -84 270z" />
<glyph unicode="P" horiz-adv-x="1239" d="M121 -23h211l133 629h389q174 0 336 117q164 127 201 307q10 55 10 94q0 125 -82 215q-111 115 -283 115h-600zM512 827l86 406h389q91 0 152 -55q45 -45 45 -109q0 -63 -42 -119.5t-107.5 -89.5t-133.5 -33h-389z" />
<glyph unicode="Q" horiz-adv-x="1638" d="M219 549q0 -195 92 -346q137 -211 391 -252l-69 -332h211l69 332q258 37 498 252q233 217 295 514q20 102 20 176q0 205 -118 371q-170 227 -471 227t-570 -227q-170 -150 -259 -338.5t-89 -376.5zM434 598q0 135 63.5 270.5t184.5 239.5q190 160 405 160 q123 0 219.5 -55.5t149.5 -155t53 -221.5q0 -57 -12 -119q-45 -201 -203 -359q-150 -145 -331 -182l43 203h-211l-43 -203q-170 37 -254 182q-63 109 -64 240z" />
<glyph unicode="R" horiz-adv-x="1306" d="M121 -23h211l133 629h186q166 0 211 -117l205 -512h252l-215 537q-33 86 -68 123q123 51 205 133q74 74 117 166t43 182q0 127 -82 221q-111 115 -283 115h-600zM512 827l86 406h389q91 0 152 -55q45 -45 45 -109q0 -63 -42 -119.5t-107.5 -89.5t-133.5 -33h-389z" />
<glyph unicode="S" horiz-adv-x="1347" d="M186 317q0 -121 64.5 -204.5t173 -126.5t238.5 -43q141 0 282 53t244.5 154.5t134.5 236.5q10 43 10 98q0 188 -182 269q-47 8 -100 22l-201 49q-35 6 -100 23q-174 43 -175 160q0 135 148 211h-2q102 49 221 49q125 0 201 -51q76 -47 76 -136q0 -25 -7 -53h213 q10 57 11 96q0 117 -60.5 200t-162 125t-222.5 42q-201 0 -377 -109q-119 -74 -190.5 -193.5t-71.5 -238.5q0 -90 46 -163.5t139 -112.5q117 -29 200 -45h-2q68 -16 203 -45q176 -43 176 -160q0 -141 -162 -213q-117 -47 -243 -47q-133 0 -220.5 46t-87.5 144q0 27 7 54 h-213q-9 -42 -9 -91z" />
<glyph unicode="T" horiz-adv-x="1210" d="M319 1233h443l-268 -1256h213l266 1256h442l49 221h-1097z" />
<glyph unicode="U" horiz-adv-x="1347" d="M209 408q0 -131 58.5 -238t161.5 -167t233 -60q233 0 434 176q205 172 258 418l196 917h-211l-196 -917q-20 -100 -87 -186.5t-159 -136.5t-188 -50q-145 0 -230 108q-55 78 -55 172q0 43 12 93l195 917h-211l-197 -917q-14 -63 -14 -129z" />
<glyph unicode="V" d="M342 1454l195 -1477h211l825 1477h-225l-633 -1132l-150 1132h-223z" />
<glyph unicode="W" horiz-adv-x="1861" d="M344 1454l86 -1477h207l514 1051l59 -1051h209l719 1477h-219l-512 -1048l-61 1048h-207l-514 -1048l-60 1048h-221z" />
<glyph unicode="X" horiz-adv-x="1310" d="M25 -23h260l481 545l248 -545h260l-336 740l651 737h-260l-479 -543l-250 543h-260l338 -737z" />
<glyph unicode="Y" horiz-adv-x="1294" d="M332 1454l354 -774l-149 -703h211l149 703l686 774h-262l-481 -543l-246 543h-262z" />
<glyph unicode="Z" horiz-adv-x="1347" d="M104 -23h1131l47 224h-833l1056 1046l45 207h-1130l-49 -221h833l-1054 -1047z" />
<glyph unicode="[" horiz-adv-x="700" d="M82 -201h450l48 221h-238l256 1213h240l47 221h-449z" />
<glyph unicode="\" horiz-adv-x="892" d="M369 1368l209 -1556l213 75l-209 1555z" />
<glyph unicode="]" horiz-adv-x="700" d="M82 -201h450l353 1655h-449l-49 -221h238l-256 -1213h-238z" />
<glyph unicode="^" horiz-adv-x="983" d="M197 297q0 -125 71 -221q102 -133 281 -133q199 0 385 129l35 -95h254l-107 267l37 51q23 27 43 61h-4l119 185l-172 90l-109 -170l-137 334q152 88 224.5 163.5t94.5 192.5q10 45 11 78q0 90 -56 164v-2q-76 100 -211 100q-137 0 -249 -100q-117 -98 -148 -240 q-6 -37 -6 -74q0 -47 12 -96l17 -39q4 -16 32 -84q-158 -92 -241 -176q-127 -127 -164 -283q-12 -51 -12 -102zM416 350q0 57 29.5 114.5t82.5 100.5q27 27 162 111l166 -416q-123 -96 -262 -96q-92 0 -141 69q-37 53 -37 117zM768 1118q0 59 42 105.5t97 46.5q43 0 71 -28 t28 -68q0 -86 -95 -136l-94 -57l-39 102l-2 -2q-8 14 -8 37z" />
<glyph unicode="_" horiz-adv-x="935" d="M0 -23h936v187h-936v-187z" />
<glyph unicode="`" horiz-adv-x="565" d="M408 1317q0 -37 23.5 -60.5t62.5 -23.5q51 0 92 41t41 96q0 37 -23.5 60.5t-62.5 23.5q-51 0 -92 -40t-41 -97zM748 1317q0 -37 23.5 -60.5t62.5 -23.5q51 0 92 41t41 96q0 37 -23.5 60.5t-62.5 23.5q-51 0 -92 -41t-41 -96z" />
<glyph unicode="a" horiz-adv-x="1339" d="M184 397q0 -160 76 -274q113 -180 342 -180q236 0 430 188l-35 -154h211l238 1119h-209l-33 -152q-117 188 -350 189q-231 0 -418 -181q-119 -111 -185.5 -259t-66.5 -296zM397 453q0 37 11 84q23 104 89 189t158.5 134t186.5 49q129 0 206.5 -80.5t77.5 -210.5 q0 -43 -8 -81q-20 -101 -86.5 -187t-159 -136t-188.5 -50q-125 0 -206 82t-81 207z" />
<glyph unicode="b" horiz-adv-x="1339" d="M121 -23h211l33 154q115 -188 348 -188q147 0 286.5 81.5t238.5 218t132 294.5q16 76 16 139q0 127 -52 231.5t-148 165t-219 60.5q-229 0 -430 -189l110 510h-211zM440 453q0 37 11 84q23 104 89 189t158.5 134t186.5 49q127 0 204.5 -82t77.5 -209q0 -43 -8 -81 q-20 -101 -86.5 -187t-159 -136t-186.5 -50q-125 0 -206 82t-81 207z" />
<glyph unicode="c" horiz-adv-x="1210" d="M184 406q0 -164 92 -287q127 -176 361 -176q131 0 263 62.5t237 172.5v29l-138 108q-151 -151 -315 -151q-125 0 -206 82t-81 207q0 37 11 84q23 104 89 189t158.5 134t186.5 49q166 0 254 -149l200 121q-59 119 -165.5 185.5t-241.5 66.5q-227 0 -434 -177 q-129 -113 -200 -259t-71 -291z" />
<glyph unicode="d" horiz-adv-x="1339" d="M184 397q0 -160 76 -274q113 -180 342 -180q236 0 430 188l-35 -154h211l316 1477h-211l-109 -510q-117 188 -350 189q-231 0 -418 -181q-119 -111 -185.5 -259t-66.5 -296zM397 453q0 37 11 84q23 104 89 189t158.5 134t186.5 49q129 0 206.5 -80.5t77.5 -210.5 q0 -43 -8 -81q-20 -101 -86.5 -187t-159 -136t-188.5 -50q-125 0 -206 82t-81 207z" />
<glyph unicode="e" d="M184 406q0 -164 92 -287q127 -176 361 -176q131 0 267 66.5t247 185.5l-152 120q-146 -151 -313 -151h-2q-121 0 -197.5 74.5t-83.5 187.5h893l19 61q10 29 12 50q14 76 14 127q0 131 -57 238.5t-159.5 169t-235.5 61.5q-227 0 -434 -177q-129 -113 -200 -259t-71 -291z M451 649q47 100 151 180q117 80 240 80q125 0 202 -80q72 -68 80 -180h-673z" />
<glyph unicode="f" horiz-adv-x="679" d="M186 0h211l162 766h170l47 223h-170l45 211q6 29 30 49.5t50 20.5q23 0 53 -31l142 201q-70 51 -148 51q-74 0 -145.5 -40t-123.5 -106.5t-69 -144.5l-45 -211h-102l-45 -223h102z" />
<glyph unicode="g" horiz-adv-x="1339" d="M160 -182q135 -233 401 -234q227 0 434 176q203 170 256 418l195 918h-209l-33 -154q-41 66 -123 125q-102 66 -227 66q-147 0 -284.5 -80t-237 -217.5t-133.5 -298.5q-14 -66 -15 -138q0 -129 51.5 -233.5t146.5 -163.5t220 -59q131 0 256 63q84 43 166 119 q-47 -129 -159.5 -224.5t-256.5 -95.5q-162 0 -258 154zM397 453q0 37 11 84q23 104 89 189t158.5 134t186.5 49q129 0 206.5 -80.5t77.5 -210.5q0 -43 -8 -81q-20 -101 -86.5 -187t-159 -136t-188.5 -50q-125 0 -206 82t-81 207z" />
<glyph unicode="h" horiz-adv-x="1161" d="M121 -23h211l143 668q23 111 113 187.5t194 76.5q94 0 148.5 -58t54.5 -149q0 -27 -6 -57l-143 -668h211l143 668q12 60 12 115q0 104 -41 189t-117.5 134.5t-179.5 49.5q-170 0 -313 -125l96 446h-211z" />
<glyph unicode="i" horiz-adv-x="462" d="M121 -23h211l237 1119h-211zM373 1311q0 -49 30.5 -82t81.5 -33q70 0 122 55.5t52 126.5q0 49 -30.5 81t-79.5 32q-68 0 -122 -54.5t-54 -125.5z" />
<glyph unicode="j" horiz-adv-x="462" d="M-174 -365q70 -51 147 -51q74 0 145.5 40t123 106.5t67.5 144.5l260 1221h-211l-260 -1221q-4 -29 -27.5 -49.5t-50.5 -20.5q-23 0 -53 31zM373 1311q0 -49 30.5 -82t81.5 -33q70 0 122 55.5t52 126.5q0 49 -30.5 81t-79.5 32q-68 0 -122 -54.5t-54 -125.5z" />
<glyph unicode="k" horiz-adv-x="1101" d="M121 -23h211l71 338l201 172l207 -510h254l-270 674l516 445h-293l-549 -471l178 829h-211z" />
<glyph unicode="l" horiz-adv-x="462" d="M121 -23h211l315 1477h-211z" />
<glyph unicode="m" horiz-adv-x="1740" d="M121 -23h211l143 668q20 106 101 185t174 79q78 0 123 -54t45 -140q0 -20 -9 -70l-143 -668h213l143 668q23 115 99 184q84 80 176 80q78 0 123 -54t45 -140q0 -20 -9 -70l-143 -668h213l143 668q13 62 13 121q0 125 -60 217q-98 150 -280 150q-207 0 -355 -183 q-53 182 -241 183q-164 0 -295 -119l18 82h-211z" />
<glyph unicode="n" horiz-adv-x="1161" d="M121 -23h211l143 668q23 111 113 187.5t194 76.5q94 0 148.5 -58t54.5 -149q0 -27 -6 -57l-143 -668h211l143 668q12 60 12 115q0 104 -41 189t-117.5 134.5t-179.5 49.5q-170 0 -313 -125l18 88h-211z" />
<glyph unicode="o" d="M184 406q0 -164 92 -287q127 -176 361 -176q233 0 434 176q203 170 256 418q14 76 14 127q0 131 -57 238.5t-159.5 169t-235.5 61.5q-227 0 -434 -177q-129 -113 -200 -259t-71 -291zM397 453q0 37 11 84q23 104 89 189t158.5 134t186.5 49q129 0 206.5 -80.5 t77.5 -210.5q0 -43 -8 -81q-20 -101 -86.5 -187t-159 -136t-188.5 -50q-125 0 -206 82t-81 207z" />
<glyph unicode="p" horiz-adv-x="1339" d="M45 -381h211l109 512q115 -188 348 -188q147 0 286.5 81.5t238.5 218t132 294.5q16 76 16 139q0 127 -52 231.5t-148 165t-219 60.5q-229 0 -430 -189l32 152h-211zM440 453q0 37 11 84q23 104 89 189t158.5 134t186.5 49q127 0 204.5 -82t77.5 -209q0 -43 -8 -81 q-20 -101 -86.5 -187t-159 -136t-186.5 -50q-125 0 -206 82t-81 207z" />
<glyph unicode="q" horiz-adv-x="1339" d="M184 397q0 -160 76 -274q113 -180 342 -180q236 0 430 188l-108 -512h209l313 1477h-209l-33 -152q-117 188 -350 189q-231 0 -418 -181q-119 -111 -185.5 -259t-66.5 -296zM397 453q0 37 11 84q23 104 89 189t158.5 134t186.5 49q129 0 206.5 -80.5t77.5 -210.5 q0 -43 -8 -81q-20 -101 -86.5 -187t-159 -136t-188.5 -50q-125 0 -206 82t-81 207z" />
<glyph unicode="r" horiz-adv-x="774" d="M121 -23h211l143 668q23 111 113 187.5t194 76.5q39 0 88 -16l31 18l45 213q-47 9 -82 9q-170 0 -313 -125l18 88h-211z" />
<glyph unicode="s" horiz-adv-x="1110" d="M168 233q0 -141 108.5 -215.5t266.5 -74.5q113 0 224.5 43t192 122.5t105.5 186.5q10 47 10 82q0 143 -135 209h2q-23 12 -309 71q-133 31 -133 105q0 12 2 18q16 61 88 95t160 34q188 0 188 -116q0 -10 -4 -35h211q10 51 10 86q0 139 -103.5 214t-256.5 75 q-160 0 -301 -86q-96 -57 -154.5 -154.5t-58.5 -194.5q0 -152 135 -211q14 -8 90 -22l217 -49q131 -31 131 -101q0 -12 -2 -20q-25 -131 -260 -131q-88 0 -152 26h2q-57 25 -57 89q0 25 4 38h-211q-10 -51 -10 -84z" />
<glyph unicode="t" horiz-adv-x="751" d="M252 874h205l-187 -874h211l187 874h204l48 222h-205l53 252h-211l-53 -252h-205z" />
<glyph unicode="u" horiz-adv-x="1161" d="M188 313q0 -160 91.5 -265t244.5 -105q166 0 314 123l-19 -89h211l238 1119h-211l-142 -666q-25 -113 -112 -188q-94 -78 -195 -78q-90 0 -146 59.5t-56 147.5q0 29 6 59l141 666h-211l-141 -666q-12 -61 -13 -117z" />
<glyph unicode="v" horiz-adv-x="1132" d="M264 1096l189 -1119h213l669 1119h-229l-479 -801l-135 801h-228z" />
<glyph unicode="w" horiz-adv-x="1628" d="M266 1096l109 -1119h205l387 740l71 -740h205l584 1119h-217l-387 -740l-72 740h-207l-385 -740l-72 740h-221z" />
<glyph unicode="x" horiz-adv-x="1071" d="M25 -23h260l323 365l164 -365h262l-254 560l492 559h-262l-320 -363l-168 363h-258l254 -559z" />
<glyph unicode="y" horiz-adv-x="1132" d="M143 -391q63 -25 101 -25q186 0 295 183v-3l796 1332h-229l-479 -801l-135 801h-228l187 -1096l-93 -158q-20 -37 -67 -37q-20 0 -101 29z" />
<glyph unicode="z" horiz-adv-x="1177" d="M104 -23h961l47 224h-651l796 688l46 207h-961l-47 -222h653l-798 -688z" />
<glyph unicode="{" horiz-adv-x="821" d="M236 516h71q37 0 59.5 -17.5t22.5 -49.5q0 -12 -2 -19l-65 -305q-6 -31 -7 -59q0 -109 65.5 -188t166.5 -79h104l49 221h-90q-30 0 -54 26t-24 58q0 14 3 21l59 287q6 25 6 51q0 53 -20 100q-20 45 -45 64q41 25 71 65q66 74 80 150l62 286q10 43 45 72q41 33 73 33h90 l50 221h-107q-76 0 -154.5 -48t-137 -124t-70.5 -154l-66 -305q-10 -41 -42 -63.5t-75 -22.5h-71z" />
<glyph unicode="|" horiz-adv-x="462" d="M217 330q0 -211 92 -381t258 -267.5t377 -97.5q131 0 285 47l-6 160q-125 -39 -242 -39q-174 0 -311.5 79t-213 218t-75.5 311q0 88 20 177q45 213 184.5 393t334 286.5t393.5 106.5q176 0 312 -80t211 -219t75 -315q0 -82 -19 -172q-35 -152 -129 -261 q-106 -129 -235 -129q-41 0 -63.5 31t-22.5 76q0 14 4 39q0 6 2 8l4 12l190 650h-167l-33 -109q-70 135 -248 135q-174 0 -344 -151q-160 -154 -199 -340q-12 -51 -12 -101q0 -135 79 -223t212 -88q184 0 336 139q-4 -61 18.5 -118.5t72.5 -93.5t124 -36q127 0 246.5 80 t205.5 209t119 271q23 113 23 208q0 213 -92.5 383t-258 266.5t-374.5 96.5q-244 0 -479.5 -129t-405.5 -348t-225 -477q-23 -113 -23 -207zM817 453q0 29 6 59q12 76 67.5 145.5t131.5 111.5t149 42q86 0 138.5 -53t52.5 -137q0 -27 -6 -58q-25 -125 -131 -213v2 q-100 -88 -219 -88q-86 0 -137.5 52.5t-51.5 136.5z" />
<glyph unicode="}" horiz-adv-x="821" d="M82 -201h106q113 0 226 105q117 106 137 221l65 305q8 41 41 63.5t76 22.5h72l47 221h-72q-37 0 -59.5 16.5t-22.5 47.5q0 14 2 22l66 305q6 31 6 60q0 109 -66.5 187.5t-164.5 78.5h-105l-49 -221h90q31 0 54.5 -24.5t23.5 -57.5q0 -14 -2 -23l-59 -286q-6 -27 -7 -54 q0 -49 21 -96q23 -51 43 -65q-43 -27 -72 -64q-63 -80 -78 -151l-61 -287q-10 -43 -45 -72q-43 -33 -74 -33h-90z" />
<glyph unicode="~" horiz-adv-x="980" d="M262 283h426l-65 -306h208l66 306h428l39 186h-426l29 137h426l39 187h-351l586 661h-260l-481 -543l-248 543h-260l301 -661h-350l-39 -187h426l-29 -137h-426z" />
<glyph unicode="&#xa1;" horiz-adv-x="530" d="M117 -201h211l196 1082h-143zM360 1096q0 -49 31 -82t82 -33q68 0 122 54.5t54 127.5q0 49 -30.5 81t-81.5 32q-68 0 -122.5 -54.5t-54.5 -125.5z" />
<glyph unicode="&#xa2;" horiz-adv-x="1269" d="M-2 -362q66 -53 143 -54q111 0 219.5 84t153.5 203l252 735h172l76 221h-170l129 369q10 31 37.5 52.5t56.5 21.5q18 0 47 -29l166 199q-69 51 -143 51q-115 0 -222.5 -84t-150.5 -203l-131 -377h-170l-78 -221h170l-250 -729q-10 -29 -37.5 -50.5t-54.5 -21.5 q-16 0 -49 29z" />
<glyph unicode="&#xa3;" horiz-adv-x="1275" d="M217 463h209q20 -156 98 -273.5t203 -182t283 -64.5q195 0 407 114l60 277q-223 -170 -418 -170q-154 0 -261.5 84t-140.5 215h611l102 186h-731q4 33 12 68l8 35q4 25 9 32h778l104 187h-784q84 121 223 209q150 88 303 88q197 0 336 -158l125 223q-170 158 -414 158 q-240 0 -462 -150q-217 -139 -342 -370h-144l-106 -187h170l-6 -32l-9 -35l-6 -35l-8 -33h-104z" />
<glyph unicode="&#xa4;" horiz-adv-x="1591" d="M223 403q0 -133 70 -253q102 -162 282 -197l-38 -191h211l38 191q219 37 392 225l2 29l-140 108q-93 -100 -202 -133l149 711q92 -35 152 -133l200 121q-111 203 -303 241l41 189h-211l-43 -189q-201 -41 -364 -198q-174 -174 -219 -387q-16 -76 -17 -134zM440 451 q0 35 11 86q25 129 114.5 223t210.5 133l-151 -711q-101 35 -146 123q-39 63 -39 146z" />
<glyph unicode="&#xa5;" horiz-adv-x="1464" d="M213 606h170l-133 -629h889l49 224h-680l86 405h340l47 221h-342l35 158q16 76 66.5 141.5t120 103.5t140.5 38q147 0 209 -150l209 105q-43 123 -141 195.5t-227 72.5q-127 0 -252 -68.5t-215 -185.5t-119 -252l-35 -158h-170z" />
<glyph unicode="&#xa6;" horiz-adv-x="462" d="M82 -201h211l354 1655h-211z" />
<glyph unicode="&#xa7;" horiz-adv-x="1142" d="M231 436q0 -131 56.5 -235.5t158 -164t232.5 -59.5q150 0 295 80t249.5 215.5t137.5 292.5q14 65 14 135q0 162 -92 279q-129 172 -356 172q-225 0 -430 -174q-203 -178 -250 -412q-14 -63 -15 -129zM369 471q0 111 52 218.5t148 189.5l17 12l16 14l-145 -684 q-9 9 -21 29q-68 90 -67 221zM498 184h77l66 314h82q77 -1 100 -54l105 -260h14q-113 -63 -233 -63q-129 0 -211 63zM662 944q114 66 235 66q100 0 177 -45t120 -123t43 -176q0 -47 -12 -101q-37 -174 -178 -303l-82 207l-2 -2q-6 10 -15 31l-12 24q66 29 111 82 q68 80 67 166q0 66 -45 111q-57 63 -147 63h-260zM670 631l39 180h184q39 0 64.5 -18.5t25.5 -51.5q0 -12 -2 -18q-10 -41 -47 -66.5t-80 -25.5h-184z" />
<glyph unicode="&#xa8;" horiz-adv-x="802" d="M362 1196h150l119 117l65 -117h154l-111 258h-159z" />
<glyph unicode="&#xa9;" horiz-adv-x="1366" d="M82 -201h211l158 742h-211zM279 713h210l158 741h-211z" />
<glyph unicode="&#xaa;" horiz-adv-x="1110" d="M334 926q0 -119 59 -209q82 -137 258 -137q174 0 316 129l-23 -103h168l182 848h-170l-22 -102q-88 131 -258 131q-174 0 -318 -137q-92 -84 -142 -197t-50 -223zM506 973q0 68 31.5 134.5t91.5 117.5q98 80 205 80q106 0 161 -82q45 -57 45 -133q0 -29 -6 -60 q-25 -118 -119 -194q-88 -80 -198 -80q-106 0 -170 82q-41 59 -41 135z" />
<glyph unicode="&#xab;" horiz-adv-x="1431" d="M199 342l448 -373l133 156l-360 301l487 301l-65 156l-606 -373zM762 342l446 -373l131 156l-358 301l487 301l-65 156l-606 -373z" />
<glyph unicode="&#xac;" horiz-adv-x="972" d="M221 453l512 -408l131 158l-422 334l566 335l-66 158l-684 -407z" />
<glyph unicode="&#xad;" horiz-adv-x="972" d="M221 444h721l39 187h-721z" />
<glyph unicode="&#xae;" horiz-adv-x="1366" d="M334 940q0 -131 84 -217q104 -113 262 -117l-209 -987h211l342 1614h164l-342 -1614h211l342 1614h205l49 221h-772q-115 0 -230.5 -55.5t-198.5 -152.5t-108 -216q-10 -51 -10 -90z" />
<glyph unicode="&#xaf;" horiz-adv-x="802" d="M412 1454l149 -258h146l-70 258h-225z" />
<glyph unicode="&#xb0;" horiz-adv-x="665" d="M197 336h266l-154 -717h211l152 717h266l45 223h-264l67 315h267l45 222h-264l75 358h-209l-77 -358h-265l-47 -222h267l-70 -315h-264z" />
<glyph unicode="&#xb1;" horiz-adv-x="972" d="M221 444h273l-62 -286h176l62 286h272l39 187h-272l61 287h-176l-62 -287h-272z" />
<glyph unicode="&#xb2;" horiz-adv-x="802" d="M272 694h551l29 133h-383q61 54 135 93q10 4 135 75q49 29 68 43q137 104 137 244q0 88 -66.5 139.5t-162.5 51.5q-115 0 -209 -62.5t-121 -189.5h127q12 63 60.5 90.5t107.5 27.5q70 0 100 -24q37 -25 37 -60q0 -6 -4 -22q-14 -76 -133 -146h2l-231 -133 q-143 -100 -179 -260z" />
<glyph unicode="&#xb3;" horiz-adv-x="813" d="M295 836q56 -158 242 -158q113 0 215 59q106 74 135 195q6 25 6 49q0 88 -74 139q49 29 79 80t30 105q0 78 -62 120q-59 47 -157 48q-203 0 -291 -162l106 -45q43 74 156 73q117 0 117 -59q0 -10 -2 -16q-6 -31 -51.5 -54.5t-96.5 -23.5h-72l-28 -133h71q70 0 110 -33 t32 -88q-12 -57 -67.5 -90t-127.5 -33q-119 0 -145 94z" />
<glyph unicode="&#xb4;" horiz-adv-x="565" d="M399 1286h224l-136 -627h160l133 627h148l-133 -627h157l90 420l56 -420h143l234 418l-91 -418h162l170 795h-198l-287 -512l-68 512h-727z" />
<glyph unicode="&#xb6;" horiz-adv-x="1468" d="M383 1188q0 -57 35 -107q47 -63 133 -63q82 0 160 63q72 59 94 156q4 16 4 47q0 76 -45 123t-121 47q-82 0 -160 -63q-78 -61 -94 -154q-6 -25 -6 -49zM494 1212q0 8 4 25q8 43 44 72.5t76 29.5q35 0 57.5 -21.5t22.5 -55.5q0 -52 -38.5 -90.5t-86.5 -38.5 q-35 0 -57 22.5t-22 56.5z" />
<glyph unicode="&#xb7;" horiz-adv-x="530" d="M236 502q0 -47 31.5 -79t80.5 -32q70 0 123 53.5t53 124.5q0 52 -31.5 83.5t-82.5 31.5q-66 0 -120 -54.5t-54 -127.5z" />
<glyph unicode="&#xb8;" horiz-adv-x="565" d="M418 1454l106 -258h160l221 258h-153l-115 -115l-70 115h-149z" />
<glyph unicode="&#xb9;" horiz-adv-x="559" d="M383 1243l66 -88l126 113l-122 -574h127l161 760h-110z" />
<glyph unicode="&#xba;" horiz-adv-x="1110" d="M334 928q0 -123 69 -217q98 -131 277 -131q172 0 328 131q158 139 194 319q12 53 12 98q0 119 -71 220q-100 135 -273 135q-178 0 -331 -135q-154 -129 -195 -318q-10 -57 -10 -102zM506 975q0 139 123 250q98 80 205 80q106 0 161 -82q45 -57 45 -133q0 -29 -6 -60 q-25 -118 -119 -194q-88 -80 -198 -80q-106 0 -168 80q-43 61 -43 139z" />
<glyph unicode="&#xbb;" horiz-adv-x="1431" d="M145 125l64 -156l608 373l35 168l-446 373l-134 -156l361 -301zM707 125l63 -156l610 373l35 168l-448 373l-133 -156l362 -301z" />
<glyph unicode="&#xbc;" horiz-adv-x="972" d="M264 659h723l25 115h-721zM270 92h297l-24 -115h108l27 115h67l25 115h-68l82 387h-90l-401 -401zM432 207l203 201l-41 -201h-162zM625 1280l57 -72l98 84l-98 -454h111l131 616h-95z" />
<glyph unicode="&#xbd;" horiz-adv-x="972" d="M258 -23h449l24 115h-299q24 25 96 68q68 35 107 59q92 53 129 107q41 63 41 125q0 63 -47 110q-53 47 -140 47q-96 0 -171.5 -52t-98.5 -159h109q20 96 135 97q55 0 74 -19q27 -14 26 -47q0 -10 -2 -16q-14 -57 -104 -113h2l-92 -53l-95 -53q-113 -80 -143 -216z M264 659h723l25 115h-721zM625 1280l57 -72l98 84l-98 -454h111l131 616h-95z" />
<glyph unicode="&#xbe;" horiz-adv-x="972" d="M264 659h723l25 115h-721zM270 92h297l-24 -115h108l27 115h67l25 115h-68l82 387h-90l-401 -401zM432 207l203 201l-41 -201h-162zM457 956q36 -133 196 -133q72 0 137.5 31t107.5 88t42 133q0 70 -57 107q39 27 63.5 68.5t24.5 82.5q0 59 -47 99q-51 37 -133 36 q-164 0 -240 -137l94 -39q35 61 121 62q102 0 90 -58q-6 -23 -42 -40t-73 -17h-61l-25 -115h62q45 0 77.5 -20.5t32.5 -52.5q0 -12 -2 -19q-6 -47 -48 -70.5t-99 -23.5q-90 0 -113 78z" />
<glyph unicode="&#xbf;" horiz-adv-x="905" d="M143 43q0 -123 71 -202t189 -79q139 0 252 107q119 104 150 248l-17 20h-192q-10 -51 -55 -104q-43 -47 -90 -47q-41 0 -67 28.5t-26 71.5q0 10 4 31q18 88 113 157l86 64l84 61q127 109 154 240q4 10 6 41q12 88 18 143l6 58h-139q-8 -23 -35 -113q-6 -25 -26 -84 q-45 -135 -150 -201l-90 -55l-94 -57q-109 -84 -145 -254q-6 -37 -7 -74zM668 1094q0 -49 30.5 -81t81.5 -32q68 0 122 54.5t54 125.5q0 49 -31.5 82t-82.5 33q-68 0 -121 -54.5t-53 -127.5z" />
<glyph unicode="&#xc0;" d="M27 -23h223l182 324h559l41 -324h225l-194 1477h-211zM555 522l328 588l78 -588h-406zM766 1812l149 -258h146l-68 258h-227z" />
<glyph unicode="&#xc1;" d="M27 -23h223l182 324h559l41 -324h225l-194 1477h-211zM555 522l328 588l78 -588h-406zM891 1554h147l258 258h-227z" />
<glyph unicode="&#xc2;" d="M27 -23h223l182 324h559l41 -324h225l-194 1477h-211zM555 522l328 588l78 -588h-406zM733 1554h152l116 117l66 -117h154l-109 258h-160z" />
<glyph unicode="&#xc3;" d="M27 -23h223l182 324h559l41 -324h225l-194 1477h-211zM555 522l328 588l78 -588h-406zM709 1628l118 -74q49 96 68 97q41 0 92 -45q76 -51 115 -52q106 0 192 175l-6 26l-102 66q-50 -97 -66 -97q-35 0 -96 43q-63 51 -113 52q-106 0 -202 -191z" />
<glyph unicode="&#xc4;" d="M27 -23h223l182 324h559l41 -324h225l-194 1477h-211zM555 522l328 588l78 -588h-406zM723 1640q0 -37 23.5 -61.5t62.5 -24.5q51 0 92 42t41 98q0 37 -23.5 60.5t-62.5 23.5q-51 0 -92 -41t-41 -97zM1063 1640q0 -37 23.5 -61.5t62.5 -24.5q51 0 92 42t41 98 q0 37 -23.5 60.5t-62.5 23.5q-51 0 -92 -41t-41 -97z" />
<glyph unicode="&#xc5;" d="M27 -23h223l182 324h559l41 -324h225l-186 1409q90 62 115 173q4 14 4 45q0 74 -47 124t-119 50q-82 0 -160 -66q-45 -39 -73.5 -96t-28.5 -113q0 -72 49 -119zM555 522l328 588l78 -588h-406zM877 1534q0 51 37.5 90t84.5 39q35 0 58.5 -22.5t23.5 -57.5 q0 -51 -38.5 -90t-86.5 -39q-35 0 -57 22.5t-22 57.5z" />
<glyph unicode="&#xc6;" horiz-adv-x="1982" d="M27 -23h223l182 324h559l41 -324h817l49 224h-614l86 405h445l47 221h-445l86 406h613l49 221h-824l-172 -807l-106 807h-211zM555 522l328 588l78 -588h-406z" />
<glyph unicode="&#xc7;" horiz-adv-x="1454" d="M217 549q0 -156 61.5 -285t173 -212t257.5 -103l-58 -131h76q53 0 53 -51q0 -31 -23.5 -58.5t-58.5 -27.5h-133l-49 -97h164q63 0 123 49q55 49 67 115q4 25 4 37q0 41 -20 72.5t-55 48.5l16 37q299 6 559 227l8 31l-108 137q-205 -174 -420 -174q-217 0 -336 162 q-84 115 -84 270q0 137 64.5 273.5t183.5 238.5q190 160 405 160q217 0 349 -172l182 151q-182 244 -481 244q-199 0 -390.5 -104.5t-328.5 -282.5t-182 -387q-18 -86 -19 -168z" />
<glyph unicode="&#xc8;" horiz-adv-x="1245" d="M121 -23h993l49 224h-784l86 405h614l45 221h-612l86 406h784l48 221h-994zM741 1812l150 -258h145l-67 258h-228z" />
<glyph unicode="&#xc9;" horiz-adv-x="1245" d="M121 -23h993l49 224h-784l86 405h614l45 221h-612l86 406h784l48 221h-994zM866 1554h148l260 258h-227z" />
<glyph unicode="&#xca;" horiz-adv-x="1245" d="M121 -23h993l49 224h-784l86 405h614l45 221h-612l86 406h784l48 221h-994zM709 1554h151l119 117l65 -117h152l-109 258h-159z" />
<glyph unicode="&#xcb;" horiz-adv-x="1245" d="M121 -23h993l49 224h-784l86 405h614l45 221h-612l86 406h784l48 221h-994zM698 1638q0 -37 22.5 -60.5t61.5 -23.5q51 0 93.5 42t42.5 98q0 37 -24 60.5t-63 23.5q-53 0 -93 -41t-40 -99zM1040 1636q0 -39 20.5 -61.5t63.5 -20.5q51 0 92 42t41 98q0 37 -23.5 60.5 t-62.5 23.5q-55 6 -93 -41t-38 -101z" />
<glyph unicode="&#xcc;" horiz-adv-x="462" d="M121 -23h211l315 1477h-211zM350 1812l150 -258h145l-67 258h-228z" />
<glyph unicode="&#xcd;" horiz-adv-x="462" d="M121 -23h211l315 1477h-211zM477 1554h146l258 258h-228z" />
<glyph unicode="&#xce;" horiz-adv-x="462" d="M121 -23h211l315 1477h-211zM317 1554h152l117 117l65 -117h154l-109 258h-159z" />
<glyph unicode="&#xcf;" horiz-adv-x="462" d="M121 -23h211l315 1477h-211zM305 1640q0 -37 23.5 -61.5t62.5 -24.5q51 0 92 42t41 98q0 37 -23.5 60.5t-62.5 23.5q-51 0 -92 -41t-41 -97zM647 1638q0 -37 22.5 -60.5t61.5 -23.5q51 0 92 42t41 98q0 37 -23.5 60.5t-60.5 23.5q-51 0 -92 -41t-41 -99z" />
<glyph unicode="&#xd0;" horiz-adv-x="1595" d="M221 641h170l-141 -664h530q191 0 372 99.5t312 269.5t174 371q18 90 19 170q0 203 -115 350q-156 217 -446 217h-531l-135 -627h-170zM508 201l92 440h340l41 186h-342l86 406h322q114 0 203 -52.5t139.5 -142.5t50.5 -204q0 -55 -13 -117q-31 -143 -120.5 -262 t-215.5 -186.5t-264 -67.5h-319z" />
<glyph unicode="&#xd1;" horiz-adv-x="1382" d="M121 -23h211l227 1065l492 -1065h200l316 1477h-213l-228 -1063l-489 1063h-201zM754 1628l118 -74q49 96 66 97q43 0 94 -45q78 -51 115 -52q104 0 190 175l-4 26l-104 66q-48 -97 -64 -97q-39 0 -96 43q-70 51 -115 52q-104 0 -200 -191z" />
<glyph unicode="&#xd2;" horiz-adv-x="1638" d="M217 539q0 -209 119 -369q168 -227 471 -227q197 0 388 104.5t328.5 282.5t182.5 387q20 102 20 176q0 205 -118 371q-170 227 -471 227t-570 -227q-264 -229 -331 -547q-18 -92 -19 -178zM434 596q0 137 64.5 273.5t183.5 238.5q190 160 405 160q123 0 219.5 -55.5 t149.5 -155t53 -221.5q0 -57 -12 -119q-47 -223 -237 -391q-186 -162 -406 -162q-217 0 -336 162q-84 115 -84 270zM938 1812l149 -258h146l-68 258h-227z" />
<glyph unicode="&#xd3;" horiz-adv-x="1638" d="M217 539q0 -209 119 -369q168 -227 471 -227q197 0 388 104.5t328.5 282.5t182.5 387q20 102 20 176q0 205 -118 371q-170 227 -471 227t-570 -227q-264 -229 -331 -547q-18 -92 -19 -178zM434 596q0 137 64.5 273.5t183.5 238.5q190 160 405 160q123 0 219.5 -55.5 t149.5 -155t53 -221.5q0 -57 -12 -119q-47 -223 -237 -391q-186 -162 -406 -162q-217 0 -336 162q-84 115 -84 270zM1063 1554h147l258 258h-227z" />
<glyph unicode="&#xd4;" horiz-adv-x="1638" d="M217 539q0 -209 119 -369q168 -227 471 -227q197 0 388 104.5t328.5 282.5t182.5 387q20 102 20 176q0 205 -118 371q-170 227 -471 227t-570 -227q-264 -229 -331 -547q-18 -92 -19 -178zM434 596q0 137 64.5 273.5t183.5 238.5q190 160 405 160q123 0 219.5 -55.5 t149.5 -155t53 -221.5q0 -57 -12 -119q-47 -223 -237 -391q-186 -162 -406 -162q-217 0 -336 162q-84 115 -84 270zM905 1554h152l117 117l65 -117h154l-109 258h-160z" />
<glyph unicode="&#xd5;" horiz-adv-x="1638" d="M217 539q0 -209 119 -369q168 -227 471 -227q197 0 388 104.5t328.5 282.5t182.5 387q20 102 20 176q0 205 -118 371q-170 227 -471 227t-570 -227q-264 -229 -331 -547q-18 -92 -19 -178zM434 596q0 137 64.5 273.5t183.5 238.5q190 160 405 160q123 0 219.5 -55.5 t149.5 -155t53 -221.5q0 -57 -12 -119q-47 -223 -237 -391q-186 -162 -406 -162q-217 0 -336 162q-84 115 -84 270zM881 1628l118 -74q49 96 68 97q41 0 92 -45q76 -51 115 -52q106 0 192 175l-6 26l-104 66q-48 -97 -64 -97q-35 0 -96 43q-63 51 -113 52q-106 0 -202 -191z " />
<glyph unicode="&#xd6;" horiz-adv-x="1638" d="M217 539q0 -209 119 -369q168 -227 471 -227q197 0 388 104.5t328.5 282.5t182.5 387q20 102 20 176q0 205 -118 371q-170 227 -471 227t-570 -227q-264 -229 -331 -547q-18 -92 -19 -178zM434 596q0 137 64.5 273.5t183.5 238.5q190 160 405 160q123 0 219.5 -55.5 t149.5 -155t53 -221.5q0 -57 -12 -119q-47 -223 -237 -391q-186 -162 -406 -162q-217 0 -336 162q-84 115 -84 270zM893 1640q0 -37 23.5 -61.5t62.5 -24.5q51 0 92 42t41 98q0 37 -23.5 60.5t-62.5 23.5q-51 0 -92 -41t-41 -97zM1235 1638q0 -37 22.5 -60.5t61.5 -23.5 q51 0 92 42t41 98q0 37 -23.5 60.5t-60.5 23.5q-51 0 -92 -41t-41 -99z" />
<glyph unicode="&#xd7;" horiz-adv-x="966" d="M221 444h721l39 187h-721z" />
<glyph unicode="&#xd8;" horiz-adv-x="1638" d="M45 55l61 -84l240 189q168 -217 461 -217q301 0 567 227q172 150 260 339t88 376q0 172 -67 301l243 192l-63 84l-238 -188q-171 217 -460 217q-301 0 -570 -227q-172 -152 -260 -342.5t-88 -376.5q0 -170 68 -299zM432 588q0 66 14 129q49 229 236 391q190 160 405 160 q207 0 324 -142l-934 -733q-45 89 -45 195zM530 305l936 733q43 -92 43 -198q0 -57 -12 -123q-47 -223 -237 -391q-186 -162 -406 -162q-207 0 -324 141z" />
<glyph unicode="&#xd9;" horiz-adv-x="1347" d="M209 408q0 -131 58.5 -238t161.5 -167t233 -60q233 0 434 176q205 172 258 418l196 917h-211l-196 -917q-20 -100 -87 -186.5t-159 -136.5t-188 -50q-145 0 -230 108q-55 78 -55 172q0 43 12 93l195 917h-211l-197 -917q-14 -63 -14 -129zM795 1812l147 -258h145l-67 258 h-225z" />
<glyph unicode="&#xda;" horiz-adv-x="1347" d="M209 408q0 -131 58.5 -238t161.5 -167t233 -60q233 0 434 176q205 172 258 418l196 917h-211l-196 -917q-20 -100 -87 -186.5t-159 -136.5t-188 -50q-145 0 -230 108q-55 78 -55 172q0 43 12 93l195 917h-211l-197 -917q-14 -63 -14 -129zM920 1554h145l260 258h-229z " />
<glyph unicode="&#xdb;" horiz-adv-x="1347" d="M209 408q0 -131 58.5 -238t161.5 -167t233 -60q233 0 434 176q205 172 258 418l196 917h-211l-196 -917q-20 -100 -87 -186.5t-159 -136.5t-188 -50q-145 0 -230 108q-55 78 -55 172q0 43 12 93l195 917h-211l-197 -917q-14 -63 -14 -129zM760 1554h151l117 117l68 -117 h151l-108 258h-158z" />
<glyph unicode="&#xdc;" horiz-adv-x="1347" d="M209 408q0 -131 58.5 -238t161.5 -167t233 -60q233 0 434 176q205 172 258 418l196 917h-211l-196 -917q-20 -100 -87 -186.5t-159 -136.5t-188 -50q-145 0 -230 108q-55 78 -55 172q0 43 12 93l195 917h-211l-197 -917q-14 -63 -14 -129zM748 1640q0 -37 23.5 -61.5 t62.5 -24.5q51 0 92 42t41 98q0 37 -23.5 60.5t-62.5 23.5q-51 0 -92 -41t-41 -97zM1090 1638q0 -37 22.5 -60.5t61.5 -23.5q51 0 93 42t42 98q0 37 -23.5 60.5t-62.5 23.5q-51 0 -92 -41t-41 -99z" />
<glyph unicode="&#xdd;" horiz-adv-x="1294" d="M332 1454l354 -774l-149 -703h211l149 703l686 774h-262l-481 -543l-246 543h-262zM891 1554h147l258 258h-227z" />
<glyph unicode="&#xde;" horiz-adv-x="1239" d="M121 -23h211l67 316h389q170 0 336 117q158 121 201 307q10 51 10 88q0 121 -82 219q-111 117 -286 117h-387l67 313h-211zM446 514l86 406h390q82 0 138 -46.5t56 -119.5q0 -109 -106 -185q-86 -55 -174 -55h-390z" />
<glyph unicode="&#xdf;" d="M82 -201h211l233 1096q35 154 138 258q102 115 235 115q246 0 246 -135q0 -10 -4 -39q-16 -80 -114.5 -128t-207.5 -48h-125l-47 -224h123q127 0 214 -58t87 -159q0 -31 -4 -47q-25 -123 -141.5 -194.5t-266.5 -71.5q-55 0 -149 22l-94 -215q83 -28 194 -28 q156 0 297.5 58t241.5 169t131 260q10 55 10 92q0 88 -39 154h2q-41 80 -129 131q111 53 174.5 155.5t63.5 213.5q0 147 -105 227q-117 88 -309 88q-143 0 -276 -82t-228.5 -219t-128.5 -295z" />
<glyph unicode="&#xe0;" horiz-adv-x="1339" d="M184 397q0 -160 76 -274q113 -180 342 -180q236 0 430 188l-35 -154h211l238 1119h-209l-33 -152q-117 188 -350 189q-231 0 -418 -181q-119 -111 -185.5 -259t-66.5 -296zM397 453q0 37 11 84q23 104 89 189t158.5 134t186.5 49q129 0 206.5 -80.5t77.5 -210.5 q0 -43 -8 -81q-20 -101 -86.5 -187t-159 -136t-188.5 -50q-125 0 -206 82t-81 207zM694 1454l148 -258h145l-67 258h-226z" />
<glyph unicode="&#xe1;" horiz-adv-x="1339" d="M184 397q0 -160 76 -274q113 -180 342 -180q236 0 430 188l-35 -154h211l238 1119h-209l-33 -152q-117 188 -350 189q-231 0 -418 -181q-119 -111 -185.5 -259t-66.5 -296zM397 453q0 37 11 84q23 104 89 189t158.5 134t186.5 49q129 0 206.5 -80.5t77.5 -210.5 q0 -43 -8 -81q-20 -101 -86.5 -187t-159 -136t-188.5 -50q-125 0 -206 82t-81 207zM817 1196h148l260 258h-230z" />
<glyph unicode="&#xe2;" horiz-adv-x="1339" d="M184 397q0 -160 76 -274q113 -180 342 -180q236 0 430 188l-35 -154h211l238 1119h-209l-33 -152q-117 188 -350 189q-231 0 -418 -181q-119 -111 -185.5 -259t-66.5 -296zM397 453q0 37 11 84q23 104 89 189t158.5 134t186.5 49q129 0 206.5 -80.5t77.5 -210.5 q0 -43 -8 -81q-20 -101 -86.5 -187t-159 -136t-188.5 -50q-125 0 -206 82t-81 207zM659 1196h152l117 117l67 -117h152l-109 258h-159z" />
<glyph unicode="&#xe3;" horiz-adv-x="1339" d="M184 397q0 -160 76 -274q113 -180 342 -180q236 0 430 188l-35 -154h211l238 1119h-209l-33 -152q-117 188 -350 189q-231 0 -418 -181q-119 -111 -185.5 -259t-66.5 -296zM397 453q0 37 11 84q23 104 89 189t158.5 134t186.5 49q129 0 206.5 -80.5t77.5 -210.5 q0 -43 -8 -81q-20 -101 -86.5 -187t-159 -136t-188.5 -50q-125 0 -206 82t-81 207zM637 1270l117 -74q47 96 65 96q43 0 94 -45q70 -51 115 -51q106 0 193 174l-7 27l-104 65q-43 -96 -63 -96q-35 0 -97 43q-70 51 -112 51q-109 0 -201 -190z" />
<glyph unicode="&#xe4;" horiz-adv-x="1339" d="M184 397q0 -160 76 -274q113 -180 342 -180q236 0 430 188l-35 -154h211l238 1119h-209l-33 -152q-117 188 -350 189q-231 0 -418 -181q-119 -111 -185.5 -259t-66.5 -296zM397 453q0 37 11 84q23 104 89 189t158.5 134t186.5 49q129 0 206.5 -80.5t77.5 -210.5 q0 -43 -8 -81q-20 -101 -86.5 -187t-159 -136t-188.5 -50q-125 0 -206 82t-81 207zM647 1282q0 -37 23.5 -61.5t62.5 -24.5q51 0 91 42t40 97q0 37 -23.5 60.5t-60.5 23.5q-51 0 -92 -41t-41 -96zM987 1282q0 -37 23.5 -61.5t62.5 -24.5q51 0 92 42t41 97q0 37 -23.5 60.5 t-62.5 23.5q-51 0 -92 -41t-41 -96z" />
<glyph unicode="&#xe5;" horiz-adv-x="1339" d="M184 397q0 -160 76 -274q113 -180 342 -180q236 0 430 188l-35 -154h211l238 1119h-209l-33 -152q-117 188 -350 189q-231 0 -418 -181q-119 -111 -185.5 -259t-66.5 -296zM397 453q0 37 11 84q23 104 89 189t158.5 134t186.5 49q129 0 206.5 -80.5t77.5 -210.5 q0 -43 -8 -81q-20 -101 -86.5 -187t-159 -136t-188.5 -50q-125 0 -206 82t-81 207zM735 1368q0 -57 35 -106q45 -66 133 -66q90 0 162 66q70 59 92 153q4 16 4 49q0 74 -46 122t-120 48q-82 0 -159 -63q-78 -61 -95 -156q-6 -25 -6 -47zM848 1391q0 51 38 90t85 39 q35 0 58.5 -22.5t23.5 -57.5q0 -51 -39 -90t-86 -39q-35 0 -57.5 22.5t-22.5 57.5z" />
<glyph unicode="&#xe6;" horiz-adv-x="2215" d="M184 399q0 -129 51.5 -233.5t146.5 -163.5t220 -59q242 0 428 186l-33 -152h211l31 152q113 -186 342 -186q252 0 490 252l-152 120q-152 -152 -315 -151q-125 0 -207 82q-72 78 -74 180h891l20 61q10 29 13 50q14 66 14 137q0 129 -50 233.5t-144.5 165t-219.5 60.5 q-233 0 -434 -189l33 152h-209l-33 -152q-117 188 -350 189q-147 0 -284.5 -80t-237 -217.5t-133.5 -298.5q-14 -66 -15 -138zM397 453q0 37 11 84q23 104 89 189t158.5 134t186.5 49q129 0 206.5 -80.5t77.5 -210.5q0 -43 -8 -81q-20 -101 -86.5 -187t-159 -136t-188.5 -50 q-125 0 -206 82t-81 207zM1368 649q50 102 154 180q117 80 239 80q121 0 198 -73.5t83 -186.5h-674z" />
<glyph unicode="&#xe7;" horiz-adv-x="1210" d="M184 406q0 -174 97.5 -299t255.5 -156l-56 -133h76q25 0 39 -14.5t14 -36.5q0 -12 -2 -19q-4 -29 -27.5 -48t-52.5 -19h-133l-49 -97h162q66 0 121 47t71 117q4 25 5 37q0 41 -20.5 72.5t-55.5 48.5l16 37q276 10 492 235v29l-138 108q-151 -151 -315 -151 q-125 0 -206 82t-81 207q0 37 11 84q23 104 89 189t158.5 134t186.5 49q166 0 254 -149l200 121q-59 119 -165.5 185.5t-241.5 66.5q-150 0 -297.5 -82t-254 -219.5t-138.5 -294.5q-14 -63 -15 -131z" />
<glyph unicode="&#xe8;" d="M184 406q0 -164 92 -287q127 -176 361 -176q131 0 267 66.5t247 185.5l-152 120q-147 -152 -315 -151q-121 0 -197.5 74.5t-83.5 187.5h893l19 61q10 29 12 50q14 76 14 127q0 131 -57 238.5t-159.5 169t-235.5 61.5q-227 0 -434 -177q-129 -113 -200 -259t-71 -291z M451 649q47 100 151 180q117 80 240 80q125 0 202 -80q72 -68 80 -180h-673zM694 1454l148 -258h145l-67 258h-226z" />
<glyph unicode="&#xe9;" d="M184 406q0 -164 92 -287q127 -176 361 -176q131 0 267 66.5t247 185.5l-152 120q-147 -152 -315 -151q-121 0 -197.5 74.5t-83.5 187.5h893l19 61q10 29 12 50q14 76 14 127q0 131 -57 238.5t-159.5 169t-235.5 61.5q-227 0 -434 -177q-129 -113 -200 -259t-71 -291z M451 649q47 100 151 180q117 80 240 80q125 0 202 -80q72 -68 80 -180h-673zM817 1196h148l260 258h-230z" />
<glyph unicode="&#xea;" d="M184 406q0 -164 92 -287q127 -176 361 -176q131 0 267 66.5t247 185.5l-152 120q-147 -152 -315 -151q-121 0 -197.5 74.5t-83.5 187.5h893l19 61q10 29 12 50q14 76 14 127q0 131 -57 238.5t-159.5 169t-235.5 61.5q-227 0 -434 -177q-129 -113 -200 -259t-71 -291z M451 649q47 100 151 180q117 80 240 80q125 0 202 -80q72 -68 80 -180h-673zM659 1196h152l117 117l67 -117h152l-109 258h-159z" />
<glyph unicode="&#xeb;" d="M184 406q0 -164 92 -287q127 -176 361 -176q131 0 267 66.5t247 185.5l-152 120q-147 -152 -315 -151q-121 0 -197.5 74.5t-83.5 187.5h893l19 61q10 29 12 50q14 76 14 127q0 131 -57 238.5t-159.5 169t-235.5 61.5q-227 0 -434 -177q-129 -113 -200 -259t-71 -291z M451 649q47 100 151 180q117 80 240 80q125 0 202 -80q72 -68 80 -180h-673zM647 1282q0 -37 23.5 -61.5t62.5 -24.5q51 0 91 42t40 97q0 37 -23.5 60.5t-60.5 23.5q-51 0 -92 -41t-41 -96zM987 1282q0 -37 23.5 -61.5t62.5 -24.5q51 0 92 42t41 97q0 37 -23.5 60.5 t-62.5 23.5q-51 0 -92 -41t-41 -96z" />
<glyph unicode="&#xec;" horiz-adv-x="462" d="M121 -23h211l237 1119h-211zM276 1454l148 -258h145l-67 258h-226z" />
<glyph unicode="&#xed;" horiz-adv-x="462" d="M121 -23h211l237 1119h-211zM401 1196h146l260 258h-227z" />
<glyph unicode="&#xee;" horiz-adv-x="462" d="M121 -23h211l237 1119h-211zM242 1196h151l117 117l68 -117h151l-106 258h-160z" />
<glyph unicode="&#xef;" horiz-adv-x="462" d="M121 -23h211l237 1119h-211zM229 1282q0 -37 23.5 -61.5t62.5 -24.5q51 0 92.5 42t41.5 97q0 37 -24 60.5t-63 23.5q-51 0 -92 -41t-41 -96zM569 1282q0 -37 23.5 -61.5t62.5 -24.5q51 0 92 42t41 97q0 37 -23.5 60.5t-62.5 23.5q-51 0 -92 -41t-41 -96z" />
<glyph unicode="&#xf0;" horiz-adv-x="1441" d="M186 408q0 -168 90 -289q127 -176 361 -176q233 0 434 176q203 170 256 418l133 624h170l39 187h-170l25 106h-211l-23 -106h-170l-39 -187h170l-47 -217q-117 188 -350 189q-225 0 -418 -181q-117 -109 -183.5 -255t-66.5 -289zM397 453q0 37 11 84q23 104 89 189 t158.5 134t186.5 49q129 0 206.5 -80.5t77.5 -210.5q0 -43 -8 -81q-20 -101 -86.5 -187t-159 -136t-188.5 -50q-125 0 -206 82t-81 207z" />
<glyph unicode="&#xf1;" horiz-adv-x="1161" d="M121 -23h211l143 668q23 111 113 187.5t194 76.5q94 0 148.5 -58t54.5 -149q0 -27 -6 -57l-143 -668h211l143 668q12 60 12 115q0 104 -41 189t-117.5 134.5t-179.5 49.5q-170 0 -313 -125l18 88h-211zM578 1270l116 -74q47 96 66 96q43 0 94 -45q70 -51 115 -51 q104 0 192 174l-6 27l-104 65q-44 -96 -64 -96q-39 0 -96 43q-70 51 -115 51q-106 0 -198 -190z" />
<glyph unicode="&#xf2;" d="M184 406q0 -164 92 -287q127 -176 361 -176q233 0 434 176q203 170 256 418q14 76 14 127q0 131 -57 238.5t-159.5 169t-235.5 61.5q-227 0 -434 -177q-129 -113 -200 -259t-71 -291zM397 453q0 37 11 84q23 104 89 189t158.5 134t186.5 49q129 0 206.5 -80.5 t77.5 -210.5q0 -43 -8 -81q-20 -101 -86.5 -187t-159 -136t-188.5 -50q-125 0 -206 82t-81 207zM694 1454l148 -258h145l-67 258h-226z" />
<glyph unicode="&#xf3;" d="M184 406q0 -164 92 -287q127 -176 361 -176q233 0 434 176q203 170 256 418q14 76 14 127q0 131 -57 238.5t-159.5 169t-235.5 61.5q-227 0 -434 -177q-129 -113 -200 -259t-71 -291zM397 453q0 37 11 84q23 104 89 189t158.5 134t186.5 49q129 0 206.5 -80.5 t77.5 -210.5q0 -43 -8 -81q-20 -101 -86.5 -187t-159 -136t-188.5 -50q-125 0 -206 82t-81 207zM817 1196h148l260 258h-230z" />
<glyph unicode="&#xf4;" d="M184 406q0 -164 92 -287q127 -176 361 -176q233 0 434 176q203 170 256 418q14 76 14 127q0 131 -57 238.5t-159.5 169t-235.5 61.5q-227 0 -434 -177q-129 -113 -200 -259t-71 -291zM397 453q0 37 11 84q23 104 89 189t158.5 134t186.5 49q129 0 206.5 -80.5 t77.5 -210.5q0 -43 -8 -81q-20 -101 -86.5 -187t-159 -136t-188.5 -50q-125 0 -206 82t-81 207zM659 1196h152l117 117l67 -117h152l-109 258h-159z" />
<glyph unicode="&#xf5;" d="M184 406q0 -164 92 -287q127 -176 361 -176q233 0 434 176q203 170 256 418q14 76 14 127q0 131 -57 238.5t-159.5 169t-235.5 61.5q-227 0 -434 -177q-129 -113 -200 -259t-71 -291zM397 453q0 37 11 84q23 104 89 189t158.5 134t186.5 49q129 0 206.5 -80.5 t77.5 -210.5q0 -43 -8 -81q-20 -101 -86.5 -187t-159 -136t-188.5 -50q-125 0 -206 82t-81 207zM637 1270l117 -74q47 96 65 96q43 0 94 -45q70 -51 115 -51q106 0 193 174l-7 27l-104 65q-43 -96 -63 -96q-35 0 -97 43q-70 51 -112 51q-109 0 -201 -190z" />
<glyph unicode="&#xf6;" d="M184 406q0 -164 92 -287q127 -176 361 -176q233 0 434 176q203 170 256 418q14 76 14 127q0 131 -57 238.5t-159.5 169t-235.5 61.5q-227 0 -434 -177q-129 -113 -200 -259t-71 -291zM397 453q0 37 11 84q23 104 89 189t158.5 134t186.5 49q129 0 206.5 -80.5 t77.5 -210.5q0 -43 -8 -81q-20 -101 -86.5 -187t-159 -136t-188.5 -50q-125 0 -206 82t-81 207zM647 1282q0 -37 23.5 -61.5t62.5 -24.5q51 0 91 42t40 97q0 37 -23.5 60.5t-60.5 23.5q-51 0 -92 -41t-41 -96zM987 1282q0 -37 23.5 -61.5t62.5 -24.5q51 0 92 42t41 97 q0 37 -23.5 60.5t-62.5 23.5q-51 0 -92 -41t-41 -96z" />
<glyph unicode="&#xf7;" horiz-adv-x="972" d="M221 475l150 -69q47 84 82 83q41 0 135 -40q88 -45 153 -46q135 0 234 172l-6 27l-131 64q-49 -86 -84 -86q-43 0 -133 43q-96 43 -156 43q-129 0 -244 -191z" />
<glyph unicode="&#xf8;" d="M45 55l61 -84l177 135q127 -164 354 -163q233 0 434 176q104 88 168 192q102 174 102 355q0 111 -45 215l187 139l-64 84l-176 -135q-133 164 -354 164q-227 0 -434 -177q-135 -119 -203 -264t-68 -289q0 -119 43 -208zM399 459q0 43 9 78q23 104 89 189t158.5 134 t186.5 49q129 0 209 -86l-629 -481q-23 58 -23 117zM475 252l629 481q22 -64 22 -125q0 -39 -8 -71q-20 -100 -86.5 -186.5t-159 -136.5t-188.5 -50q-129 0 -209 88z" />
<glyph unicode="&#xf9;" horiz-adv-x="1161" d="M188 313q0 -160 91.5 -265t244.5 -105q166 0 314 123l-19 -89h211l238 1119h-211l-142 -666q-25 -113 -112 -188q-94 -78 -195 -78q-90 0 -146 59.5t-56 147.5q0 29 6 59l141 666h-211l-141 -666q-12 -61 -13 -117zM616 1454l150 -258h143l-67 258h-226z" />
<glyph unicode="&#xfa;" horiz-adv-x="1161" d="M188 313q0 -160 91.5 -265t244.5 -105q166 0 314 123l-19 -89h211l238 1119h-211l-142 -666q-25 -113 -112 -188q-94 -78 -195 -78q-90 0 -146 59.5t-56 147.5q0 29 6 59l141 666h-211l-141 -666q-12 -61 -13 -117zM741 1196h146l260 258h-227z" />
<glyph unicode="&#xfb;" horiz-adv-x="1161" d="M188 313q0 -160 91.5 -265t244.5 -105q166 0 314 123l-19 -89h211l238 1119h-211l-142 -666q-25 -113 -112 -188q-94 -78 -195 -78q-90 0 -146 59.5t-56 147.5q0 29 6 59l141 666h-211l-141 -666q-12 -61 -13 -117zM582 1196h153l117 117l66 -117h151l-106 258h-160z" />
<glyph unicode="&#xfc;" horiz-adv-x="1161" d="M188 313q0 -160 91.5 -265t244.5 -105q166 0 314 123l-19 -89h211l238 1119h-211l-142 -666q-25 -113 -112 -188q-94 -78 -195 -78q-90 0 -146 59.5t-56 147.5q0 29 6 59l141 666h-211l-141 -666q-12 -61 -13 -117zM569 1282q0 -37 23.5 -61.5t62.5 -24.5q51 0 92 42 t41 97q0 37 -23.5 60.5t-62.5 23.5q-51 0 -92 -41t-41 -96zM911 1282q0 -37 23.5 -61.5t60.5 -24.5q51 0 92 42t41 97q0 37 -23.5 60.5t-62.5 23.5q-51 0 -91 -40t-40 -97z" />
<glyph unicode="&#xfd;" horiz-adv-x="1132" d="M143 -391q63 -25 101 -25q186 0 295 183v-3l796 1332h-229l-479 -801l-135 801h-228l187 -1096l-93 -158q-20 -37 -67 -37q-20 0 -101 29zM735 1196h146l260 258h-230z" />
<glyph unicode="&#xfe;" horiz-adv-x="1339" d="M45 -381h211l109 512q115 -188 348 -188q147 0 286.5 81.5t238.5 218t132 294.5q16 76 16 139q0 127 -52 231.5t-148 165t-219 60.5q-229 0 -430 -189l110 510h-211zM440 453q0 37 11 84q23 104 89 189t158.5 134t186.5 49q127 0 204.5 -82t77.5 -209q0 -43 -8 -81 q-20 -101 -86.5 -187t-159 -136t-186.5 -50q-125 0 -206 82t-81 207z" />
<glyph unicode="&#xff;" horiz-adv-x="1132" d="M143 -391q63 -25 101 -25q186 0 295 183v-3l796 1332h-229l-479 -801l-135 801h-228l187 -1096l-93 -158q-20 -37 -67 -37q-20 0 -101 29zM565 1282q0 -37 23.5 -61.5t62.5 -24.5q51 0 92 42t41 97q0 37 -24.5 60.5t-63.5 23.5q-51 0 -91 -40t-40 -97zM905 1282 q0 -37 23.5 -61.5t62.5 -24.5q47 0 83 32t46 81q4 20 4 26q0 37 -23.5 60.5t-62.5 23.5q-51 0 -92 -41t-41 -96z" />
<glyph unicode="&#x152;" horiz-adv-x="2293" d="M217 539q0 -209 119 -369q168 -227 471 -227q313 0 573 229l-41 -195h822l49 224h-613l86 405h443l45 221h-442l86 406h614l47 221h-821l-43 -194q-164 231 -475 231q-301 0 -570 -227q-264 -229 -331 -547q-18 -92 -19 -178zM434 596q0 137 64.5 273.5t183.5 238.5 q190 160 405 160q123 0 219.5 -55.5t149.5 -155t53 -221.5q0 -57 -12 -119q-47 -223 -237 -391q-186 -162 -406 -162q-217 0 -336 162q-84 115 -84 270z" />
<glyph unicode="&#x153;" horiz-adv-x="2215" d="M184 406q0 -164 92 -287q127 -176 361 -176q137 0 272 66.5t240 183.5q53 -117 160.5 -183.5t244.5 -66.5q135 0 270.5 66.5t246.5 185.5l-152 120q-152 -152 -315 -151q-125 0 -207 82q-72 78 -74 180h891l20 61q10 29 13 50q14 76 14 127q0 131 -57.5 238.5t-159.5 169 t-236 61.5q-137 0 -273 -67t-241 -185q-53 119 -160.5 185.5t-244.5 66.5q-227 0 -434 -177q-129 -113 -200 -259t-71 -291zM397 453q0 37 11 84q23 104 89 189t158.5 134t186.5 49q129 0 206.5 -80.5t77.5 -210.5q0 -43 -8 -81q-20 -101 -86.5 -187t-159 -136t-188.5 -50 q-125 0 -206 82t-81 207zM1368 649q50 102 154 180q117 80 239 80q121 0 198 -73.5t83 -186.5h-674z" />
<glyph unicode="&#x178;" horiz-adv-x="1294" d="M332 1454l354 -774l-149 -703h211l149 703l686 774h-262l-481 -543l-246 543h-262zM721 1640q0 -37 23.5 -61.5t62.5 -24.5q51 0 92 42t41 98q0 37 -23.5 60.5t-62.5 23.5q-51 0 -92 -41t-41 -97zM1063 1638q0 -37 22.5 -60.5t61.5 -23.5q51 0 92 42t41 98 q0 37 -23.5 60.5t-60.5 23.5q-51 0 -92 -41t-41 -99z" />
<glyph unicode="&#x2c6;" horiz-adv-x="700" d="M37 -381h166q68 0 123 49q72 68 71 152q0 41 -20.5 73.5t-54.5 47.5l49 116h-109l-86 -204h76q25 0 38 -14.5t13 -35.5q0 -31 -23.5 -58.5t-58.5 -27.5h-131z" />
<glyph unicode="&#x2dc;" horiz-adv-x="1024" d="M389 1266l119 -76q47 96 65 96q41 0 93 -45q78 -49 114 -49q106 0 193 174l-6 25l-101 65q-49 -96 -67 -96q-35 0 -97 43q-63 51 -110 51q-111 0 -203 -188z" />
<glyph unicode="&#x2000;" horiz-adv-x="910" />
<glyph unicode="&#x2001;" horiz-adv-x="1821" />
<glyph unicode="&#x2002;" horiz-adv-x="910" />
<glyph unicode="&#x2003;" horiz-adv-x="1821" />
<glyph unicode="&#x2004;" horiz-adv-x="607" />
<glyph unicode="&#x2005;" horiz-adv-x="455" />
<glyph unicode="&#x2006;" horiz-adv-x="303" />
<glyph unicode="&#x2007;" horiz-adv-x="303" />
<glyph unicode="&#x2008;" horiz-adv-x="227" />
<glyph unicode="&#x2009;" horiz-adv-x="364" />
<glyph unicode="&#x200a;" horiz-adv-x="101" />
<glyph unicode="&#x2010;" horiz-adv-x="972" d="M221 444h721l39 187h-721z" />
<glyph unicode="&#x2011;" horiz-adv-x="972" d="M221 444h721l39 187h-721z" />
<glyph unicode="&#x2012;" horiz-adv-x="972" d="M221 444h721l39 187h-721z" />
<glyph unicode="&#x2013;" horiz-adv-x="802" d="M221 444h551l39 187h-551z" />
<glyph unicode="&#x2014;" horiz-adv-x="1142" d="M221 444h891l41 187h-893z" />
<glyph unicode="&#x2018;" horiz-adv-x="530" d="M319 909h279l64 295h-170q16 58 54 96.5t77 38.5l24 115q-96 0 -171 -78t-99 -194z" />
<glyph unicode="&#x2019;" horiz-adv-x="530" d="M373 1161h168q-16 -61 -52 -99t-77 -38l-25 -115q102 0 176 84q66 72 92 189l60 272h-279z" />
<glyph unicode="&#x201a;" horiz-adv-x="530" d="M121 -23h168q-16 -55 -54 -95t-75 -40l-25 -114q104 0 174 82q72 78 97 190l57 272h-281z" />
<glyph unicode="&#x201c;" horiz-adv-x="905" d="M319 909h279l64 295h-170q16 58 54 96.5t77 38.5l24 115q-96 0 -171 -78t-99 -194zM694 909h279l63 295h-170q17 58 54.5 96.5t74.5 38.5l27 115q-98 0 -174 -80t-96 -192z" />
<glyph unicode="&#x201d;" horiz-adv-x="905" d="M373 1161h168q-16 -61 -52 -99t-77 -38l-25 -115q102 0 176 84q66 72 92 189l60 272h-279zM748 1161h167q-16 -59 -53 -98t-76 -39l-24 -115q102 0 176 84q66 72 92 189l60 272h-281z" />
<glyph unicode="&#x201e;" horiz-adv-x="905" d="M121 -23h168q-16 -55 -54 -95t-75 -40l-25 -114q104 0 174 82q72 78 97 190l57 272h-281zM494 -23h170q-16 -55 -54.5 -95t-74.5 -40l-25 -114q104 0 174 82q72 78 96 190l58 272h-281z" />
<glyph unicode="&#x2022;" horiz-adv-x="905" d="M231 465q0 -117 75 -194.5t188 -77.5q133 0 251 100q121 109 150 244q6 34 6 65q0 117 -72.5 198t-187.5 81q-88 0 -173 -46.5t-146.5 -125t-81.5 -172.5q-8 -49 -9 -72z" />
<glyph unicode="&#x2026;" horiz-adv-x="1415" d="M147 92q0 -49 31 -82t82 -33q68 0 122 54.5t54 126.5q0 49 -31.5 81.5t-82.5 32.5q-66 0 -120.5 -54t-54.5 -126zM590 92q0 -49 30.5 -82t81.5 -33q68 0 122.5 54.5t54.5 128.5q0 49 -31 80.5t-82 31.5q-68 0 -122 -54t-54 -126zM1034 90q0 -49 31 -81t80 -32 q68 0 122 54.5t54 128.5q0 49 -30.5 80.5t-82.5 31.5q-70 0 -122 -55t-52 -127z" />
<glyph unicode="&#x202f;" horiz-adv-x="364" />
<glyph unicode="&#x2039;" horiz-adv-x="765" d="M240 537l362 -301l133 157l-274 230l370 229l-65 156l-490 -301z" />
<glyph unicode="&#x203a;" horiz-adv-x="765" d="M203 393l63 -157l490 301l37 170l-363 301l-131 -156l272 -229z" />
<glyph unicode="&#x205f;" horiz-adv-x="455" />
<glyph unicode="&#x20ac;" horiz-adv-x="1591" d="M199 303q0 -143 100 -231q92 -92 276 -121l-32 -152h211l32 152q201 29 356.5 140.5t196.5 295.5q10 47 11 100q0 143 -95 220q-88 63 -286 102l96 446q80 -14 125 -59q45 -37 45 -106q0 -27 -6 -62h211q10 47 10 102q0 147 -94 236.5t-244 116.5l33 151h-211l-33 -151 q-178 -29 -311 -129q-170 -121 -207 -303q-12 -57 -12 -107q0 -127 80 -207q88 -80 268 -112l-96 -453q-96 16 -150 59q-55 41 -55 123q0 35 4 54h-211q-12 -55 -12 -105zM588 1006q0 20 6 45q23 90 106 145q59 43 152 59l-86 -409q-88 22 -129 57q-49 41 -49 103zM834 172 l90 418q106 -23 157.5 -55.5t51.5 -100.5q0 -23 -7 -47q-37 -178 -292 -215z" />
<glyph unicode="&#x2122;" horiz-adv-x="1531" d="M158 111q0 -143 109.5 -218t264.5 -75q115 0 226.5 41t191.5 120.5t103 190.5q10 51 10 86q0 102 -68 166q76 51 124 137t48 174q0 147 -133 211h2q-20 14 -311 72q-131 31 -131 104q0 12 2 19q12 61 84 95t160 34q82 0 138 -28t56 -81q0 -12 -2 -18l-6 -25h213 q10 47 10 84q0 139 -105.5 215t-254.5 76q-162 0 -301 -86q-102 -61 -157.5 -155.5t-55.5 -188.5q0 -111 67 -172q-74 -51 -122 -140.5t-48 -177.5q0 -147 134 -209q14 -8 90 -22l217 -49q61 -14 95 -46t34 -71q0 -55 -67.5 -95t-194.5 -40q-82 0 -150 24h2q-61 31 -61 80 q0 12 2 21l6 29h-213q-8 -39 -8 -82zM492 635q0 12 2 18q12 66 80.5 100.5t160.5 34.5q45 0 78 -6q135 -33 135 -110q0 -12 -2 -19q-16 -67 -96 -102q-82 -29 -150 -29q-45 0 -75 8q-133 31 -133 105z" />
<glyph unicode="&#xe000;" horiz-adv-x="1095" d="M0 0v1096h1096v-1096h-1096z" />
</font>
</defs>
</svg>
